<svg xmlns="http://www.w3.org/2000/svg" width="27" height="27" fill="none" viewBox="0 0 27 27">
  <path fill="#18A5F1" fill-rule="evenodd" d="M6.188 2.125a4.062 4.062 0 0 0-4.063 4.063v4.086a.813.813 0 0 1-1.625 0V6.188A5.687 5.687 0 0 1 6.188.5H9.65a.813.813 0 0 1 0 1.625H6.188Zm10.67-.813A.813.813 0 0 1 17.67.5h3.142A5.688 5.688 0 0 1 26.5 6.188v4.086a.812.812 0 0 1-1.625 0V6.188a4.062 4.062 0 0 0-4.063-4.063H17.67a.813.813 0 0 1-.813-.813ZM2.124 17.982a.813.813 0 0 0-1.625 0v2.831A5.688 5.688 0 0 0 6.188 26.5H9.65a.813.813 0 0 0 0-1.625H6.188a4.062 4.062 0 0 1-4.063-4.063v-2.831Zm23.563-.813c.448 0 .812.364.812.813v2.831a5.688 5.688 0 0 1-5.688 5.688H17.67a.813.813 0 0 1 0-1.625h3.142a4.062 4.062 0 0 0 4.063-4.063v-2.831c0-.449.364-.813.813-.813Zm-19.636-4.48a.813.813 0 0 0 0 1.624H20.27a.813.813 0 0 0 0-1.624H6.05Z" clip-rule="evenodd"/>
  <path fill="#17A5F1" d="m17.095.738.354.354-.354-.354Zm7.74 1.428-.354.353.353-.353Zm-7.74-.279.354-.354-.354.354Zm-.129 24.207.433-.25-.433.25ZM2.125 6.187h.5a3.563 3.563 0 0 1 3.563-3.562v-1a4.562 4.562 0 0 0-4.563 4.563h.5Zm0 4.087h.5V6.188h-1v4.086h.5Zm-.813.813v.5c.725 0 1.313-.588 1.313-1.313h-1c0 .173-.14.313-.313.313v.5ZM.5 10.274H0c0 .725.588 1.313 1.313 1.313v-1A.312.312 0 0 1 1 10.274H.5Zm0-4.086H0v4.086h1V6.188H.5ZM6.188.5V0A6.188 6.188 0 0 0 0 6.188h1A5.187 5.187 0 0 1 6.188 1V.5ZM9.65.5V0H6.188v1H9.65V.5Zm.813.813h.5A1.312 1.312 0 0 0 9.65 0v1c.173 0 .313.14.313.313h.5Zm-.813.812v.5c.725 0 1.313-.588 1.313-1.313h-1c0 .173-.14.313-.313.313v.5Zm-3.463 0v.5H9.65v-1H6.188v.5ZM17.095.738l-.353-.354a1.31 1.31 0 0 0-.385.928h1a.31.31 0 0 1 .092-.22l-.354-.354ZM17.67.5V0c-.348 0-.682.138-.928.384l.353.354.354.354a.313.313 0 0 1 .22-.092V.5Zm3.142 0V0H17.67v1h3.142V.5Zm4.022 1.666.354-.354A6.188 6.188 0 0 0 20.813 0v1c1.375 0 2.695.547 3.668 1.52l.353-.354ZM26.5 6.188h.5a6.187 6.187 0 0 0-1.812-4.376l-.354.354-.353.353A5.187 5.187 0 0 1 26 6.187h.5Zm0 4.086h.5V6.188h-1v4.086h.5Zm-.406.704.25.433c.406-.234.656-.668.656-1.137h-1c0 .112-.06.215-.156.271l.25.433Zm-.813 0-.25.433a1.31 1.31 0 0 0 1.313 0l-.25-.433-.25-.433a.313.313 0 0 1-.313 0l-.25.433Zm-.406-.704h-.5c0 .47.25.903.656 1.137l.25-.433.25-.433a.313.313 0 0 1-.156-.27h-.5Zm0-4.086h-.5v4.086h1V6.188h-.5Zm-4.063-4.063v.5a3.563 3.563 0 0 1 3.563 3.563h1a4.562 4.562 0 0 0-4.563-4.563v.5Zm-3.142 0v.5h3.142v-1H17.67v.5Zm-.575-.238-.353.354c.246.246.58.384.928.384v-1a.313.313 0 0 1-.221-.092l-.354.354Zm-.238-.575h-.5c0 .349.139.682.385.929l.353-.354.354-.354a.312.312 0 0 1-.092-.22h-.5ZM1.313 17.169v.5c.172 0 .312.14.312.313h1c0-.725-.588-1.313-1.313-1.313v.5Zm-.813.813H1c0-.173.14-.313.313-.313v-1c-.725 0-1.313.588-1.313 1.313h.5Zm0 2.831H1v-2.831H0v2.831h.5ZM6.188 26.5V26A5.187 5.187 0 0 1 1 20.812H0A6.187 6.187 0 0 0 6.188 27v-.5Zm3.463 0V26H6.188v1H9.65v-.5Zm.813-.813h-.5c0 .173-.14.313-.313.313v1c.725 0 1.313-.588 1.313-1.313h-.5Zm-.813-.812v.5c.173 0 .313.14.313.313h1c0-.725-.588-1.313-1.313-1.313v.5Zm-3.463 0v.5H9.65v-1H6.188v.5Zm-4.063-4.063h-.5a4.562 4.562 0 0 0 4.563 4.563v-1a3.563 3.563 0 0 1-3.563-3.563h-.5Zm0-2.831h-.5v2.831h1v-2.831h-.5Zm24.375 0h.5c0-.725-.588-1.313-1.313-1.313v1c.173 0 .313.14.313.313h.5Zm0 2.831h.5v-2.831h-1v2.831h.5Zm-1.666 4.022.354.354A6.187 6.187 0 0 0 27 20.813h-1a5.187 5.187 0 0 1-1.52 3.668l.354.353ZM20.813 26.5v.5a6.187 6.187 0 0 0 4.375-1.812l-.354-.354-.353-.353A5.187 5.187 0 0 1 20.812 26v.5Zm-3.143 0v.5h3.142v-1H17.67v.5Zm-.704-.406-.433.25c.234.406.668.656 1.137.656v-1a.313.313 0 0 1-.27-.156l-.434.25Zm0-.813-.433-.25a1.312 1.312 0 0 0 0 1.313l.433-.25.433-.25a.312.312 0 0 1 0-.313l-.433-.25Zm.704-.406v-.5c-.47 0-.903.25-1.137.656l.433.25.433.25a.313.313 0 0 1 .27-.156v-.5Zm3.142 0v-.5H17.67v1h3.142v-.5Zm4.063-4.063h-.5a3.563 3.563 0 0 1-3.563 3.563v1a4.562 4.562 0 0 0 4.563-4.563h-.5Zm0-2.831h-.5v2.831h1v-2.831h-.5Zm.813-.813v-.5c-.725 0-1.313.588-1.313 1.313h1c0-.173.14-.313.313-.313v-.5ZM5.238 13.5h.5c0-.173.14-.313.313-.313v-1c-.725 0-1.313.588-1.313 1.313h.5Zm.813.813v-.5a.312.312 0 0 1-.313-.313h-1c0 .725.588 1.313 1.313 1.313v-.5Zm14.219 0v-.5H6.05v1h14.22v-.5Zm.812-.813h-.5c0 .173-.14.313-.312.313v1c.724 0 1.312-.588 1.312-1.313h-.5Zm-.812-.813v.5c.172 0 .312.14.312.313h1c0-.725-.588-1.313-1.312-1.313v.5Zm-14.22 0v.5h14.22v-1H6.05v.5Z"/>
</svg>
