<svg xmlns="http://www.w3.org/2000/svg" width="38" height="38" viewBox="0 0 38 38" fill="none">
  <rect width="38" height="38" rx="19" fill="#232D39" />
  <path
    d="M24.417 27H13.583C12.1571 26.9983 11.0017 25.8428 11 24.417V13.583C11.0017 12.1571 12.1571 11.0017 13.583 11H19C19.2761 11 19.5 11.2239 19.5 11.5C19.5 11.7761 19.2761 12 19 12H13.583C12.71 12 12 12.71 12 13.583V24.416C12 25.29 12.71 26 13.583 26H24.416C25.29 26 26 25.29 26 24.417V20.071C26 19.7948 26.2238 19.571 26.5 19.571C26.7761 19.571 27 19.7948 27 20.071V24.417C26.9983 25.8428 25.8428 26.9983 24.417 27Z"
    fill="white" stroke="white" stroke-width="0.4" />
  <path
    d="M16.7302 22.602C16.475 22.6024 16.2608 22.4098 16.2342 22.156C16.2202 22.024 15.9142 18.889 18.1682 16.394C19.7632 14.628 22.2042 13.656 25.4332 13.498L24.0002 11.825C23.8841 11.6893 23.8492 11.5019 23.9087 11.3334C23.9682 11.165 24.1131 11.0411 24.2887 11.0084C24.4644 10.9758 24.6441 11.0393 24.7602 11.175L26.8802 13.649C27.007 13.7974 27.036 14.0059 26.9544 14.1832C26.8727 14.3605 26.6954 14.474 26.5002 14.474H26.3992C22.9882 14.474 20.4712 15.342 18.9182 17.054C16.9622 19.21 17.2252 22.023 17.2282 22.051C17.2562 22.3253 17.0573 22.5706 16.7832 22.6C16.7652 22.602 16.7482 22.602 16.7302 22.602V22.602Z"
    fill="white" stroke="white" stroke-width="0.4" />
  <path
    d="M24.3799 17.3011C24.1903 17.3014 24.0169 17.1946 23.9319 17.0251C23.847 16.8556 23.8652 16.6527 23.9789 16.5011L26.0989 13.6741C26.2646 13.4529 26.5782 13.4079 26.7994 13.5736C27.0206 13.7392 27.0656 14.0529 26.8999 14.2741L24.7799 17.1011C24.6855 17.227 24.5373 17.3011 24.3799 17.3011V17.3011Z"
    fill="white" stroke="white" stroke-width="0.4" />
</svg>