<svg xmlns="http://www.w3.org/2000/svg" width="18" height="18" fill="none" viewBox="0 0 18 18">
  <path fill="#000"
    d="M3 4.5a3 3 0 0 0-3 3V15a3 3 0 0 0 3 3h7.5a3 3 0 0 0 3-3H12a1.5 1.5 0 0 1-1.5 1.5H3A1.5 1.5 0 0 1 1.5 15V7.5A1.5 1.5 0 0 1 3 6V4.5Z" />
  <path fill="#000" fill-rule="evenodd"
    d="M7.5 0H15a3 3 0 0 1 3 3v7.5a3 3 0 0 1-3 3H7.5a3 3 0 0 1-3-3V3a3 3 0 0 1 3-3Zm9 3A1.5 1.5 0 0 0 15 1.5H7.5A1.5 1.5 0 0 0 6 3v7.5A1.5 1.5 0 0 0 7.5 12H15a1.5 1.5 0 0 0 1.5-1.5V3Z"
    clip-rule="evenodd" />
</svg>