<svg xmlns="http://www.w3.org/2000/svg" width="28" height="28" fill="none" viewBox="0 0 28 28">
  <circle cx="14" cy="14" r="14" fill="#19232C" transform="rotate(-90 14 14)" />
  <path fill="#FFF" fill-rule="evenodd"
    d="M14.67 18.28a.815.815 0 0 1-.481.397.6.6 0 0 1-.189.028.6.6 0 0 1-.189-.028.815.815 0 0 1-.48-.396l-4.877-4.878c-.237-.236-.205-.652.071-.928.276-.276.692-.308.929-.072L14 16.95l4.546-4.547c.237-.236.653-.204.929.072.276.276.308.692.071.928l-4.877 4.878Z"
    clip-rule="evenodd" />
</svg>