<svg xmlns="http://www.w3.org/2000/svg" width="38" height="38" fill="none" viewBox="0 0 38 38">
  <rect width="38" height="38" fill="#fff" rx="19" />
  <path fill="#000" stroke="#000" stroke-width=".4"
    d="M24.417 27H13.583A2.586 2.586 0 0 1 11 24.417V13.583A2.586 2.586 0 0 1 13.583 11H19a.5.5 0 0 1 0 1h-5.417C12.71 12 12 12.71 12 13.583v10.833c0 .874.71 1.584 1.583 1.584h10.833C25.29 26 26 25.29 26 24.417v-4.346a.5.5 0 1 1 1 0v4.346A2.586 2.586 0 0 1 24.417 27Z" />
  <path fill="#000" stroke="#000" stroke-width=".4"
    d="M16.73 22.602a.498.498 0 0 1-.496-.446c-.014-.132-.32-3.267 1.934-5.762 1.595-1.766 4.036-2.738 7.265-2.896L24 11.825a.5.5 0 1 1 .76-.65l2.12 2.474a.5.5 0 0 1-.38.825h-.1c-3.412 0-5.929.868-7.482 2.58-1.956 2.156-1.693 4.969-1.69 4.997a.501.501 0 0 1-.445.549c-.018.002-.035.002-.053.002Z" />
  <path fill="#000" stroke="#000" stroke-width=".4"
    d="M24.38 17.301a.5.5 0 0 1-.401-.8l2.12-2.827a.5.5 0 1 1 .8.6l-2.12 2.827a.5.5 0 0 1-.4.2Z" />
</svg>