<?xml version="1.0" encoding="UTF-8"?>
<svg width="30px" height="20px" viewBox="0 0 30 20" version="1.1" xmlns="http://www.w3.org/2000/svg" xmlns:xlink="http://www.w3.org/1999/xlink">
    <title>柬埔寨</title>
    <g id="页面-1" stroke="none" stroke-width="1" fill="none" fill-rule="evenodd">
        <g id="柬埔寨">
            <g transform="translate(0, 0)" fill-rule="nonzero">
                <path d="M0.122324639,19.8122859 L29.8067506,19.8122859 L29.8067506,0.122952743 L0.122324639,0.122952743 L0.122324639,19.8122859 Z M30,20 L30,19.8122859 L30,20 Z M0,19.9596415 L0,0 L29.9290752,0 L29.9290752,19.9352386 L0,19.9352386 L0,19.9596415 L0,19.9596415 Z" id="形状" fill="#353636"></path>
                <polygon id="路径" fill="#26278A" points="0.0489298554 14.9392276 29.8556805 14.9392276 29.8556805 19.8854944 0.0489298554 19.8854944"></polygon>
                <polygon id="路径" fill="#CA271F" points="0.0489298554 5.02041391 29.8556805 5.02041391 29.8556805 14.9392276 0.0489298554 14.9392276"></polygon>
                <polygon id="路径" fill="#26278A" points="0.0489298554 0.0732085034 29.8556805 0.0732085034 29.8556805 5.02041391 0.0489298554 5.02041391"></polygon>
                <path d="M15.2087164,5.65958046 L15.5850999,5.36299216 L16.0367601,5.65958046 L16.0367601,6.00591299 L15.2087164,6.00591299 L15.2087164,5.65958046 Z M15.058163,6.1044629 L16.1120368,6.1044629 L16.1120368,6.4010512 L15.058163,6.4010512 L15.058163,6.1044629 Z M14.8323329,6.49866254 L16.2625902,6.49866254 L16.2625902,6.7961894 L14.8323329,6.7961894 L14.8323329,6.49960111 L14.8323329,6.49866254 Z M14.6817795,6.89473931 L16.563697,6.89473931 L16.563697,7.24013328 L14.6817795,7.24013328 L14.6817795,6.89473931 L14.6817795,6.89473931 Z" id="形状" fill="#FFFFFF"></path>
                <path d="M14.6074438,6.24524849 L14.8210414,6.57187104 L15.9332547,6.57187104 L16.1468523,6.24524849 L15.9765388,6.57187104 L15.9765388,7.14252194 L15.6340298,7.14252194 L15.4204321,6.89849359 L15.2058935,7.14252194 L14.8643255,7.14252194 L14.8643255,6.57187104 L14.6074438,6.24524849 L14.6074438,6.24524849 Z M14.4361893,6.97921066 L14.7354142,7.30583322 L15.0779231,7.30583322 L14.9499528,7.63245577 L14.693071,7.71411141 L14.693071,7.30583322 L14.4361893,6.97921066 L14.4361893,6.97921066 Z M16.0188819,7.30583322 L16.3181068,6.97921066 L16.3181068,7.0608663 L16.1045092,7.30583322 L16.1045092,8.1223896 L15.8909115,8.1223896 L16.062166,7.79576705 L15.9332547,7.5517387 L15.8052843,7.63245577 L15.6763729,7.30583322 L16.0188819,7.30583322 L16.0188819,7.30583322 Z" id="形状" fill="#FFFFFF"></path>
                <path d="M14.7551743,7.09747055 L14.9762996,6.4902154 L15.1974249,7.09747055 L15.2952846,6.98671923 L15.2218898,7.20728331 L14.9772406,6.93134356 L14.7551743,7.20728331 L14.6573146,6.98671923 L14.7551743,7.09747055 L14.7551743,7.09747055 Z M9.86971642,6.76615515 L9.89418135,6.71077948 C9.96757613,7.04209489 10.0419119,7.42878596 10.0663768,7.81453846 L10.0419119,8.31198085 L9.86971642,8.25660519 L9.69752097,8.36735652 L9.69752097,7.81453846 C9.72198589,7.42878596 9.79632164,7.09747055 9.86971642,6.76615515 Z M19.8626984,7.7047257 C19.9116283,7.3734103 19.9605581,7.04209489 20.0339529,6.71077948 L20.0838237,6.93134356 C20.1572185,7.31803463 20.2306133,7.7047257 20.2306133,8.14585386 L20.2061484,8.31198085 L20.0339529,8.25660519 L19.8626984,8.36735652 L19.8626984,7.7047257 L19.8626984,7.7047257 Z M14.5594549,6.98671923 L14.5970932,6.98671923 L14.7476466,7.20728331 L14.5970932,7.20728331 L14.5594549,6.98671923 Z M14.3383296,6.98671923 L14.510525,7.20728331 L14.5349899,7.31803463 L14.6817795,7.31803463 L14.6328497,7.48416162 L14.510525,7.3734103 L14.4851191,7.31803463 L14.3383296,6.98671923 Z M15.4430151,7.26265897 L15.6152106,6.98671923 L15.4674801,7.31803463 L15.4674801,7.3734103 L15.3206905,7.48416162 L15.2708197,7.31803463 L15.4430151,7.31803463 L15.4430151,7.26265897 Z" id="形状" fill="#FFFFFF"></path>
                <path d="M14.8153957,8.3232437 L15.4251369,6.75958515 L15.629325,6.75958515 L16.1374427,8.3232437 L16.3915016,8.0106997 L16.1882545,8.47998498 L16.0866309,8.63672627 L15.7817603,8.63672627 L15.4768897,8.3232437 L15.1710781,8.63672627 L14.8153957,8.63672627 L14.5613368,8.0106997 L14.8153957,8.3232437 L14.8153957,8.3232437 Z M14.510525,8.16744099 L14.6987168,8.63672627 L14.510525,8.63672627 L14.510525,8.16744099 Z" id="形状" fill="#FFFFFF"></path>
                <path d="M14.215064,6.98014923 L14.5142889,7.70190999 L14.8718532,7.70190999 L14.6639013,8.85635178 L14.4248978,8.71275048 L14.4248978,7.84644986 L14.215064,6.98014923 Z M15.7685869,7.70190999 L16.0979224,6.97921066 L15.857978,7.84644986 L15.857978,8.71275048 L15.6189744,8.85729035 L15.4100816,7.70190999 L15.7685869,7.70190999 Z" id="形状" fill="#FFFFFF"></path>
                <path d="M15.3696204,7.16786334 L15.5578121,6.98014923 L15.5578121,7.16786334 L15.3696204,7.16786334 Z M14.9273697,7.21479187 L15.0007645,7.15566193 C15.1484951,7.27298325 15.2952846,7.56675583 15.3451554,7.97691116 L15.5164099,7.80139847 L15.3451554,8.2115538 L15.17296,8.2115538 L14.9762996,8.03604111 L14.7551743,8.2115538 L14.6083847,8.2115538 L14.4606542,7.80139847 L14.6328497,7.97691116 C14.6573146,7.62494721 14.7805802,7.33211319 14.9273697,7.21479187 Z M13.9948796,7.74226853 L13.9948796,7.50762589 L14.2395289,7.85958984 L14.3383296,7.97691116 L14.3383296,8.15336243 L14.4851191,8.15336243 L14.6074438,8.32887512 L14.7062444,8.32887512 L14.6817795,8.32887512 L14.510525,8.85729035 L14.215064,8.85729035 L14.215064,8.03604111 L13.9948796,7.74226853 L13.9948796,7.74226853 Z M15.6641405,7.91871979 L15.9087897,7.56675583 L15.9840664,7.56675583 L15.9586605,7.74226853 L15.7375352,8.03604111 L15.7375352,8.85729035 L15.5907457,8.7981604 L15.468421,8.85729035 L15.4185502,8.73996903 L15.2463548,8.32887512 L15.3686794,8.32887512 L15.4430151,8.15336243 L15.6152106,8.15336243 L15.6152106,7.97691116 L15.6641405,7.91871979 Z M9.77185671,7.80139847 L9.91864627,7.74226853 C10.0663768,7.80139847 10.2131664,7.91871979 10.2875021,8.27068375 L10.4587566,8.2115538 L10.2875021,8.38800507 L10.1153067,8.38800507 L9.86971642,7.85958984 L9.64859111,8.38800507 L9.47639566,8.38800507 L9.30514116,8.2115538 L9.45193073,8.27068375 L9.77185671,7.80139847 L9.77185671,7.80139847 Z M19.6171082,8.27068375 C19.690503,7.97691116 19.8382335,7.85958984 19.9850231,7.80139847 L20.1572185,7.85958984 L20.4517386,8.32887512 L20.5994691,8.27068375 L20.4517386,8.38800507 L20.2795432,8.38800507 L20.0348939,7.85958984 L19.7883627,8.38800507 L19.6171082,8.38800507 L19.4693777,8.2115538 L19.6171082,8.27068375 L19.6171082,8.27068375 Z" id="形状" fill="#FFFFFF"></path>
                <path d="M14.3872594,7.54798442 L14.3872594,7.34713032 L14.5754512,7.54798442 L14.3872594,7.54798442 Z M15.491945,7.54798442 L15.6801368,7.34713032 L15.6801368,7.54798442 L15.491945,7.54798442 Z M9.84525149,7.54798442 L9.96757613,7.68220001 L10.0663768,8.15148529 L9.86971642,8.0172697 L9.69752097,8.15148529 L9.84525149,7.54798442 L9.84525149,7.54798442 Z M20.009488,7.54798442 L20.1082887,7.68220001 L20.2306133,8.15148529 L20.0339529,8.0172697 L19.8382335,8.15148529 L20.009488,7.54798442 Z M14.9029048,7.68220001 L15.0007645,7.6155615 C15.1983659,7.8164156 15.3696204,8.21906237 15.4430151,8.75498616 L15.6641405,8.55413206 L15.4430151,9.15763293 L15.3206905,9.09005584 L15.0007645,8.68834765 L14.9273697,8.75404759 L14.6328497,9.22333286 L14.5349899,9.22333286 L14.3138646,8.62077057 L14.5349899,8.82162467 C14.5839198,8.28570088 14.7307094,7.88305411 14.9029048,7.68220001 L14.9029048,7.68220001 Z" id="形状" fill="#FFFFFF"></path>
                <path d="M13.7728133,7.61650007 L14.0193445,7.82486273 L14.2395289,8.10267962 L14.510525,8.7981604 L14.5594549,8.7981604 L14.4117243,9.35473274 L14.0682744,9.42418696 L14.0682744,8.10267962 L13.8226842,7.89431696 L13.7737543,7.61650007 L13.7728133,7.61650007 Z M16.0809852,7.68595429 L16.1797859,7.68595429 L16.130856,7.89431696 L15.8852658,8.10267962 L15.8852658,9.49364118 L15.8852658,9.42418696 L15.7629411,9.35473274 L15.5408749,9.49364118 L15.3940853,8.86761462 L15.4430151,8.86761462 L15.7130703,8.17307241 L15.81093,8.10267962 L16.0809852,7.68595429 L16.0809852,7.68595429 Z M19.6171082,8.3804965 C19.7149679,7.96377118 19.8617575,7.75540851 20.009488,7.68595429 C20.1572185,7.82486273 20.3040081,7.96377118 20.4028088,8.31198085 L20.4272737,8.72870618 C20.3474594,8.49202897 20.2126884,8.27752154 20.0339529,8.10267962 C19.8871634,8.17307241 19.7394328,8.38143507 19.6415731,8.72870618 L19.6171082,8.38143507 L19.6171082,8.3804965 Z M9.47639566,8.3804965 C9.5507314,8.0332254 9.69752097,7.75540851 9.84525149,7.68595429 L10.0174469,7.75540851 L10.2875021,8.38143507 L10.2875021,8.65925196 C10.1887014,8.31198085 10.0419119,8.10267962 9.89418135,8.0332254 C9.74739178,8.10267962 9.59966125,8.31198085 9.50180154,8.65925196 L9.47639566,8.38143507 L9.47639566,8.3804965 Z" id="形状" fill="#FFFFFF"></path>
                <path d="M9.47639566,8.55694777 C9.5507314,8.20967666 9.69752097,7.93092121 9.84525149,7.86146699 L9.96757613,7.93092121 L10.2620962,8.55694777 L10.2620962,8.90421887 L10.1397716,8.90421887 L9.89512231,8.34764653 L9.84525149,8.34764653 L9.57519633,8.9736731 L9.45287169,8.9736731 L9.47639566,8.55694777 L9.47639566,8.55694777 Z M19.6415731,8.41710076 L19.9850231,7.86146699 L20.1327536,7.93092121 L20.4272737,8.55694777 L20.4272737,8.90421887 L20.3049491,8.90421887 L20.0584179,8.27819231 L20.009488,8.27819231 L19.7648387,8.83476465 L19.6415731,8.90421887 L19.6415731,8.41710076 L19.6415731,8.41710076 Z M14.4361893,9.25242855 C14.510525,8.55694777 14.7561153,8.13928387 14.9762996,7.93092121 L15.2708197,8.34764653 L15.5164099,9.25148998 L15.7864651,9.04312732 L15.5164099,9.73766953 L15.2717607,9.73766953 L14.9762996,9.3209442 L14.7062444,9.7386081 L14.4615952,9.7386081 L14.190599,9.04406589 L14.190599,8.9736731 L14.4361893,9.25148998 L14.4361893,9.25242855 Z" id="形状" fill="#FFFFFF"></path>
                <path d="M9.47639566,9.42230982 C9.52626647,8.85353606 9.673997,8.34201511 9.86971642,8.05762823 L9.96757613,8.1702567 C10.1397716,8.45558215 10.2376313,8.91078887 10.2875021,9.42230982 L10.311967,9.42230982 L10.5076865,9.19517575 L10.2875021,9.93476935 L10.2875021,9.87751654 C10.2131664,9.47956263 10.0899008,9.13792294 9.91864627,8.9671031 L9.89418135,8.9671031 C9.72198589,9.13792294 9.57425537,9.53587686 9.50180154,9.93383078 L9.47639566,9.87751654 L9.28067624,9.19517575 L9.45193073,9.36599559 L9.47639566,9.42230982 L9.47639566,9.42230982 Z M10.336432,8.05762823 L10.3608969,8.1702567 L10.4342917,8.45558215 L10.6798819,8.28476231 L10.4098267,8.79722183 L10.311967,8.79722183 L10.1896424,8.56914919 L10.336432,8.56914919 L10.336432,8.05762823 L10.336432,8.05762823 Z M19.6171082,9.42230982 C19.6660381,8.85353606 19.8137686,8.34201511 20.0339529,8.05762823 C20.2550782,8.34201511 20.4028088,8.85353606 20.4517386,9.42230982 L20.6728639,9.13792294 L20.4517386,9.87751654 C20.3783438,9.47956263 20.2306133,9.08160871 20.0584179,8.85447464 C19.8626984,9.02341734 19.7394328,9.42230982 19.6660381,9.87751654 L19.4213888,9.19517575 L19.6171082,9.42230982 L19.6171082,9.42230982 Z M13.552629,8.11394247 L13.6504887,8.11394247 L14.0193445,8.56914919 L14.0193445,8.68271622 L14.190599,8.73903046 L14.4361893,9.25148998 L14.510525,9.25148998 L14.5594549,9.42230982 L14.4606542,9.65038247 L13.8960789,9.65038247 L13.8960789,8.68365479 L13.6260238,8.39832934 L13.552629,8.11394247 L13.552629,8.11394247 Z M16.3265754,8.11394247 L16.4009112,8.11394247 L16.3265754,8.39832934 L16.0565203,8.68271622 L16.0565203,9.6494439 L15.491945,9.6494439 L15.3940853,9.36599559 L15.4430151,9.25148998 L15.5408749,9.19517575 L15.7864651,8.68271622 L15.9087897,8.68271622 L15.9087897,8.57008776 L16.3265754,8.11394247 L16.3265754,8.11394247 Z M9.35407102,8.45558215 L9.4274658,8.17119527 L9.4274658,8.56914919 L9.57519633,8.56914919 L9.5507314,8.62546342 L9.45193073,8.79722183 L9.35407102,8.79722183 L9.08401586,8.28476231 L9.35407102,8.45558215 Z" id="形状" fill="#FFFFFF"></path>
                <path d="M13.2082381,9.33596133 L13.2082381,8.18527383 L13.4293634,8.48843212 L13.8471491,8.48843212 L13.8471491,8.88263175 C13.7181442,8.78521349 13.5778783,8.70359935 13.4293634,8.63954198 L13.2581089,8.63954198 L13.2091791,8.76155615 L13.3315037,8.88169318 L13.6260238,8.97273453 L13.6260238,9.72922239 L14.4851191,9.72922239 L14.3627945,10.0014079 L14.1172043,9.91130508 L13.9948796,9.9713736 L14.0682744,10.0323807 L13.233644,10.0323807 C13.2091791,9.79022948 13.2091791,9.57811253 13.2091791,9.33596133 L13.2082381,9.33596133 Z M16.768826,8.15523957 L16.768826,10.0023464 L15.9341956,10.0023464 L15.9831255,9.94133934 L15.9341956,9.88127082 L15.6396755,9.9713736 L15.5173509,9.72922239 L16.3764462,9.72922239 L16.3764462,8.97273453 L16.6709663,8.85072035 L16.768826,8.76061758 L16.7198962,8.60950772 L16.5721657,8.60950772 C16.4240243,8.67333709 16.2840796,8.754633 16.1553209,8.85165892 L16.1553209,8.45745929 L16.5721657,8.45745929 L16.769767,8.15523957 L16.768826,8.15523957 Z M19.4938426,8.36735652 L19.5681783,8.15523957 L19.5926433,8.30634943 L19.7149679,8.30634943 L19.5926433,8.51846638 L19.4938426,8.51846638 L19.2237874,8.27631517 L19.4938426,8.36735652 L19.4938426,8.36735652 Z M20.5006685,8.18527383 L20.5495983,8.36735652 L20.8196535,8.27631517 L20.5495983,8.51846638 L20.4517386,8.51846638 L20.329414,8.30634943 L20.4762035,8.30634943 L20.5006685,8.18527383 Z M10.2630372,8.42742503 L10.4512289,8.57947346 L10.3759522,8.63954198 L10.2630372,8.42742503 Z M9.37853595,8.58322774 L9.5667277,8.45839786 L9.45381265,8.64611197 L9.37853595,8.58322774 Z" id="形状" fill="#FFFFFF"></path>
                <path d="M14.3872594,9.67572387 C14.4606542,9.10319583 14.7071854,8.63391055 14.9762996,8.42460932 L15.0751003,8.47716927 C15.3197495,8.68553193 15.5173509,9.10225726 15.5907457,9.62410249 L15.6396755,9.57154254 L15.9097307,9.41573983 L15.5898047,10.0933878 L15.3206905,10.0933878 L15.2708197,10.0408278 L15.0261704,9.7799052 L14.9518347,9.7799052 L14.6817795,10.0933878 L14.3872594,10.0933878 L14.0673334,9.41573983 L14.0673334,9.36317988 L14.3872594,9.67572387 L14.3872594,9.67572387 Z M9.84525149,8.5813506 L9.9431112,8.63297198 C10.1397716,8.8938946 10.2630372,9.36317988 10.2875021,9.83246516 L10.5076865,9.57154254 L10.2875021,10.2491905 L10.2620962,10.2491905 C10.1887014,9.93664649 10.0908417,9.57154254 9.9431112,9.36317988 L9.86971642,9.36317988 C9.72198589,9.57154254 9.59966125,9.88502511 9.52626647,10.2491905 L9.45193073,10.1459477 L9.25621131,9.57154254 L9.4274658,9.7799052 L9.45193073,9.83246516 C9.52626647,9.31061993 9.64953207,8.84133465 9.84525149,8.5813506 L9.84525149,8.5813506 Z M19.8871634,8.73715332 L20.0339529,8.52879065 L20.2795432,8.99807593 L20.4272737,9.7799052 L20.4517386,9.7799052 L20.648399,9.57154254 L20.4272737,10.2491905 L20.3783438,10.2491905 L20.3783438,10.1975691 L20.1082887,9.46736121 L20.009488,9.36317988 L19.8871634,9.51992116 L19.6415731,10.3017504 L19.6171082,10.3017504 L19.3959829,9.62410249 L19.6171082,9.88502511 L19.6171082,9.7799052 C19.690503,9.36317988 19.7638978,8.99807593 19.8871634,8.73809189 L19.8871634,8.73715332 Z" id="形状" fill="#FFFFFF"></path>
                <path d="M13.2581089,8.5719649 L13.4547693,8.6038763 C13.6015589,8.66863766 13.7248245,8.76531043 13.8471491,8.86292177 L14.4117243,8.86292177 L14.3383296,9.05720588 L14.1172043,8.95959454 L13.9948796,9.02529448 L14.3627945,9.51053545 L14.4606542,9.51053545 L14.5349899,9.64005819 L13.6994186,9.64005819 L13.6994186,8.86292177 L13.3324447,8.70148763 L13.2571679,8.5719649 L13.2581089,8.5719649 Z M16.4987709,8.6038763 L16.6954313,8.5719649 L16.5966306,8.70148763 L16.2776456,8.7981604 L16.2776456,9.57529682 L15.4185502,9.57529682 L15.491945,9.44577409 L15.5907457,9.44577409 L15.9586605,8.95959454 L15.8363359,8.89483317 L15.6152106,8.99244451 L15.5408749,8.86292177 L16.1054501,8.86292177 C16.2287157,8.76531043 16.3510403,8.66863766 16.4987709,8.6038763 L16.4987709,8.6038763 Z M10.5076865,8.63672627 L10.5820222,8.8619832 L10.9499371,8.73339903 L10.7288118,8.99244451 L10.5321514,9.05720588 L10.311967,9.08911727 L10.311967,9.02435591 L10.5076865,8.63672627 L10.5076865,8.63672627 Z M9.18187557,8.8619832 L9.25621131,8.66863766 L9.45193073,9.02529448 L9.45193073,9.05720588 C9.2829703,9.02144237 9.11853934,8.96698103 8.96169122,8.89483317 L8.81396069,8.76531043 L9.18187557,8.86292177 L9.18187557,8.8619832 Z M19.3225881,8.99244451 L19.4449127,8.70148763 L19.5926433,8.99244451 L19.5926433,9.12196724 L19.4449127,9.02435591 L19.347053,9.09005584 L19.4449127,9.28340138 L19.3225881,9.28340138 L18.9537323,8.86292177 L19.3225881,8.99244451 Z M20.5994691,8.73339903 L20.648399,8.76531043 L20.7217938,8.99244451 L21.0897087,8.86292177 L20.7217938,9.28340138 L20.6239341,9.28340138 L20.7217938,9.08911727 L20.6239341,9.02435591 L20.4762035,9.12196724 L20.4517386,9.02435591 L20.5994691,8.73339903 L20.5994691,8.73339903 Z M8.81396069,8.8300718 C8.93628533,8.95959454 9.05860997,8.99244451 9.20634049,9.05720588 L9.20634049,9.08911727 L9.45193073,9.54244685 L9.50180154,9.57529682 L9.4274658,9.83340373 L9.40300087,10.0605378 L9.23174638,10.0276878 L9.18187557,10.0933878 L9.4274658,10.449106 L8.81396069,10.449106 L8.81396069,8.8300718 L8.81396069,8.8300718 Z" id="形状" fill="#FFFFFF"></path>
                <path d="M18.8803375,8.76718757 C19.028068,8.95865597 19.1748576,9.18954432 19.3225881,9.38007415 L19.4938426,9.38007415 L19.6161672,9.64850533 L19.6660381,9.64850533 L19.6660381,9.68604815 L19.5926433,10.1853677 L19.4449127,10.1084049 L19.371518,10.1853677 L19.6161672,10.6067859 L18.8803375,10.6067859 L18.8803375,9.99296072 C18.8803375,9.61002393 18.8558726,9.18860575 18.8803375,8.76718757 Z M10.5575573,9.11258154 C10.7610367,9.07595922 10.9442682,8.96689971 11.0732027,8.80566897 L11.0732027,9.64850533 C11.0732027,9.87845511 11.0732027,10.1084049 11.0477968,10.3383547 L11.0477968,10.6067859 L10.3608969,10.6067859 L10.5820222,10.2229105 L10.5820222,10.1853677 L10.3608969,10.1853677 L10.2875021,9.64850533 L10.336432,9.64850533 L10.5575573,9.11258154 L10.5575573,9.11258154 Z M20.7217938,9.38007415 L21.0897087,8.88263175 C21.0897087,9.18860575 21.0897087,9.45703693 21.0652437,9.7639495 C21.0652437,10.0699235 21.0407788,10.3383547 21.0407788,10.6443287 L20.4517386,10.6443287 L20.6963879,10.2229105 L20.4762035,10.2229105 L20.4028088,9.68698672 L20.4517386,9.68698672 L20.5740633,9.41855554 L20.7217938,9.38101272 L20.7217938,9.38007415 Z" id="形状" fill="#FFFFFF"></path>
                <path d="M19.6660381,9.80806232 C19.7394328,9.45140551 19.8382335,9.13792294 20.009488,8.91454315 C20.1816835,9.09287156 20.2795432,9.40635412 20.3538789,9.7639495 L20.4272737,10.2107091 C20.329414,9.94227791 20.2061484,9.71889812 20.0339529,9.58468253 L19.9850231,9.58468253 C19.8078823,9.7385153 19.679948,9.9408631 19.6171082,10.1665963 L19.6660381,9.80806232 L19.6660381,9.80806232 Z M9.52626647,9.85311371 C9.59966125,9.49551833 9.69752097,9.13792294 9.86971642,8.91454315 L9.89418135,8.91454315 C10.0663768,9.13792294 10.1887014,9.49551833 10.2376313,9.80806232 L10.2875021,10.2107091 C10.1887014,9.94227791 10.0663768,9.67384673 9.89418135,9.58468253 L9.82078656,9.62973392 C9.65128502,9.78545836 9.53150679,9.98751997 9.47639566,10.2107091 L9.52626647,9.85311371 L9.52626647,9.85311371 Z M14.8784399,9.40635412 L15.0007645,9.31625135 C15.17296,9.40635412 15.3451554,9.62973392 15.4430151,9.89816509 L15.5907457,10.3890375 L15.9097307,10.2107091 L15.5898047,10.7916843 L14.4126653,10.7916843 L14.0692154,10.1656577 L14.3637354,10.3439861 L14.3882004,10.3439861 C14.4615952,9.94227791 14.6582555,9.58468253 14.8793808,9.40541555 L14.8784399,9.40635412 Z M14.510525,9.58468253 L14.6987168,9.58468253 L14.6046209,9.77239664 L14.510525,9.58468253 Z" id="形状" fill="#FFFFFF"></path>
                <path d="M15.3442145,9.28152424 L15.5324062,9.28152424 L15.4383104,9.46923835 L15.3442145,9.28152424 L15.3442145,9.28152424 Z M9.82078656,9.4898869 L9.89418135,9.42043268 C10.0908417,9.62973392 10.2376313,10.1159135 10.2875021,10.6724858 L10.4832215,10.3937303 L10.2875021,11.0197569 L9.47639566,11.0197569 L9.28067624,10.3937303 L9.47639566,10.6724858 C9.52626647,10.1853677 9.64859111,9.76864236 9.82078656,9.4898869 L9.82078656,9.4898869 Z M19.6161672,10.74194 C19.6660381,10.1853677 19.8382335,9.69918814 20.0339529,9.4898869 C20.2315543,9.69918814 20.3783438,10.1853677 20.4517386,10.74194 L20.648399,10.4641231 L20.4762035,11.0197569 L20.4028088,11.1586654 L19.6171082,11.1586654 L19.3959829,10.5335774 L19.6171082,10.74194 L19.6161672,10.74194 Z M8.34724515,9.90661223 L8.76503084,9.90661223 L8.76503084,11.1586654 L8.34724515,11.1586654 L8.34724515,9.9075508 L8.34724515,9.90661223 Z M11.0976676,9.90661223 L13.1593082,9.90661223 L13.1593082,10.5335774 L13.2091791,10.5335774 L13.4538283,11.1586654 L11.0732027,11.1586654 C11.0732027,10.74194 11.0976676,10.3242761 11.0976676,9.9075508 L11.0976676,9.90661223 Z M16.793291,9.90661223 L18.8069427,9.90661223 L18.8069427,11.1586654 L16.4987709,11.1586654 L16.7443611,10.5335774 L16.793291,10.5335774 L16.793291,9.9075508 L16.793291,9.90661223 Z M21.1395795,11.1586654 C21.1395795,10.74194 21.1395795,10.3242761 21.1640444,9.9075508 L21.6552249,9.9075508 L21.6552249,11.1586654 L21.1395795,11.1586654 L21.1395795,11.1586654 Z" id="形状" fill="#FFFFFF"></path>
                <path d="M13.2825738,9.7226524 L14.1172043,9.7226524 L14.2893997,9.91036651 L13.5036991,9.91036651 L13.2825738,9.7226524 Z M15.8608008,9.7226524 L16.6954313,9.7226524 L16.4743059,9.91036651 L15.6886054,9.91036651 L15.8608008,9.7226524 Z M11.2199922,9.99202215 L13.5770939,9.99202215 L13.5770939,10.4087475 L11.2199922,10.4087475 L11.2199922,9.99202215 L11.2199922,9.99202215 Z M14.5349899,9.99202215 L14.7231817,9.99202215 L14.7231817,10.1881834 L14.5349899,9.99202215 Z M14.7062444,9.99202215 L15.2463548,9.99202215 L15.2463548,14.5957107 L14.7062444,14.5957107 L14.7062444,9.99202215 L14.7062444,9.99202215 Z M15.2952846,9.99202215 L15.4834764,9.99202215 L15.2952846,10.1797363 L15.2952846,9.99202215 Z M15.492886,9.99202215 L15.6152106,9.99202215 L15.6152106,12.024966 L15.5408749,12.024966 L15.5408749,10.9221456 L15.2962256,10.9221456 L15.2962256,10.2613919 L15.491945,9.99202215 L15.492886,9.99202215 Z M16.3265754,9.99202215 L18.6347473,9.99202215 L18.6347473,10.4087475 L16.3021105,10.4087475 C16.3265754,10.2613919 16.3265754,10.1140363 16.3265754,9.99202215 L16.3265754,9.99202215 Z M18.708142,9.99202215 L18.8069427,9.99202215 L18.8314076,10.016425 L19.6660381,10.016425 L19.6660381,12.024966 L19.6415731,12.024966 L19.6415731,10.9221456 L19.347053,10.9221456 L19.347053,12.0005631 L18.732607,12.0005631 C18.708142,11.3388709 18.6836771,10.6527758 18.708142,9.99202215 L18.708142,9.99202215 Z M21.1395795,9.99202215 L21.2129743,9.99202215 L21.2129743,12.0005631 L20.7951886,12.0005631 L20.7951886,10.8977427 L20.4762035,10.8977427 L20.4762035,12.0005631 L20.4517386,12.0005631 L20.4517386,9.99202215 L21.1386385,9.99202215 L21.1395795,9.99202215 Z M8.47051074,9.99202215 L8.6587025,9.99202215 L8.6587025,10.4087475 L8.47051074,10.4087475 L8.47051074,9.99202215 L8.47051074,9.99202215 Z M8.66623017,12.0005631 L8.66623017,9.96761932 L8.74056591,9.96761932 L8.76503084,9.99202215 L9.50180154,9.99202215 L9.50180154,12.0005631 L9.45193073,12.0005631 L9.45193073,10.8977427 L9.15741064,10.8977427 L9.15741064,12.0005631 C8.98615614,12.024966 8.83842562,12.0005631 8.66623017,12.0005631 L8.66623017,12.0005631 Z M11.0732027,9.99202215 L11.1465975,9.99202215 L11.1465975,12.024966 L10.6064871,12.024966 L10.6064871,10.9221456 L10.2865611,10.9221456 L10.2865611,12.024966 L10.2376313,12.024966 L10.2376313,10.016425 L11.0477968,10.016425 L11.0477968,9.99202215 L11.0732027,9.99202215 Z M13.6260238,12.0005631 L13.6260238,9.96761932 L14.3129237,9.96761932 L14.3129237,12.0005631 L14.2649348,12.0005631 L14.2649348,10.8977427 L13.9694737,10.8977427 L13.9694737,12.0005631 L13.6260238,12.0005631 Z M14.3627945,12.0005631 L14.3627945,9.96761932 L14.4606542,9.96761932 L14.6582555,10.2613919 L14.6582555,10.8977427 L14.4117243,10.8977427 L14.4117243,12.0005631 L14.3627945,12.0005631 Z M15.6641405,12.024966 L15.6641405,9.99202215 L16.2776456,9.99202215 L16.2776456,12.024966 L16.0329963,12.024966 L16.0329963,10.9221456 L15.7130703,10.9221456 L15.7130703,12.024966 L15.6641405,12.024966 Z M21.2619041,9.99202215 L21.4585645,9.99202215 L21.4585645,10.4087475 L21.2619041,10.4087475 L21.2619041,9.99202215 L21.2619041,9.99202215 Z M9.5507314,10.016425 L9.73892315,10.016425 L9.73892315,12.3919471 L9.5507314,12.3919471 L9.5507314,10.0183021 L9.5507314,10.016425 Z M9.67305604,10.016425 L10.1153067,10.016425 L10.1153067,12.3919471 L9.67305604,12.3919471 L9.67305604,10.0183021 L9.67305604,10.016425 Z M19.7149679,10.016425 L19.9031597,10.016425 L19.9031597,12.3919471 L19.7149679,12.3919471 L19.7149679,10.0183021 L19.7149679,10.016425 Z M19.8372925,12.3675442 L19.8372925,9.99202215 L20.2795432,9.99202215 L20.2795432,12.3675442 C20.1331556,12.3921179 19.9836801,12.3921179 19.8372925,12.3675442 Z M10.1397716,12.3675442 L10.1397716,9.99202215 L10.3279633,9.99202215 L10.3279633,12.3675442 L10.1397716,12.3675442 Z M20.3040081,12.3919471 L20.3040081,10.0183021 L20.4921998,10.0183021 L20.4921998,12.3928856 L20.3040081,12.3928856 L20.3040081,12.3919471 Z M8.5194406,10.4331503 L8.70763235,10.4331503 L8.70763235,12.0005631 L8.5194406,12.0005631 L8.5194406,10.4331503 L8.5194406,10.4331503 Z M11.2199922,10.4331503 L13.5770939,10.4331503 L13.5770939,12.0005631 L13.4293634,12.0005631 L13.4293634,10.8977427 L13.1103784,10.8977427 L13.1103784,12.0005631 L12.9635888,12.0005631 L12.9635888,10.8977427 L12.6436628,10.8977427 L12.6436628,12.0005631 L12.5458031,12.0005631 L12.5458031,10.8977427 L12.2258771,10.8977427 L12.2258771,12.0005631 L12.1289584,12.0005631 L12.1289584,10.8977427 L11.8334973,10.8977427 L11.8334973,12.0005631 L11.6867078,12.0005631 L11.6867078,10.8977427 L11.3921877,10.8977427 L11.3921877,12.0005631 L11.2199922,12.0005631 L11.2199922,10.4331503 L11.2199922,10.4331503 Z M16.3265754,10.4331503 L18.6601531,10.4331503 L18.6601531,12.0005631 L18.5613525,12.0005631 L18.5613525,10.8977427 L18.2668324,10.8977427 L18.2668324,12.0005631 L18.1191019,12.0005631 L18.1191019,10.8977427 L17.8245818,10.8977427 L17.8245818,12.0005631 L17.7267221,12.0005631 L17.7267221,10.8977427 L17.432202,10.8977427 L17.432202,12.0005631 L17.2600065,12.0005631 L17.2600065,10.8977427 L16.9400805,10.8977427 L16.9400805,12.0005631 L16.793291,12.0005631 L16.793291,10.8977427 L16.473365,10.8977427 L16.473365,12.0005631 L16.3021105,12.0005631 C16.3265754,11.4862265 16.3265754,10.9718898 16.3265754,10.4331503 L16.3265754,10.4331503 Z M21.2619041,10.4331503 L21.4500959,10.4331503 L21.4500959,12.0005631 L21.2619041,12.0005631 L21.2619041,10.4331503 L21.2619041,10.4331503 Z" id="形状" fill="#FFFFFF"></path>
                <path d="M9.20634049,10.9718898 L9.40394183,10.9718898 L9.40394183,12.024966 L9.20634049,12.024966 L9.20634049,10.9718898 Z M10.3608969,10.9718898 L10.5575573,10.9718898 L10.5575573,12.024966 L10.3599559,12.024966 L10.3599559,10.9718898 L10.3608969,10.9718898 Z M11.9078331,10.9718898 L12.1035525,10.9718898 L12.1035525,12.024966 L11.9078331,12.024966 L11.9078331,10.9718898 Z M12.3002129,10.9718898 L12.4968733,10.9718898 L12.4968733,12.024966 L12.3002129,12.024966 L12.3002129,10.9718898 Z M12.7179986,12.0005631 L12.7179986,10.947487 L12.913718,10.947487 L12.913718,12.0005631 L12.7189395,12.0005631 L12.7179986,12.0005631 Z M13.1837732,10.9718898 L13.3813745,10.9718898 L13.3813745,12.024966 L13.1837732,12.024966 L13.1837732,10.9718898 Z M13.9948796,10.9718898 L14.190599,10.9718898 L14.190599,12.024966 L13.9948796,12.024966 L13.9948796,10.9718898 Z M14.4606542,10.9718898 L14.6582555,10.9718898 L14.6582555,12.024966 L14.4606542,12.024966 L14.4606542,10.9718898 Z M15.2952846,10.9718898 L15.492886,10.9718898 L15.492886,12.024966 L15.2952846,12.024966 L15.2952846,10.9718898 Z M15.7864651,10.9718898 L15.9840664,10.9718898 L15.9840664,12.024966 L15.7864651,12.024966 L15.7864651,10.9718898 Z M16.5486417,10.9718898 L16.7443611,10.9718898 L16.7443611,12.024966 L16.5477007,12.024966 L16.5477007,10.9718898 L16.5486417,10.9718898 Z M16.9899513,10.9718898 L17.1866117,10.9718898 L17.1866117,12.024966 L16.9890104,12.024966 L16.9890104,10.9718898 L16.9899513,10.9718898 Z M17.4067961,10.9718898 L17.6043974,10.9718898 L17.6043974,12.024966 L17.4067961,12.024966 L17.4067961,10.9718898 Z M18.2912973,10.9718898 L18.4879577,10.9718898 L18.4879577,12.024966 L18.2903563,12.024966 L18.2903563,10.9718898 L18.2912973,10.9718898 Z M19.371518,10.9718898 L19.5681783,10.9718898 L19.5681783,12.024966 L19.370577,12.024966 L19.370577,10.9718898 L19.371518,10.9718898 Z M20.5251334,10.9718898 L20.7217938,10.9718898 L20.7217938,12.024966 L20.5251334,12.024966 L20.5251334,10.9718898 Z M11.4411175,12.0005631 L11.4411175,10.947487 L11.6377779,10.947487 L11.6377779,12.0005631 L11.4401766,12.0005631 L11.4411175,12.0005631 Z M17.8245818,10.9718898 L18.0212421,10.9718898 L18.0212421,12.024966 L17.8245818,12.024966 L17.8245818,10.9718898 Z M9.30514116,12.0737716 L9.4274658,12.0737716 L9.37853595,12.3675442 L9.20634049,12.3675442 L9.30514116,12.0737716 L9.30514116,12.0737716 Z M10.311967,12.0737716 L10.4342917,12.0737716 L10.5321514,12.3675442 L10.3853618,12.3675442 L10.311967,12.0737716 Z M8.5194406,12.0737716 L8.61730031,12.0737716 L8.47051074,12.3675442 L8.37171007,12.3675442 L8.5194406,12.0737716 L8.5194406,12.0737716 Z M8.5194406,12.3675442 L8.69163605,12.0484302 L9.25621131,12.0484302 L9.15741064,12.3675442 C8.96169122,12.3675442 8.74056591,12.3919471 8.5194406,12.3675442 L8.5194406,12.3675442 Z M9.55355428,12.1469801 L9.61565755,12.0493688 L9.61565755,12.3675442 L9.4274658,12.3919471 L9.55355428,12.1479187 L9.55355428,12.1469801 Z M10.5076865,12.0737716 L11.1955273,12.0737716 L11.3677228,12.3928856 L10.6055462,12.3928856 L10.5076865,12.0737716 Z M11.2444572,12.0737716 L13.5770939,12.0737716 L13.4048985,12.3928856 L11.3912467,12.3928856 L11.2444572,12.0737716 Z M13.4792342,12.3675442 L13.6504887,12.0484302 L14.2649348,12.0484302 L14.1661341,12.3675442 C13.9450088,12.3675442 13.6994186,12.3919471 13.4792342,12.3675442 Z M14.2395289,12.2943357 L14.3138646,12.0737716 L14.510525,12.0737716 L14.4606542,12.3675442 L14.2160049,12.3675442 L14.2395289,12.2943357 Z M14.5726283,12.0737716 L14.6987168,12.0737716 L14.6987168,12.3928856 L14.510525,12.3675442 L14.5726283,12.0737716 L14.5726283,12.0737716 Z M15.2952846,12.3928856 L15.2952846,12.0737716 L15.4081997,12.0737716 L15.4834764,12.3675442 L15.2952846,12.3919471 L15.2952846,12.3928856 Z M15.4176093,12.0737716 L15.6152106,12.0737716 L15.6886054,12.3675442 L15.4674801,12.3675442 L15.4185502,12.0737716 L15.4176093,12.0737716 Z M15.6641405,12.0737716 L16.2776456,12.0737716 L16.449841,12.3928856 L15.7629411,12.3928856 L15.6641405,12.0737716 Z M16.3265754,12.0737716 L18.6347473,12.0737716 L18.4879577,12.3675442 L16.4987709,12.3675442 L16.3265754,12.0737716 Z M18.708142,12.0737716 L19.371518,12.0737716 L19.371518,12.0981745 L19.2981232,12.3919471 L18.5359466,12.3919471 L18.708142,12.0728331 L18.708142,12.0737716 Z M19.4449127,12.0737716 L19.5926433,12.0737716 L19.5437134,12.3928856 L19.371518,12.3675442 L19.4449127,12.0737716 Z M19.6171082,12.3928856 L19.8053,12.0493688 L19.8053,12.3919471 L19.6171082,12.3919471 L19.6171082,12.3928856 Z M20.5016094,12.0737716 L20.6728639,12.0737716 L20.7462587,12.3675442 L20.5495983,12.3675442 L20.5006685,12.0737716 L20.5016094,12.0737716 Z M20.7217938,12.0737716 L21.1885093,12.0737716 L21.3597638,12.3928856 L20.7951886,12.3928856 L20.7217938,12.0737716 L20.7217938,12.0737716 Z M21.2619041,12.0737716 L21.4096346,12.0737716 L21.5319593,12.3675442 L21.4340996,12.3675442 L21.2619041,12.0737716 Z M20.4272737,12.3928856 L20.4272737,12.0737716 L20.6154654,12.3675442 L20.4272737,12.3919471 L20.4272737,12.3928856 Z M10.2620962,12.0737716 L10.450288,12.3675442 L10.2620962,12.3675442 L10.2620962,12.0737716 Z M19.690503,12.4407527 L19.8786947,12.4407527 L19.8786947,14.5957107 L19.690503,14.5957107 L19.690503,12.4407527 Z M20.3040081,12.4407527 L20.4921998,12.4651556 L20.4921998,14.5957107 L20.3040081,14.5957107 L20.3040081,12.4407527 Z M7.95486534,12.4407527 L9.50180154,12.4407527 L9.50180154,12.6284668 L7.95486534,12.6284668 L7.95486534,12.4407527 L7.95486534,12.4407527 Z M9.5507314,14.5713079 L9.5507314,12.4163499 L9.73892315,12.4163499 L9.73892315,14.5713079 L9.5507314,14.5713079 Z M9.67305604,14.5713079 L9.67305604,12.4163499 L10.0908417,12.4163499 L10.0908417,14.5713079 C9.95266543,14.5958368 9.81123233,14.5958368 9.67305604,14.5713079 Z M10.1397716,12.4407527 L10.3279633,12.4407527 L10.3279633,14.5957107 L10.1397716,14.5957107 L10.1397716,12.4407527 Z M10.2620962,12.4407527 L14.6573146,12.4407527 L14.6573146,12.6284668 L10.2630372,12.6284668 L10.2630372,12.4407527 L10.2620962,12.4407527 Z M15.2962256,12.6284668 L15.2962256,12.4407527 L19.6415731,12.4407527 L19.6415731,12.6284668 L15.2952846,12.6284668 L15.2962256,12.6284668 Z M19.8128276,12.4407527 L20.2550782,12.4407527 L20.2550782,14.5957107 L19.8382335,14.5957107 C19.8137686,13.8617486 19.8137686,13.1503121 19.8137686,12.4407527 L19.8128276,12.4407527 Z M20.4272737,12.6284668 L20.4272737,12.4407527 L21.92528,12.4407527 L21.92528,12.6284668 L20.4272737,12.6284668 Z M15.2952846,12.5627669 L19.6415731,12.5627669 L19.6415731,12.8574781 L15.2952846,12.8574781 L15.2952846,12.5637055 L15.2952846,12.5627669 Z M7.73374004,12.5627669 L9.50180154,12.5627669 L9.50180154,12.8574781 L7.73185812,12.8574781 L7.73185812,12.5637055 L7.73374004,12.5627669 Z M10.2620962,12.5627669 L14.6573146,12.5627669 L14.6573146,12.8574781 L10.2875021,12.8574781 L10.2620962,12.5637055 L10.2620962,12.5627669 Z M20.4272737,12.5627669 L22.1454644,12.5627669 L22.1454644,12.8574781 L20.4517386,12.8574781 L20.4272737,12.5637055 L20.4272737,12.5627669 Z M7.3648842,12.9306866 L9.50086059,12.9306866 L9.50086059,13.3230091 L7.3648842,13.3230091 L7.3648842,12.9306866 Z M10.2630372,12.9306866 L14.6573146,12.9306866 L14.6573146,13.3230091 L10.2630372,13.3230091 L10.2630372,12.9306866 Z M15.2952846,12.9306866 L19.6415731,12.9306866 L19.6415731,13.3230091 L15.2952846,13.3230091 L15.2952846,12.9306866 Z M20.4272737,13.3230091 L20.4272737,12.9306866 L22.5632501,12.9306866 L22.5632501,13.3230091 L20.4272737,13.3230091 Z M6.82477388,13.3718147 L9.50180154,13.3718147 L9.50180154,13.9593599 L6.82477388,13.9593599 L6.82477388,13.3718147 Z M10.2620962,13.3718147 L14.6573146,13.3718147 L14.6573146,13.9593599 L10.2630372,13.9593599 L10.2630372,13.3718147 L10.2620962,13.3718147 Z M15.2962256,13.3718147 L19.6415731,13.3718147 L19.6415731,13.9593599 L15.2952846,13.9593599 L15.2952846,13.3718147 L15.2962256,13.3718147 Z M20.4272737,13.3718147 L23.1033604,13.3718147 L23.1033604,13.9593599 L20.4272737,13.9593599 L20.4272737,13.3718147 Z M6.28466355,14.0081656 L9.50180154,14.0081656 L9.50180154,14.5713079 L6.28466355,14.5713079 L6.28466355,14.0081656 Z M10.2620962,14.0081656 L14.6573146,14.0081656 L14.6573146,14.5713079 L10.2630372,14.5713079 L10.2630372,14.0081656 L10.2620962,14.0081656 Z M15.2962256,14.0081656 L19.6415731,14.0081656 L19.6415731,14.5713079 L15.2952846,14.5713079 L15.2952846,14.0081656 L15.2962256,14.0081656 Z M20.4272737,14.0081656 L23.6434707,14.0081656 L23.6434707,14.5713079 L20.4272737,14.5713079 L20.4272737,14.0081656 Z" id="形状" fill="#FFFFFF"></path>
            </g>
            <rect id="矩形备份-22" stroke="#000000" stroke-width="0.6" fill-opacity="0" fill="#D8D8D8" x="0.3" y="0.3" width="29.4" height="19.4"></rect>
        </g>
    </g>
</svg>