<svg width="17" height="17" viewBox="0 0 17 17" fill="none" xmlns="http://www.w3.org/2000/svg">
<path fill-rule="evenodd" clip-rule="evenodd" d="M17 8.5C17 13.1944 13.1944 17 8.5 17C3.80558 17 0 13.1944 0 8.5C0 3.80558 3.80558 0 8.5 0C13.1944 0 17 3.80558 17 8.5ZM5.31802 11.682C5.0056 11.3696 5.0056 10.863 5.31802 10.5506L7.36863 8.5L5.31802 6.44939C5.0056 6.13697 5.0056 5.63044 5.31802 5.31802C5.63044 5.0056 6.13697 5.0056 6.44939 5.31802L8.5 7.36863L10.5506 5.31802C10.863 5.0056 11.3696 5.0056 11.682 5.31802C11.9944 5.63044 11.9944 6.13697 11.682 6.44939L9.63137 8.5L11.682 10.5506C11.9944 10.863 11.9944 11.3696 11.682 11.682C11.3696 11.9944 10.863 11.9944 10.5506 11.682L8.5 9.63137L6.44939 11.682C6.13697 11.9944 5.63044 11.9944 5.31802 11.682Z" fill="#8C99A5"/>
</svg>
