<?xml version="1.0" encoding="UTF-8"?>
<svg width="30px" height="20px" viewBox="0 0 30 20" version="1.1" xmlns="http://www.w3.org/2000/svg" xmlns:xlink="http://www.w3.org/1999/xlink">
    <title>孟加拉</title>
    <g id="页面-1" stroke="none" stroke-width="1" fill="none" fill-rule="evenodd">
        <g id="孟加拉">
            <g id="孟加拉国" fill-rule="nonzero">
                <path d="M0.12253752,19.8540103 L29.7924484,19.8540103 L29.7924484,0.123123828 L0.12253752,0.123123828 L0.12253752,19.8540103 Z M29.8819323,19.953424 L29.8819323,19.853424 L29.8819323,19.953424 Z M0,20.0011726 L0,0 L29.9155722,0 L29.9155722,19.9765478 L0,19.9765478 L0,20.0011726 Z" id="形状" fill="#353636"></path>
                <polygon id="路径" fill="#008267" points="0.0492495313 0.0738742969 29.8416979 0.0738742969 29.8416979 19.9272983 0.0492495313 19.9272983"></polygon>
                <path d="M7.33759342,9.98827391 C7.33642119,13.2545732 9.9835835,15.9034944 13.2498827,15.9046674 C16.516182,15.9058396 19.1651032,13.2586773 19.1662759,9.99237805 L19.1662759,9.98827391 C19.1668621,6.72197465 16.5196998,4.07363977 13.2528143,4.07305336 C9.986515,4.07246715 7.33818012,6.71962943 7.33759342,9.986515 L7.33759342,9.98827391 Z" id="路径" fill="#E24654"></path>
            </g>
            <rect id="矩形备份-19" stroke="#000000" stroke-width="0.6" fill-opacity="0" fill="#D8D8D8" x="0.3" y="0.3" width="29.4" height="19.4"></rect>
        </g>
    </g>
</svg>