<?xml version="1.0" encoding="UTF-8"?>
<svg width="30px" height="20px" viewBox="0 0 30 20" version="1.1" xmlns="http://www.w3.org/2000/svg" xmlns:xlink="http://www.w3.org/1999/xlink">
    <title>格鲁吉亚</title>
    <g id="页面-1" stroke="none" stroke-width="1" fill="none" fill-rule="evenodd">
        <g id="格鲁吉亚">
            <g id="格鲁吉亚-(1)" fill-rule="nonzero">
                <path d="M0,20 L0,0 L30,0 L30,20 L0,20 Z M0.124481338,19.8761015 L29.8755187,19.8761015 L29.8755187,0.12224209 L0.124481338,0.12224209 L0.124481338,19.8761015 Z" id="形状" fill="#231F20"></path>
                <path d="M16.9921992,11.9870138 L29.9372614,11.9870138 L29.9372614,19.9380508 L16.9921992,19.9380508 L16.9921992,11.9870138 Z M0.0617427387,0.0609554102 L13.0081328,0.0609554102 L13.0081328,8.0119923 L0.0617427387,8.0119923 L0.0617427387,0.0609554102 Z M0.0617427387,11.9870138 L13.0081328,11.9870138 L13.0081328,19.9380508 L0.0617427387,19.9380508 L0.0617427387,11.9870138 Z M16.9921992,0.0609554102 L29.9372614,0.0609554102 L29.9372614,8.0119923 L16.9921992,8.0119923 L16.9921992,0.0609554102 Z" id="形状" fill="#FFFFFF"></path>
                <polygon id="路径" fill="#ED1C24" points="16.9925311 0.0609554102 13.0084647 0.0609554102 13.0084647 8.0119923 0.0617427387 8.0119923 0.0617427387 11.9873451 13.0084647 11.9873451 13.0084647 19.9380508 16.9925311 19.9380508 16.9925311 11.9873451 29.9375934 11.9873451 29.9375934 8.0119923 16.9925311 8.0119923"></polygon>
                <path d="M22.799668,2.14404029 C23.2405376,2.19928299 23.6865994,2.19928299 24.1274689,2.14404029 C24.0419925,2.60367679 23.9874308,3.0685063 23.9641494,3.53541377 C24.4331932,3.51288356 24.9001305,3.45820401 25.3616597,3.37176174 C25.3062253,3.81284395 25.3062253,4.25910993 25.3616597,4.70019215 C24.9002634,4.61282255 24.4332688,4.5580256 23.9641494,4.53620885 C23.9893493,5.00295474 24.0438965,5.46766053 24.1274689,5.92758232 C23.6865991,5.87234309 23.2405378,5.87234309 22.799668,5.92758232 C22.8885428,5.46683126 22.9440117,5.00028441 22.9656431,4.53157092 C22.4967178,4.55697022 22.0299799,4.61318873 21.5684647,4.69986086 C21.6222539,4.25867761 21.6222539,3.81261372 21.5684647,3.37143047 C22.0300762,3.45728671 22.4967822,3.5131694 22.9656431,3.53872656 C22.943971,3.07045492 22.8885023,2.60435155 22.799668,2.14404029 L22.799668,2.14404029 Z M5.87053942,2.14404029 C6.3114109,2.19925179 6.75746877,2.19925179 7.19834024,2.14404029 C7.11210319,2.60357092 7.0574254,3.06844447 7.03468879,3.53541377 C7.5038362,3.51280723 7.97087867,3.45812835 8.43253112,3.37176174 C8.37709672,3.81284395 8.37709672,4.25910993 8.43253112,4.70019215 C7.97185371,4.61347151 7.50564649,4.55911863 7.03734439,4.53753396 C7.06199862,5.00434266 7.11666156,5.46908989 7.20099584,5.92890744 C6.76012437,5.87369594 6.3140665,5.87369594 5.87319502,5.92890744 C5.96125182,5.46802992 6.01671374,5.00154146 6.03917013,4.53289604 C5.56970039,4.55835373 5.10241427,4.61457149 4.64033195,4.70118598 C4.69543544,4.2600832 4.69543544,3.81385836 4.64033195,3.37275559 C5.10251042,3.45855437 5.56976475,3.51443633 6.03917013,3.54005168 C6.0158611,3.07134145 5.95951153,2.6048508 5.87053942,2.14404029 L5.87053942,2.14404029 Z M5.87053942,14.0700987 C6.3114109,14.1253102 6.75746877,14.1253102 7.19834024,14.0700987 C7.11210319,14.5296294 7.0574254,14.9945029 7.03468879,15.4614722 C7.5038362,15.4388657 7.97087867,15.3841868 8.43253112,15.2978202 C8.37709672,15.7389024 8.37709672,16.1851684 8.43253112,16.6262506 C7.9710502,16.5384061 7.5039507,16.4830563 7.03468879,16.4606109 C7.05934302,16.9274196 7.11400596,17.3921668 7.19834024,17.8519844 C6.75746877,17.7967729 6.3114109,17.7967729 5.87053942,17.8519844 C5.95859621,17.3911068 6.01405812,16.9246184 6.03651451,16.455973 C5.56704478,16.4814307 5.09975867,16.5376484 4.63767635,16.6242629 C4.69277984,16.1831601 4.69277984,15.7369353 4.63767635,15.2958325 C5.09989123,15.3810755 5.56714528,15.4364042 6.03651451,15.4614722 C6.01386525,14.9943778 5.95840404,14.529445 5.87053942,14.0700987 L5.87053942,14.0700987 Z M22.799668,14.0700987 C23.2405376,14.1253414 23.6865994,14.1253414 24.1274689,14.0700987 C24.0419925,14.5297352 23.9874308,14.9945647 23.9641494,15.4614722 C24.4331932,15.438942 24.9001305,15.3842624 25.3616597,15.2978202 C25.3062253,15.7389024 25.3062253,16.1851684 25.3616597,16.6262506 C24.9003031,16.538325 24.4333082,16.4829745 23.9641494,16.4606109 C23.9893493,16.9273568 24.0438965,17.3920626 24.1274689,17.8519844 C23.6865991,17.7967451 23.2405378,17.7967451 22.799668,17.8519844 C22.8885428,17.3912333 22.9440117,16.9246865 22.9656431,16.455973 C22.4967178,16.4813723 22.0299799,16.5375908 21.5684647,16.6242629 C21.6222539,16.1830797 21.6222539,15.7370158 21.5684647,15.2958325 C22.0301128,15.381133 22.4968185,15.4364624 22.9656431,15.4614722 C22.9438123,14.9943099 22.8883442,14.5293193 22.799668,14.0700987 L22.799668,14.0700987 Z" id="形状" fill="#E8112D"></path>
            </g>
            <rect id="矩形" stroke="#000000" stroke-width="0.6" fill-opacity="0" fill="#D8D8D8" x="0.3" y="0.3" width="29.4" height="19.4"></rect>
        </g>
    </g>
</svg>