<svg width="20" height="20" viewBox="0 0 20 20" fill="none" xmlns="http://www.w3.org/2000/svg">
<path fill-rule="evenodd" clip-rule="evenodd" d="M15.4271 17.182L17.1191 17.3889C17.38 17.416 17.5691 17.65 17.5418 17.9022C17.5149 18.136 17.3078 18.316 17.0738 18.316H17.02L14.3558 18.0011C14.1216 17.9742 13.9058 17.8571 13.7618 17.6682C13.6087 17.4791 13.546 17.2451 13.5729 17.0113L13.888 14.3471C13.924 14.086 14.1578 13.8971 14.4189 13.9331C14.68 13.9691 14.8598 14.2031 14.8329 14.464L14.572 16.6331C16.7591 15.13 18.0549 12.682 18.0549 10C18.0549 5.554 14.4369 1.94511 10 1.94511C9.00089 1.94511 8.02 2.12511 7.09289 2.48533C6.84937 2.576 6.57795 2.45616 6.48089 2.21511C6.382 1.972 6.508 1.702 6.75089 1.60289C7.786 1.20711 8.87489 1 10 1C14.9589 1 19 5.04089 19 10C19 12.862 17.6769 15.4902 15.4271 17.182ZM10 18.0549C10.684 18.0549 11.3591 17.974 12.0162 17.8029C12.268 17.74 12.52 17.884 12.592 18.1449C12.6549 18.3969 12.502 18.658 12.25 18.7211C11.5211 18.9009 10.7651 19 10 19C5.04089 19 1 14.9589 1 10C1 7.43511 2.09822 4.996 3.97911 3.30378L2.40422 3.29489C2.14311 3.29489 1.936 3.07889 1.936 2.81778C1.936 2.55667 2.152 2.34978 2.41311 2.34978L5.08622 2.35867C5.58133 2.35867 5.97711 2.764 5.97711 3.25889L5.968 5.94089C5.968 6.20178 5.75222 6.40889 5.49111 6.40889C5.23 6.40889 5.02311 6.19311 5.02311 5.932L5.032 3.65489C3.09711 5.18511 1.94511 7.52511 1.94511 10C1.94511 14.446 5.56289 18.0549 10 18.0549Z" fill="#18A5F1"/>
<path d="M17.1191 17.3889L17.1009 17.5378L17.1036 17.5381L17.1191 17.3889ZM15.4271 17.182L15.337 17.0621L15.0396 17.2857L15.4089 17.3309L15.4271 17.182ZM17.5418 17.9022L17.6908 17.9194L17.6909 17.9184L17.5418 17.9022ZM17.02 18.316L17.0024 18.465L17.0112 18.466H17.02V18.316ZM14.3558 18.0011L14.3734 17.8521L14.3729 17.8521L14.3558 18.0011ZM13.7618 17.6682L13.8811 17.5772L13.8784 17.5738L13.7618 17.6682ZM13.5729 17.0113L13.4239 16.9937L13.4239 16.9942L13.5729 17.0113ZM13.888 14.3471L13.7394 14.3266L13.739 14.3295L13.888 14.3471ZM14.4189 13.9331L14.4394 13.7845L14.4394 13.7845L14.4189 13.9331ZM14.8329 14.464L14.9818 14.4819L14.9821 14.4794L14.8329 14.464ZM14.572 16.6331L14.4231 16.6152L14.3834 16.9447L14.657 16.7567L14.572 16.6331ZM7.09289 2.48533L7.14524 2.62591L7.14722 2.62514L7.09289 2.48533ZM6.48089 2.21511L6.62004 2.15908L6.61984 2.15859L6.48089 2.21511ZM6.75089 1.60289L6.69731 1.46275L6.69422 1.46401L6.75089 1.60289ZM12.0162 17.8029L11.9799 17.6574L11.9784 17.6577L12.0162 17.8029ZM12.592 18.1449L12.7376 18.1086L12.7366 18.105L12.592 18.1449ZM12.25 18.7211L12.2859 18.8667L12.2864 18.8666L12.25 18.7211ZM3.97911 3.30378L4.07943 3.41529L4.36767 3.15597L3.97996 3.15379L3.97911 3.30378ZM2.40422 3.29489L2.40506 3.14489H2.40422V3.29489ZM2.41311 2.34978L2.41361 2.19978H2.41311V2.34978ZM5.08622 2.35867L5.08572 2.50867H5.08622V2.35867ZM5.97711 3.25889L6.12711 3.2594V3.25889H5.97711ZM5.968 5.94089L5.818 5.94038V5.94089H5.968ZM5.02311 5.932L4.87311 5.93141V5.932H5.02311ZM5.032 3.65489L5.182 3.65548L5.18321 3.34406L4.93895 3.53724L5.032 3.65489ZM17.1191 17.3889L17.1373 17.24L15.4453 17.0331L15.4271 17.182L15.4089 17.3309L17.1009 17.5378L17.1191 17.3889ZM17.5418 17.9022L17.6909 17.9184C17.7274 17.5818 17.4764 17.2752 17.1346 17.2397L17.1191 17.3889L17.1036 17.5381C17.2836 17.5568 17.4108 17.7182 17.3927 17.8861L17.5418 17.9022ZM17.0738 18.316V18.466C17.3822 18.466 17.655 18.2306 17.6908 17.9194L17.5418 17.9022L17.3928 17.8851C17.3748 18.0414 17.2334 18.166 17.0738 18.166V18.316ZM17.02 18.316V18.466H17.0738V18.316V18.166H17.02V18.316ZM14.3558 18.0011L14.3382 18.1501L17.0024 18.465L17.02 18.316L17.0376 18.167L14.3734 17.8521L14.3558 18.0011ZM13.7618 17.6682L13.6425 17.7592C13.8125 17.9822 14.066 18.1188 14.3387 18.1501L14.3558 18.0011L14.3729 17.8521C14.1771 17.8296 13.9991 17.7321 13.8811 17.5773L13.7618 17.6682ZM13.5729 17.0113L13.4239 16.9942C13.3926 17.2663 13.4657 17.5409 13.6452 17.7626L13.7618 17.6682L13.8784 17.5738C13.7517 17.4173 13.6994 17.2239 13.7219 17.0285L13.5729 17.0113ZM13.888 14.3471L13.739 14.3295L13.4239 16.9937L13.5729 17.0113L13.7219 17.0289L14.037 14.3647L13.888 14.3471ZM14.4189 13.9331L14.4394 13.7845C14.0909 13.7365 13.786 13.9889 13.7394 14.3266L13.888 14.3471L14.0366 14.3676C14.062 14.1831 14.2247 14.0578 14.3984 14.0817L14.4189 13.9331ZM14.8329 14.464L14.9821 14.4794C15.0171 14.1396 14.7821 13.8318 14.4394 13.7845L14.4189 13.9331L14.3984 14.0817C14.5779 14.1065 14.7024 14.2666 14.6837 14.4486L14.8329 14.464ZM14.572 16.6331L14.7209 16.651L14.9818 14.4819L14.8329 14.464L14.684 14.4461L14.4231 16.6152L14.572 16.6331ZM18.0549 10H17.9049C17.9049 12.6326 16.6334 15.0344 14.487 16.5095L14.572 16.6331L14.657 16.7567C16.8848 15.2256 18.2049 12.7314 18.2049 10H18.0549ZM10 1.94511V2.09511C14.3542 2.09511 17.9049 5.63695 17.9049 10H18.0549H18.2049C18.2049 5.47105 14.5196 1.79511 10 1.79511V1.94511ZM7.09289 2.48533L7.14722 2.62514C8.0566 2.27181 9.01904 2.09511 10 2.09511V1.94511V1.79511C8.98274 1.79511 7.9834 1.97841 7.03857 2.34551L7.09289 2.48533ZM6.48089 2.21511L6.34175 2.27113C6.46917 2.5876 6.82552 2.74494 7.14523 2.6259L7.09289 2.48533L7.04055 2.34475C6.87322 2.40706 6.68672 2.32471 6.62004 2.15908L6.48089 2.21511ZM6.75089 1.60289L6.69422 1.46401C6.38088 1.59186 6.2094 1.94579 6.34195 2.27163L6.48089 2.21511L6.61984 2.15859C6.5546 1.99821 6.63512 1.81214 6.80756 1.74177L6.75089 1.60289ZM10 1V0.85C8.85618 0.85 7.74915 1.06061 6.69732 1.46278L6.75089 1.60289L6.80446 1.743C7.82285 1.35361 8.89361 1.15 10 1.15V1ZM19 10H19.15C19.15 4.95805 15.0417 0.85 10 0.85V1V1.15C14.8761 1.15 18.85 5.12374 18.85 10H19ZM15.4271 17.182L15.5173 17.3019C17.8047 15.5818 19.15 12.9091 19.15 10H19H18.85C18.85 12.8149 17.549 15.3987 15.337 17.0621L15.4271 17.182ZM12.0162 17.8029L11.9784 17.6577C11.3345 17.8254 10.6721 17.9049 10 17.9049V18.0549V18.2049C10.6959 18.2049 11.3837 18.1226 12.054 17.9481L12.0162 17.8029ZM12.592 18.1449L12.7366 18.105C12.6431 17.7663 12.3113 17.5746 11.9799 17.6574L12.0162 17.8029L12.0526 17.9484C12.2247 17.9054 12.3969 18.0017 12.4474 18.1848L12.592 18.1449ZM12.25 18.7211L12.2864 18.8666C12.6206 18.7829 12.82 18.4391 12.7375 18.1086L12.592 18.1449L12.4465 18.1812C12.4898 18.3547 12.3834 18.5331 12.2136 18.5756L12.25 18.7211ZM10 19V19.15C10.778 19.15 11.5461 19.0492 12.2859 18.8667L12.25 18.7211L12.2141 18.5755C11.4961 18.7526 10.7522 18.85 10 18.85V19ZM1 10H0.85C0.85 15.0417 4.95805 19.15 10 19.15V19V18.85C5.12374 18.85 1.15 14.8761 1.15 10H1ZM3.97911 3.30378L3.87878 3.19227C1.96639 4.91283 0.85 7.39242 0.85 10H1H1.15C1.15 7.4778 2.23004 5.07917 4.07943 3.41529L3.97911 3.30378ZM2.40422 3.29489L2.40337 3.44489L3.97826 3.45378L3.97911 3.30378L3.97996 3.15379L2.40506 3.14489L2.40422 3.29489ZM1.936 2.81778H1.786C1.786 3.15804 2.05661 3.44489 2.40422 3.44489V3.29489V3.14489C2.2296 3.14489 2.086 2.99975 2.086 2.81778H1.936ZM2.41311 2.34978V2.19978C2.07295 2.19978 1.786 2.47009 1.786 2.81778H1.936H2.086C2.086 2.64326 2.23105 2.49978 2.41311 2.49978V2.34978ZM5.08622 2.35867L5.08672 2.20868L2.41361 2.19978L2.41311 2.34978L2.41261 2.49978L5.08572 2.50867L5.08622 2.35867ZM5.97711 3.25889H6.12711C6.12711 2.68322 5.66622 2.20867 5.08622 2.20867V2.35867V2.50867C5.49643 2.50867 5.82711 2.84478 5.82711 3.25889H5.97711ZM5.968 5.94089L6.118 5.9414L6.12711 3.2594L5.97711 3.25889L5.82711 3.25838L5.818 5.94038L5.968 5.94089ZM5.49111 6.40889V6.55889C5.8314 6.55889 6.118 6.28823 6.118 5.94089H5.968H5.818C5.818 6.11533 5.67303 6.25889 5.49111 6.25889V6.40889ZM5.02311 5.932H4.87311C4.87311 6.27225 5.1435 6.55889 5.49111 6.55889V6.40889V6.25889C5.3165 6.25889 5.17311 6.11397 5.17311 5.932H5.02311ZM5.032 3.65489L4.882 3.65431L4.87311 5.93141L5.02311 5.932L5.17311 5.93259L5.182 3.65548L5.032 3.65489ZM1.94511 10H2.09511C2.09511 7.57168 3.22556 5.27476 5.12505 3.77254L5.032 3.65489L4.93895 3.53724C2.96865 5.09546 1.79511 7.47853 1.79511 10H1.94511ZM10 18.0549V17.9049C5.64563 17.9049 2.09511 14.363 2.09511 10H1.94511H1.79511C1.79511 14.529 5.48016 18.2049 10 18.2049V18.0549Z" fill="#18A5F1"/>
</svg>
