<?xml version="1.0" encoding="UTF-8"?>
<svg width="30px" height="20px" viewBox="0 0 30 20" version="1.1" xmlns="http://www.w3.org/2000/svg" xmlns:xlink="http://www.w3.org/1999/xlink">
    <title>巴基斯坦</title>
    <g id="页面-1" stroke="none" stroke-width="1" fill="none" fill-rule="evenodd">
        <g id="巴基斯坦">
            <g transform="translate(0.3864, 0)" fill-rule="nonzero">
                <polygon id="路径" fill="#015729" points="0.520729688 0.00265339844 29.5207297 0.00265339844 29.5207297 19.9844113 0.520729688 19.9844113"></polygon>
                <path d="M0,0 L7,0 L7,20 L0,20 L0,0 Z M19.078607,14.1502487 C16.639651,14.1502478 14.4664026,12.610601 13.6575459,10.3096757 C12.8486892,8.00875046 13.5804627,5.44788565 15.4829187,3.92172471 C13.0677566,4.86244503 11.4773925,7.18885956 11.4776119,9.78076285 C11.4776119,13.252073 14.2915423,16.0660033 17.7628524,16.0660033 C20.4570869,16.0653547 22.8515002,14.3483136 23.7164179,11.7966832 C22.6351863,13.2769955 20.9117421,14.1515975 19.078607,14.1502487 L19.078607,14.1502487 Z" id="形状" fill="#FFFFFF"></path>
                <polygon id="路径" fill="#FFFFFF" points="18.3754561 5.97180764 19.4922056 6.77678275 20.6026534 5.96318408 20.1824212 7.2742952 21.2991708 8.07893863 19.9227197 8.08424545 19.5021559 9.39502488 19.0719735 8.08756219 17.6951907 8.09286898 18.8059702 7.27960199 18.3754561 5.97180764"></polygon>
            </g>
            <rect id="矩形备份-18" stroke="#000000" stroke-width="0.6" fill-opacity="0" fill="#D8D8D8" x="0.3" y="0.3" width="29.4" height="19.4"></rect>
        </g>
    </g>
</svg>