<?xml version="1.0" encoding="UTF-8"?>
<svg width="30px" height="20px" viewBox="0 0 30 20" version="1.1" xmlns="http://www.w3.org/2000/svg" xmlns:xlink="http://www.w3.org/1999/xlink">
    <title>新加坡</title>
    <g id="页面-1" stroke="none" stroke-width="1" fill="none" fill-rule="evenodd">
        <g id="新加坡">
            <g fill-rule="nonzero">
                <polygon id="路径" fill="#DA1841" points="0 0 30 0 30 9.99999999 0 9.99999999"></polygon>
                <path d="M0,9.99999999 L30,9.99999999 L30,20 L0,20 L0,9.99999999 Z M9,5 C9,6.24999999 8.37500001,7.37499999 7.37500001,8 C6.37500001,8.62499997 5.12499999,8.62499997 4.125,8 C3,7.37499999 2.37500001,6.24999999 2.37500001,5 C2.37500001,3.12499998 3.87500001,1.5 5.625,1.5 C7.5,1.5 9,3.12499998 9,5" id="形状" fill="#FFFFFF"></path>
                <path d="M9.99999999,4.99999998 C9.99999999,6.24999999 9.49999998,7.37499999 8.49999999,7.875 C7.5,8.625 6.375,8.625 5.37500001,7.99999998 C4.37500002,7.37499996 3.75,6.24999999 3.87500001,4.99999998 C3.87500001,3.24999999 5.25,1.74999999 6.99999999,1.74999999 C8.625,1.74999999 9.99999999,3.24999999 9.99999999,4.99999998" id="路径" fill="#DA1841"></path>
                <path d="M6.12500001,5.12499999 L5.625,4.74999999 L5.25,5.12499999 L5.37500001,4.49999998 L5.00000001,4.125 L5.50000001,4.125 L5.625,3.49999998 L5.75000001,4.125 L6.24999999,4.125 L6.00000001,4.49999998 L6.12500001,5.12499999 L6.12500001,5.12499999 Z M9.62499999,5.12499999 L9.12500001,4.74999999 L8.75000001,5.12499999 L8.87499999,4.49999998 L8.49999999,4.125 L8.99999999,4.125 L9.12500001,3.49999998 L9.24999999,4.125 L9.75,4.125 L9.49999999,4.49999998 L9.62499999,5.12499999 L9.62499999,5.12499999 Z M7.875,3.75 L7.37499999,3.375 L6.99999999,3.75 L7.125,3.12499999 L6.75,2.74999998 L7.25,2.74999998 L7.37499999,2.12499999 L7.5,2.74999998 L8.00000001,2.74999998 L7.75,3.12499999 L7.875,3.75 L7.875,3.75 Z M6.75,7.37499999 L6.375,6.99999999 L5.87499999,7.37499999 L6,6.74999998 L5.625,6.375 L6.125,6.375 L6.24999999,5.74999998 L6.375,6.375 L6.87500001,6.375 L6.625,6.74999998 L6.75,7.37499999 Z M9,7.37499999 L8.49999999,6.99999999 L8.12499999,7.37499999 L8.24999999,6.74999998 L7.74999999,6.375 L8.24999999,6.375 L8.37500001,5.74999998 L8.74999999,6.375 L9.24999999,6.375 L8.74999999,6.74999998 L9,7.37499999 Z" id="形状" fill="#FFFFFF"></path>
            </g>
            <rect id="矩形备份-21" stroke="#000000" stroke-width="0.6" fill-opacity="0" fill="#D8D8D8" x="0.3" y="0.3" width="29.4" height="19.4"></rect>
        </g>
    </g>
</svg>