<?xml version="1.0" encoding="UTF-8"?>
<svg width="30px" height="20px" viewBox="0 0 30 20" version="1.1" xmlns="http://www.w3.org/2000/svg" xmlns:xlink="http://www.w3.org/1999/xlink">
    <title>印度</title>
    <g id="页面-1" stroke="none" stroke-width="1" fill="none" fill-rule="evenodd">
        <g id="印度">
            <g transform="translate(0, 0)" fill-rule="nonzero">
                <path d="M0.122695312,19.8527734 L29.7914063,19.8527734 L29.7914063,0.122695312 L0.122695312,0.122695312 L0.122695312,19.8527734 L0.122695312,19.8527734 Z M29.8807227,19.9527539 L29.8807227,19.8527539 L29.8807227,19.9527539 Z M0,20 L0,0 L29.9141016,0 L29.9141016,19.9754688 L0,19.9754688 L0,20 Z" id="形状" fill="#353636"></path>
                <polygon id="路径" fill="#009842" points="0.0736132812 13.3006055 29.8650195 13.3006055 29.8650195 19.9263867 0.0736132812 19.9263867"></polygon>
                <polygon id="路径" fill="#FFFFFF" points="0.0736132812 6.69939453 29.8650195 6.69939453 29.8650195 13.3251562 0.0736132812 13.3251562"></polygon>
                <polygon id="路径" fill="#F2AB48" points="0.0736132812 0.0736328125 29.8650195 0.0736328125 29.8650195 6.69939453 0.0736132812 6.69939453"></polygon>
                <path d="M17.2809961,8.98332031 L17.366875,8.83435547 L17.5155859,8.92 L17.4299414,9.06896484 L17.2809961,8.98332031 Z M17.5950977,9.766875 L17.4723828,9.61962891 L17.5950977,9.49693359 L17.717793,9.61962891 L17.5950977,9.766875 Z M17.5705469,10.4539844 L17.4723828,10.282207 L17.6441602,10.2085742 L17.717793,10.3558398 L17.5705469,10.4539844 Z M17.3079688,10.9489648 L17.4743555,10.9052734 L17.5180273,11.0714063 L17.3518945,11.1150977 L17.3079688,10.9489648 Z" id="形状" fill="#22297B"></path>
                <path d="M17.2809961,8.98332031 L17.366875,8.83435547 L17.5155859,8.92 L17.4299414,9.06896484 L17.2809961,8.98332031 Z M17.5950977,9.766875 L17.4723828,9.61962891 L17.5950977,9.49693359 L17.717793,9.61962891 L17.5950977,9.766875 Z M17.5705469,10.4539844 L17.4723828,10.282207 L17.6441602,10.2085742 L17.717793,10.3558398 L17.5705469,10.4539844 Z M17.3079688,10.9489648 L17.4743555,10.9052734 L17.5180273,11.0714062 L17.3518945,11.1150977 L17.3079688,10.9489648 Z M14.4608789,7.34945312 L14.5821094,7.22773437 L14.7038281,7.34896484 L14.5825977,7.47068359 L14.4608789,7.34945312 Z M15.1578125,7.32220703 L15.3065234,7.23632812 L15.3924023,7.38503906 L15.2436914,7.47091797 L15.1578125,7.32220703 Z M16.0736328,7.5828125 L15.9018555,7.63189453 L15.8527734,7.46011719 L16.0245508,7.41103516 L16.0736328,7.5828125 Z M16.4662695,7.77914063 L16.6380469,7.77914063 L16.6380469,7.95091797 L16.4662695,7.95091797 L16.4662695,7.77914063 Z M17.1288477,8.46625 L16.9570703,8.4171875 L17.0061523,8.24539063 L17.1779297,8.29447266 L17.1288477,8.46625 Z M17.0061523,11.5092187 L17.1779297,11.5092187 L17.1779297,11.6809766 L17.0061523,11.6809766 L17.0061523,11.5092187 Z M16.5001367,12.1595117 L16.5435742,11.9936133 L16.7099609,12.0370508 L16.6662695,12.2031836 L16.5001367,12.1595117 Z M15.8773242,12.4908008 L15.9509375,12.3435547 L16.1227148,12.4171875 L16.0245508,12.5644141 L15.8773242,12.4908008 Z M15.1902148,12.6380273 L15.3129102,12.515332 L15.4601367,12.6380273 L15.3129102,12.7607422 L15.1902148,12.6380273 Z M14.5030859,12.6134961 L14.650332,12.515332 L14.7484766,12.6871094 L14.60125,12.7607422 L14.5030859,12.6134961 Z M13.8405078,12.4171875 L14.0122852,12.3681055 L14.0613672,12.5398828 L13.8895898,12.5889648 L13.8405078,12.4171875 Z M13.251543,12.0245312 L13.4233398,12.0245312 L13.4233398,12.1963281 L13.251543,12.1963281 L13.251543,12.0245312 Z M12.7516797,11.7055273 L12.7963281,11.5398828 L12.9622266,11.584043 L12.9178125,11.7501758 L12.7516797,11.7055273 Z M12.3774414,11.0608594 L12.4633398,10.9121484 L12.6120508,10.9982812 L12.5261523,11.1469922 L12.3774414,11.0608594 Z M12.319043,10.233125 L12.4417383,10.3558203 L12.319043,10.5030859 L12.1963281,10.3558203 L12.319043,10.233125 Z M12.3435742,9.54601562 L12.4417383,9.69324219 L12.2699609,9.79140625 L12.1963281,9.64417969 L12.3435742,9.54601562 Z M12.3727734,8.93375 L12.5386719,8.88908203 L12.5833398,9.05496094 L12.4174414,9.09962891 L12.3727734,8.93375 Z M12.7359766,8.29496094 L12.9077539,8.29423828 L12.9084766,8.46601562 L12.7366992,8.46675781 L12.7359766,8.29496094 Z M13.4233398,7.82822266 L13.3742578,8 L13.2024805,7.95091797 L13.251543,7.77914063 L13.4233398,7.82822266 Z M13.7948633,7.58625 L13.8807617,7.43753906 L14.0294727,7.5234375 L13.9435742,7.67214844 L13.7948633,7.58625 Z M14.8957227,9.98773437 L14.9693555,8.93251953 L14.8957227,7.33742188 L14.8220898,8.93251953 L14.8957227,9.98773437 Z M14.8957227,9.98773437 L15.2392773,8.98160156 L15.582832,7.43558594 L15.0920508,8.95707031 L14.8957227,9.98773437 Z M14.8957227,9.98773437 L15.4846875,9.10429687 L16.2208789,7.70552734 L15.3619727,9.03068359 L14.8957227,9.98773437 Z M14.8957227,9.98773437 L15.7055469,9.300625 L16.7607617,8.12269531 L15.582832,9.17791016 L14.8957227,9.98773437 Z M14.8957227,9.98773437 L15.8527734,9.52146484 L17.1779297,8.66257812 L15.7791602,9.39876953 L14.8957227,9.98773437 Z M14.8957227,9.98773437 L15.950918,9.79140625 L17.4478516,9.30060547 L15.9018359,9.64416016 L14.8957227,9.98773437 Z M14.8957227,9.98773437 L15.9509375,10.0613672 L17.5460352,9.98773438 L15.9509375,9.91410156 L14.8957227,9.98773437 Z M14.8957227,9.98773437 L15.9018555,10.3312891 L17.4478711,10.6748438 L15.9509375,10.184043 L14.8957227,9.98773437 Z M14.8957227,9.98773437 L15.7791602,10.5766797 L17.2024805,11.3128906 L15.8527734,10.4539844 L14.8957227,9.98773437 Z M14.8957227,9.98773437 L15.582832,10.7975391 L16.785293,11.8527539 L15.7055469,10.6748438 L14.8957227,9.98773437 Z M14.8957227,9.98773437 L15.3619727,10.9447852 L16.2208789,12.2699414 L15.5092187,10.8711719 L14.8957227,9.98773437 Z M14.8957227,9.98773438 L15.0920508,11.0183984 L15.582832,12.5398828 L15.2392773,10.9938672 L14.8957227,9.98773438 Z M14.8957227,9.98773437 L14.8220898,11.0429492 L14.8957227,12.6380273 L14.9693555,11.0429492 L14.8957227,9.98773437 Z M14.8957227,9.98773437 L14.552168,10.9938672 L14.2331445,12.5398828 L14.6993945,11.0429492 L14.8957227,9.98773437 Z M14.8957227,9.98773437 L14.3067578,10.8711719 L13.5951172,12.2944727 L14.4540039,10.9447852 L14.8957227,9.98773437 Z M14.8957227,9.98773437 L14.1104492,10.6748438 L13.0306836,11.8773047 L14.2086133,10.7975391 L14.8957227,9.98773437 Z M14.8957227,9.98773437 L13.9386719,10.4539844 L12.6135156,11.3128906 L14.0368359,10.6012305 L14.8957227,9.98773437 Z M14.8957227,9.98773437 L13.8650586,10.184043 L12.3435742,10.6748633 L13.8895898,10.3312891 L14.8957227,9.98773437 Z M14.8957227,9.98773437 L13.8405078,9.91410156 L12.2454102,9.98773437 L13.8405078,10.0613672 L14.8957227,9.98773437 Z M14.8957227,9.98773437 L13.8895898,9.64417969 L12.3435742,9.32515625 L13.8650586,9.79140625 L14.8957227,9.98773437 Z M14.8957227,9.98773437 L14.0122852,9.39876953 L12.6135156,8.68710937 L13.9386719,9.52148438 L14.8957227,9.98773437 Z M14.8957227,9.98773437 L14.2086133,9.20246094 L13.0306836,8.12269531 L14.0858984,9.300625 L14.8957227,9.98773437 Z M14.8957227,9.98773437 L14.4294727,9.03068359 L13.5705664,7.70552734 L14.3067578,9.12882813 L14.8957227,9.98773437 Z M14.8957227,9.98773437 L14.6993945,8.95707031 L14.2086133,7.43558594 L14.552168,8.98160156 L14.8957227,9.98773437 Z" id="形状" fill="#22297B"></path>
                <path d="M14.2576758,12.5644141 C12.8343555,12.1717773 12,10.7239258 12.3681055,9.30060547 C12.7607422,7.87730469 14.2085937,7.04294922 15.6318945,7.41103516 C17.0552148,7.80367188 17.8895703,9.25154297 17.5214648,10.6748438 C17.1533789,12.0981641 15.6809766,12.9570703 14.2576758,12.5644141 Z M15.7300586,7.09203125 C14.1349609,6.6503125 12.4908008,7.60736328 12.049082,9.20246094 C11.6318945,10.7975391 12.5644141,12.4417188 14.184043,12.8834375 C15.7791406,13.300625 17.4233008,12.3681055 17.8650195,10.7484766 C18.282207,9.17791016 17.3251562,7.53375 15.7300586,7.09203125 L15.7300586,7.09203125 Z" id="形状" fill="#22297B"></path>
                <path d="M15.4601172,10.1349609 C15.3864844,10.4294531 15.0920313,10.6012305 14.7975391,10.5030664 C14.5030664,10.4294336 14.3312891,10.1349609 14.4294531,9.84048828 C14.5030664,9.54601562 14.7975391,9.37423828 15.0920313,9.47240234 C15.3865039,9.57054687 15.5582813,9.84048828 15.4601172,10.1349609 Z M16.0736133,7.5828125 L15.9018359,7.63189453 L15.8527539,7.46011719 L16.0245312,7.41103516 L16.0736133,7.5828125 Z M16.46625,7.77914063 L16.6380273,7.77914063 L16.6380273,7.95091797 L16.46625,7.95091797 L16.46625,7.77914063 Z M17.1288281,8.46625 L16.9570508,8.4171875 L17.0061328,8.24539063 L17.1779102,8.29447266 L17.1288281,8.46625 Z M17.0061328,11.5092187 L17.1779102,11.5092187 L17.1779102,11.6809766 L17.0061328,11.6809766 L17.0061328,11.5092187 Z M16.5001172,12.1595117 L16.5435547,11.9936133 L16.7099414,12.0370508 L16.66625,12.2031836 L16.5001172,12.1595117 Z M15.8773047,12.4908008 L15.950918,12.3435547 L16.1226953,12.4171875 L16.0245312,12.5644141 L15.8773047,12.4908008 Z M15.1901953,12.6380273 L15.3128906,12.515332 L15.4601172,12.6380273 L15.3128906,12.7607422 L15.1901953,12.6380273 Z M14.5030664,12.6134961 L14.6503125,12.515332 L14.748457,12.6871094 L14.6012305,12.7607422 L14.5030664,12.6134961 Z M13.8404883,12.4171875 L14.0122656,12.3681055 L14.0613477,12.5398828 L13.8895703,12.5889648 L13.8404883,12.4171875 Z M13.2515234,12.0245312 L13.4233203,12.0245312 L13.4233203,12.1963281 L13.2515234,12.1963281 L13.2515234,12.0245312 Z M12.7516602,11.7055273 L12.7963086,11.5398828 L12.962207,11.584043 L12.917793,11.7501758 L12.7516602,11.7055273 Z M12.3774219,11.0608594 L12.4633203,10.9121484 L12.6120312,10.9982812 L12.5261328,11.1469922 L12.3774219,11.0608594 Z M12.3190234,10.233125 L12.4417187,10.3558203 L12.3190234,10.5030859 L12.1963086,10.3558203 L12.3190234,10.233125 Z M12.3435547,9.54601562 L12.4417187,9.69324219 L12.2699414,9.79140625 L12.1963086,9.64417969 L12.3435547,9.54601562 Z M12.3727539,8.93375 L12.5386523,8.88908203 L12.5833203,9.05496094 L12.4174219,9.09962891 L12.3727539,8.93375 Z M12.735957,8.29496094 L12.9077344,8.29423828 L12.908457,8.46601562 L12.7366797,8.46675781 L12.735957,8.29496094 Z M13.4233203,7.82822266 L13.3742383,8 L13.2024609,7.95091797 L13.2515234,7.77914063 L13.4233203,7.82822266 Z M13.7948437,7.58625 L13.8807422,7.43753906 L14.0294531,7.5234375 L13.9435547,7.67214844 L13.7948437,7.58625 Z M14.4608594,7.34945312 L14.5820898,7.22773437 L14.7038086,7.34896484 L14.5825781,7.47068359 L14.4608594,7.34945312 Z" id="形状" fill="#22297B"></path>
            </g>
            <rect id="矩形备份-20" stroke="#000000" stroke-width="0.6" fill-opacity="0" fill="#D8D8D8" x="0.3" y="0.3" width="29.4" height="19.4"></rect>
        </g>
    </g>
</svg>