<svg width="22" height="22" viewBox="0 0 22 22" fill="none" xmlns="http://www.w3.org/2000/svg">
<path fill-rule="evenodd" clip-rule="evenodd" d="M15.7726 4.32365C14.2914 3.6862 12.6723 3.34114 11 3.34155H11C6.36807 3.34038 2.14403 5.98997 0.1289 10.1606C-0.0429666 10.5138 -0.0429666 10.9264 0.1289 11.2797C1.05669 13.1976 2.45147 14.7937 4.13812 15.9582L5.02785 15.0684C3.42487 14.0081 2.10119 12.5211 1.2357 10.7201C1.22952 10.7043 1.22952 10.6867 1.2357 10.6709C3.0651 6.9458 6.84991 4.58148 11 4.57132C12.3044 4.57702 13.5971 4.8169 14.8167 5.27953L15.7726 4.32365ZM21.8711 10.1606C21.0207 8.39935 19.7547 6.87143 18.1822 5.70861L17.2884 6.60229C18.7462 7.64308 19.9524 9.04572 20.7643 10.7201C20.7705 10.7359 20.7705 10.7535 20.7643 10.7693C18.9437 14.5095 15.1443 16.8789 10.9846 16.8685C9.82708 16.8659 8.67746 16.6778 7.57946 16.3114L6.61694 17.2739C7.99063 17.8092 9.47315 18.0971 11 18.0971C15.6312 18.0971 19.8544 15.4486 21.8711 11.2797C22.043 10.9264 22.043 10.5138 21.8711 10.1606ZM14.4583 9.43245C14.6077 9.83336 14.6893 10.2672 14.6893 10.7201C14.6893 12.7576 13.0376 14.4094 11 14.4094C10.5471 14.4094 10.1132 14.3278 9.71234 14.1785L10.7262 13.1646C10.8161 13.1745 10.9075 13.1796 11 13.1796C12.3584 13.1796 13.4595 12.0785 13.4595 10.7201C13.4595 10.6276 13.4544 10.5362 13.4445 10.4463L14.4583 9.43248V9.43245ZM12.6678 7.42845C12.1669 7.17417 11.6002 7.03084 11 7.03084C8.96246 7.03084 7.31073 8.6826 7.31073 10.7201C7.31073 11.3203 7.45403 11.887 7.70831 12.3879L8.64955 11.4467C8.57701 11.2113 8.54024 10.9664 8.54047 10.7201C8.54047 9.36175 9.64164 8.26061 11 8.26061C11.2463 8.26038 11.4912 8.29715 11.7266 8.36969L12.6678 7.42845Z" fill="#8C99A5"/>
<path fill-rule="evenodd" clip-rule="evenodd" d="M6.22741 4.32365C7.70859 3.6862 9.32772 3.34114 11 3.34155H11C15.6319 3.34038 19.856 5.98997 21.8711 10.1606C22.043 10.5138 22.043 10.9264 21.8711 11.2797C20.9433 13.1976 19.5485 14.7937 17.8619 15.9582L16.9722 15.0684C18.5751 14.0081 19.8988 12.5211 20.7643 10.7201C20.7705 10.7043 20.7705 10.6867 20.7643 10.6709C18.9349 6.9458 15.1501 4.58148 11 4.57132C9.69563 4.57702 8.40289 4.8169 7.18332 5.27953L6.22741 4.32365ZM0.128901 10.1606C0.979254 8.39935 2.2453 6.87143 3.81782 5.70861L4.71156 6.60229C3.25384 7.64308 2.04758 9.04572 1.2357 10.7201C1.22953 10.7359 1.22953 10.7535 1.2357 10.7693C3.05634 14.5095 6.85566 16.8789 11.0154 16.8685C12.1729 16.8659 13.3225 16.6778 14.4205 16.3114L15.3831 17.2739C14.0094 17.8092 12.5269 18.0971 11 18.0971C6.36885 18.0971 2.14562 15.4486 0.128901 11.2797C-0.0429668 10.9264 -0.0429668 10.5138 0.128901 10.1606ZM7.54167 9.43245C7.39234 9.83336 7.31073 10.2672 7.31073 10.7201C7.31073 12.7576 8.96243 14.4094 11 14.4094C11.4529 14.4094 11.8868 14.3278 12.2877 14.1785L11.2738 13.1646C11.1839 13.1745 11.0925 13.1796 11 13.1796C9.64164 13.1796 8.54047 12.0785 8.54047 10.7201C8.54047 10.6276 8.54558 10.5362 8.55553 10.4463L7.54167 9.43248V9.43245ZM9.33219 7.42845C9.83308 7.17417 10.3998 7.03084 11 7.03084C13.0375 7.03084 14.6893 8.6826 14.6893 10.7201C14.6893 11.3203 14.546 11.887 14.2917 12.3879L13.3504 11.4467C13.423 11.2113 13.4598 10.9664 13.4595 10.7201C13.4595 9.36175 12.3584 8.26061 11 8.26061C10.7537 8.26038 10.5088 8.29715 10.2734 8.36969L9.33219 7.42845Z" fill="#8C99A5"/>
</svg>
