<svg width="22" height="22" viewBox="0 0 22 22" fill="none" xmlns="http://www.w3.org/2000/svg">
    <path fill-rule="evenodd" clip-rule="evenodd"
        d="M18.9677 2.19686C19.2294 1.93468 19.6541 1.93434 19.9163 2.19607C20.1785 2.4578 20.1788 2.88253 19.9171 3.1447L3.14763 19.9421C2.88587 20.2043 2.46118 20.2046 2.199 19.9429C1.93682 19.6812 1.93646 19.2564 2.19819 18.9943L18.9677 2.19686ZM18.1822 5.70861C19.7547 6.87144 21.0207 8.39936 21.8711 10.1606C22.043 10.5138 22.043 10.9264 21.8711 11.2797C19.8544 15.4486 15.6312 18.0971 11 18.0971C9.47315 18.0971 7.99063 17.8092 6.61694 17.2739L7.57946 16.3114C8.67746 16.6778 9.82708 16.8659 10.9846 16.8685C15.1443 16.8789 18.9437 14.5095 20.7643 10.7693C20.7705 10.7535 20.7705 10.7359 20.7643 10.7201C19.9524 9.04572 18.7462 7.64308 17.2884 6.6023L18.1822 5.70861ZM15.7726 4.32366C14.2914 3.68621 12.6723 3.34114 11 3.34156H11C6.36807 3.34039 2.14403 5.98998 0.1289 10.1606C-0.0429666 10.5138 -0.0429666 10.9264 0.1289 11.2797C1.05669 13.1976 2.45147 14.7937 4.13812 15.9582L5.02785 15.0684C3.42487 14.0081 2.10119 12.5211 1.2357 10.7201C1.22952 10.7043 1.22952 10.6867 1.2357 10.6709C3.0651 6.94581 6.84991 4.58148 11 4.57133C12.3044 4.57703 13.5971 4.8169 14.8167 5.27954L15.7726 4.32366ZM14.4583 9.43246C14.6077 9.83336 14.6893 10.2672 14.6893 10.7201C14.6893 12.7577 13.0376 14.4094 11 14.4094C10.5471 14.4094 10.1132 14.3278 9.71234 14.1785L10.7262 13.1646C10.8161 13.1745 10.9075 13.1796 11 13.1796C12.3584 13.1796 13.4595 12.0785 13.4595 10.7201C13.4595 10.6276 13.4544 10.5362 13.4445 10.4463L14.4583 9.43249V9.43246ZM12.6678 7.42846C12.1669 7.17418 11.6002 7.03084 11 7.03084C8.96246 7.03084 7.31073 8.68261 7.31073 10.7201C7.31073 11.3203 7.45403 11.887 7.70831 12.3879L8.64955 11.4467C8.57701 11.2113 8.54024 10.9664 8.54047 10.7201C8.54047 9.36175 9.64164 8.26062 11 8.26062C11.2463 8.26039 11.4912 8.29716 11.7266 8.3697L12.6678 7.42846Z"
        fill="#8C99A5" />
</svg>