<svg width="22" height="22" viewBox="0 0 22 22" fill="none" xmlns="http://www.w3.org/2000/svg">
<path fill-rule="evenodd" clip-rule="evenodd" d="M18.5384 17.57C20.1286 15.75 20.9972 13.444 20.9972 11.0042C20.9972 8.33429 19.9575 5.82411 18.0695 3.93615C16.2106 2.07721 13.7483 1.04139 11.1243 1.00997C11.0812 0.99654 10.8938 0.9967 10.8504 1.01031C8.237 1.04877 5.78567 2.08386 3.93338 3.93615C2.07723 5.79232 1.04171 8.25002 1.00733 10.8696C0.99773 10.9065 0.997547 11.0622 1.00685 11.0986C1.0311 13.7333 2.06772 16.2067 3.93338 18.0723C5.82133 19.9603 8.3315 21 11.0015 21C13.6714 21 16.1816 19.9603 18.0695 18.0723C18.2071 17.9348 18.3395 17.7936 18.468 17.6496C18.4793 17.6395 18.4904 17.6288 18.5009 17.6173C18.5147 17.6023 18.5269 17.5863 18.5384 17.57ZM1.93353 11.4436H6.13316C6.16277 12.9146 6.34042 14.294 6.63723 15.5225C5.25551 15.8963 4.3791 16.382 3.92538 16.6851C2.75917 15.2354 2.02825 13.4216 1.93353 11.4436ZM6.63203 6.50765C5.24116 6.13139 4.36425 5.64077 3.91426 5.33713C2.76203 6.77517 2.03722 8.56966 1.93529 10.5266H6.13382C6.16554 9.07843 6.3409 7.71999 6.63203 6.50765ZM20.0676 10.5265H15.8691C15.8374 9.07894 15.6621 7.72096 15.3712 6.50893C16.7588 6.13504 17.6386 5.64785 18.094 5.34378C19.2431 6.78071 19.9658 8.57268 20.0676 10.5265ZM11.4464 10.5265H14.9519C14.9207 9.17811 14.7575 7.88502 14.4762 6.71727C13.6213 6.88704 12.6157 7.00707 11.4464 7.0316V10.5265ZM11.4464 6.1145V1.98888C12.2715 2.22179 13.0765 3.09098 13.7069 4.45299C13.9042 4.87935 14.0797 5.34089 14.2324 5.83094C13.4479 5.98262 12.5236 6.09092 11.4464 6.1145ZM10.5293 6.11368V1.99683C9.7137 2.24102 8.91953 3.10595 8.29599 4.45295C8.0992 4.87816 7.92414 5.33837 7.77168 5.82693C8.54981 5.97925 9.4653 6.08844 10.5293 6.11368ZM10.5293 7.03114V10.5265H7.05103C7.0822 9.17788 7.24544 7.88458 7.52685 6.71668C8.37429 6.88546 9.37052 7.00531 10.5293 7.03114ZM10.5293 11.4436H7.05023C7.07936 12.8143 7.24473 14.1287 7.53198 15.3133C8.37866 15.1444 9.37336 15.0241 10.5293 14.9974V11.4436ZM10.5293 15.9148V20.0116C9.71368 19.7674 8.91953 18.9025 8.29601 17.5555C8.10161 17.1355 7.92847 16.6812 7.77734 16.1993C8.5532 16.0486 9.46651 15.9406 10.5293 15.9148ZM11.4464 15.9134V20.0196C12.2715 19.7867 13.0765 18.9175 13.7069 17.5555C13.9016 17.1348 14.075 16.6797 14.2263 16.1969C13.4421 16.0447 12.5193 15.9364 11.4464 15.9134ZM11.4464 14.9963V11.4436H14.9527C14.9236 12.812 14.7587 14.1243 14.4723 15.3073C13.6187 15.1386 12.6144 15.0198 11.4464 14.9963ZM20.0694 11.4436H15.8698C15.8402 12.9116 15.6632 14.2882 15.3675 15.5148C16.7488 15.8859 17.626 16.3704 18.0845 16.6765C19.2467 15.2282 19.9748 13.4177 20.0694 11.4436ZM17.4793 4.65029C17.0687 4.90944 16.3076 5.30779 15.1307 5.62445C14.6985 4.21213 14.0979 3.0486 13.3822 2.2429C14.9591 2.67185 16.3664 3.51594 17.4793 4.65029ZM6.87409 5.61831C7.30611 4.20874 7.90603 3.04743 8.62065 2.2429C7.04764 2.67081 5.64327 3.51184 4.53168 4.64204C4.93958 4.89936 5.70036 5.29933 6.87409 5.61831ZM4.54222 17.3772C4.95175 17.1188 5.70912 16.7225 6.87904 16.4066C7.31069 17.8088 7.90881 18.9641 8.62065 19.7656C7.05261 19.339 5.65214 18.502 4.54222 17.3772ZM15.1246 16.404C14.6929 17.8074 14.0945 18.9636 13.3822 19.7656C14.9528 19.3383 16.3552 18.4993 17.466 17.3718C17.0502 17.1125 16.289 16.7181 15.1246 16.404Z" fill="#8C99A5"/>
<path d="M18.5384 17.57L18.4626 17.5039L18.4565 17.5126L18.5384 17.57ZM18.0695 3.93615L17.9988 4.00686L17.9988 4.00686L18.0695 3.93615ZM11.1243 1.00997L11.0946 1.10545L11.1085 1.10979L11.1231 1.10996L11.1243 1.00997ZM10.8504 1.01031L10.8519 1.1103L10.8665 1.11009L10.8804 1.10573L10.8504 1.01031ZM3.93338 3.93615L3.86267 3.86544L3.86267 3.86544L3.93338 3.93615ZM1.00733 10.8696L1.10412 10.8947L1.10717 10.883L1.10733 10.8709L1.00733 10.8696ZM1.00685 11.0986L1.10685 11.0977L1.10674 11.0856L1.10374 11.0739L1.00685 11.0986ZM3.93338 18.0723L4.00409 18.0016L4.00409 18.0016L3.93338 18.0723ZM18.468 17.6496L18.4009 17.5746L18.3934 17.583L18.468 17.6496ZM18.5009 17.6173L18.4273 17.5497L18.4272 17.5498L18.5009 17.6173ZM6.13316 11.4436L6.23314 11.4416L6.23117 11.3436H6.13316V11.4436ZM1.93353 11.4436V11.3436H1.82862L1.83364 11.4484L1.93353 11.4436ZM6.63723 15.5225L6.66335 15.619L6.75729 15.5936L6.73444 15.499L6.63723 15.5225ZM3.92538 16.6851L3.84746 16.7478L3.90483 16.8191L3.98093 16.7683L3.92538 16.6851ZM3.91426 5.33713L3.9702 5.25424L3.89383 5.2027L3.83622 5.2746L3.91426 5.33713ZM6.63203 6.50765L6.72927 6.531L6.75196 6.4365L6.65814 6.41112L6.63203 6.50765ZM1.93529 10.5266L1.83543 10.5214L1.82995 10.6266H1.93529V10.5266ZM6.13382 10.5266V10.6266H6.23166L6.2338 10.5287L6.13382 10.5266ZM15.8691 10.5265L15.7691 10.5287L15.7712 10.6265H15.8691V10.5265ZM20.0676 10.5265V10.6265H20.173L20.1675 10.5213L20.0676 10.5265ZM15.3712 6.50893L15.3452 6.41237L15.2512 6.43768L15.2739 6.53227L15.3712 6.50893ZM18.094 5.34378L18.1721 5.28132L18.1148 5.20965L18.0385 5.26061L18.094 5.34378ZM14.9519 10.5265V10.6265H15.0542L15.0518 10.5242L14.9519 10.5265ZM11.4464 10.5265H11.3464V10.6265H11.4464V10.5265ZM14.4762 6.71727L14.5734 6.69385L14.5509 6.60048L14.4567 6.61919L14.4762 6.71727ZM11.4464 7.0316L11.4443 6.93162L11.3464 6.93367V7.0316H11.4464ZM11.4464 1.98888L11.4735 1.89264L11.3464 1.85675V1.98888H11.4464ZM11.4464 6.1145H11.3464V6.21672L11.4485 6.21448L11.4464 6.1145ZM13.7069 4.45299L13.7976 4.41099L13.7976 4.41099L13.7069 4.45299ZM14.2324 5.83094L14.2514 5.92912L14.3612 5.9079L14.3279 5.80118L14.2324 5.83094ZM10.5293 1.99683H10.6293V1.86251L10.5006 1.90103L10.5293 1.99683ZM10.5293 6.11368L10.5269 6.21365L10.6293 6.21608V6.11368H10.5293ZM8.29599 4.45295L8.20524 4.41094L8.20524 4.41095L8.29599 4.45295ZM7.77168 5.82693L7.67622 5.79714L7.64298 5.90363L7.75247 5.92506L7.77168 5.82693ZM10.5293 10.5265V10.6265H10.6293V10.5265H10.5293ZM10.5293 7.03114H10.6293V6.93334L10.5315 6.93116L10.5293 7.03114ZM7.05103 10.5265L6.95106 10.5242L6.94869 10.6265H7.05103V10.5265ZM7.52685 6.71668L7.54638 6.6186L7.45214 6.59983L7.42963 6.69325L7.52685 6.71668ZM7.05023 11.4436V11.3436H6.94808L6.95025 11.4457L7.05023 11.4436ZM10.5293 11.4436H10.6293V11.3436H10.5293V11.4436ZM7.53198 15.3133L7.4348 15.3368L7.45742 15.4301L7.55154 15.4113L7.53198 15.3133ZM10.5293 14.9974L10.5316 15.0974L10.6293 15.0951V14.9974H10.5293ZM10.5293 20.0116L10.5006 20.1074L10.6293 20.146V20.0116H10.5293ZM10.5293 15.9148H10.6293V15.8124L10.5269 15.8149L10.5293 15.9148ZM8.29601 17.5555L8.20526 17.5975L8.20527 17.5975L8.29601 17.5555ZM7.77734 16.1993L7.75828 16.1011L7.64844 16.1224L7.68192 16.2292L7.77734 16.1993ZM11.4464 20.0196H11.3464V20.1517L11.4735 20.1158L11.4464 20.0196ZM11.4464 15.9134L11.4485 15.8134L11.3464 15.8113V15.9134H11.4464ZM13.7069 17.5555L13.7976 17.5975L13.7976 17.5975L13.7069 17.5555ZM14.2263 16.1969L14.3217 16.2268L14.3552 16.12L14.2454 16.0987L14.2263 16.1969ZM11.4464 11.4436V11.3436H11.3464V11.4436H11.4464ZM11.4464 14.9963H11.3464V15.0943L11.4443 15.0962L11.4464 14.9963ZM14.9527 11.4436L15.0526 11.4457L15.0548 11.3436H14.9527V11.4436ZM14.4723 15.3073L14.4529 15.4054L14.547 15.424L14.5695 15.3308L14.4723 15.3073ZM15.8698 11.4436V11.3436H15.7717L15.7698 11.4416L15.8698 11.4436ZM20.0694 11.4436L20.1693 11.4484L20.1743 11.3436H20.0694V11.4436ZM15.3675 15.5148L15.2703 15.4913L15.2475 15.5861L15.3416 15.6113L15.3675 15.5148ZM18.0845 16.6765L18.0289 16.7597L18.1051 16.8105L18.1625 16.7391L18.0845 16.6765ZM15.1307 5.62445L15.035 5.65371L15.0633 5.74613L15.1566 5.72102L15.1307 5.62445ZM17.4793 4.65029L17.5326 4.73485L17.6374 4.66871L17.5506 4.58026L17.4793 4.65029ZM13.3822 2.2429L13.4085 2.14641L13.0845 2.05827L13.3075 2.30931L13.3822 2.2429ZM8.62065 2.2429L8.69542 2.30931L8.9184 2.05827L8.5944 2.14641L8.62065 2.2429ZM6.87409 5.61831L6.84786 5.71481L6.94132 5.74021L6.9697 5.64761L6.87409 5.61831ZM4.53168 4.64204L4.46038 4.57192L4.37336 4.6604L4.47832 4.72662L4.53168 4.64204ZM6.87904 16.4066L6.97461 16.3772L6.9462 16.2849L6.85297 16.31L6.87904 16.4066ZM4.54222 17.3772L4.48886 17.2926L4.38373 17.359L4.47104 17.4475L4.54222 17.3772ZM8.62065 19.7656L8.5944 19.8621L8.91839 19.9502L8.69542 19.6992L8.62065 19.7656ZM13.3822 19.7656L13.3075 19.6991L13.0845 19.9502L13.4085 19.8621L13.3822 19.7656ZM15.1246 16.404L15.1507 16.3075L15.0574 16.2823L15.029 16.3746L15.1246 16.404ZM17.466 17.3718L17.5372 17.442L17.6248 17.353L17.5189 17.287L17.466 17.3718ZM20.9972 11.0042H20.8972C20.8972 13.4198 20.0373 15.7024 18.4631 17.5042L18.5384 17.57L18.6137 17.6358C20.2198 15.7975 21.0972 13.4681 21.0972 11.0042H20.9972ZM18.0695 3.93615L17.9988 4.00686C19.868 5.87606 20.8972 8.36081 20.8972 11.0042H20.9972H21.0972C21.0972 8.30777 20.0469 5.77215 18.1402 3.86544L18.0695 3.93615ZM11.1243 1.00997L11.1231 1.10996C13.721 1.14107 16.1584 2.16639 17.9988 4.00686L18.0695 3.93615L18.1402 3.86544C16.2628 1.98803 13.7756 0.941714 11.1255 0.909978L11.1243 1.00997ZM10.8504 1.01031L10.8804 1.10573C10.8787 1.10627 10.8876 1.10414 10.9125 1.10238C10.934 1.10086 10.9605 1.10003 10.9876 1.1C11.0147 1.09997 11.0411 1.10074 11.0626 1.10221C11.0875 1.10392 11.0964 1.10601 11.0946 1.10545L11.1243 1.00997L11.154 0.914497C11.1307 0.907213 11.0999 0.904295 11.0762 0.902677C11.0491 0.900822 11.0179 0.899968 10.9874 0.900001C10.9568 0.900034 10.9256 0.900957 10.8984 0.902877C10.8747 0.904556 10.8439 0.907556 10.8205 0.914902L10.8504 1.01031ZM3.93338 3.93615L4.00409 4.00686C5.83798 2.17297 8.26447 1.14838 10.8519 1.1103L10.8504 1.01031L10.849 0.910326C8.20952 0.949168 5.73336 1.99475 3.86267 3.86544L3.93338 3.93615ZM1.00733 10.8696L1.10733 10.8709C1.14136 8.27738 2.16638 5.84459 4.00409 4.00686L3.93338 3.93615L3.86267 3.86544C1.98808 5.74005 0.942064 8.22265 0.907342 10.8683L1.00733 10.8696ZM1.00685 11.0986L1.10374 11.0739C1.10412 11.0754 1.10266 11.0679 1.10149 11.0471C1.10048 11.0291 1.09996 11.0071 1.1 10.9845C1.10004 10.9619 1.10064 10.9398 1.10172 10.9218C1.10297 10.901 1.10447 10.8934 1.10412 10.8947L1.00733 10.8696L0.91055 10.8444C0.905399 10.8642 0.903274 10.8899 0.902078 10.9098C0.900713 10.9326 0.900046 10.9586 0.900002 10.9841C0.899958 11.0096 0.900535 11.0356 0.901809 11.0583C0.902922 11.0781 0.904931 11.1037 0.909969 11.1234L1.00685 11.0986ZM3.93338 18.0723L4.00409 18.0016C2.15697 16.1545 1.13086 13.7061 1.10685 11.0977L1.00685 11.0986L0.906857 11.0996C0.931347 13.7604 1.97847 16.2588 3.86267 18.143L3.93338 18.0723ZM11.0015 21V20.9C8.35802 20.9 5.87329 19.8708 4.00409 18.0016L3.93338 18.0723L3.86267 18.143C5.76938 20.0497 8.30497 21.1 11.0015 21.1V21ZM18.0695 18.0723L17.9988 18.0016C16.1296 19.8708 13.6449 20.9 11.0015 20.9V21V21.1C13.6979 21.1 16.2335 20.0497 18.1402 18.143L18.0695 18.0723ZM18.468 17.6496L18.3934 17.583C18.266 17.7258 18.1348 17.8656 17.9988 18.0016L18.0695 18.0723L18.1402 18.143C18.2793 18.004 18.413 17.8614 18.5426 17.7162L18.468 17.6496ZM18.5009 17.6173L18.4272 17.5498C18.4195 17.5582 18.4109 17.5665 18.4014 17.575L18.468 17.6496L18.5346 17.7242C18.5477 17.7124 18.5613 17.6994 18.5747 17.6849L18.5009 17.6173ZM18.5384 17.57L18.4565 17.5126C18.4466 17.5267 18.4372 17.5389 18.4273 17.5497L18.5009 17.6173L18.5746 17.685C18.5923 17.6656 18.6073 17.6459 18.6202 17.6275L18.5384 17.57ZM6.13316 11.4436V11.3436H1.93353V11.4436V11.5436H6.13316V11.4436ZM6.63723 15.5225L6.73444 15.499C6.43946 14.2781 6.26262 12.906 6.23314 11.4416L6.13316 11.4436L6.03318 11.4456C6.06292 12.9233 6.24139 14.3099 6.54003 15.546L6.63723 15.5225ZM3.92538 16.6851L3.98093 16.7683C4.42609 16.4708 5.29261 15.9898 6.66335 15.619L6.63723 15.5225L6.61112 15.426C5.21841 15.8027 4.33211 16.2931 3.86982 16.602L3.92538 16.6851ZM1.93353 11.4436L1.83364 11.4484C1.92942 13.4483 2.66849 15.2822 3.84746 16.7478L3.92538 16.6851L4.0033 16.6224C2.84985 15.1886 2.12709 13.3949 2.03341 11.4388L1.93353 11.4436ZM3.91426 5.33713L3.85833 5.42002C4.31698 5.72952 5.20391 6.22491 6.60592 6.60418L6.63203 6.50765L6.65814 6.41112C5.27841 6.03788 4.41151 5.55203 3.9702 5.25424L3.91426 5.33713ZM1.93529 10.5266L2.03516 10.5318C2.13595 8.59656 2.85268 6.82196 3.9923 5.39966L3.91426 5.33713L3.83622 5.2746C2.67139 6.72837 1.93848 8.54275 1.83543 10.5214L1.93529 10.5266ZM6.13382 10.5266V10.4266H1.93529V10.5266V10.6266H6.13382V10.5266ZM6.63203 6.50765L6.5348 6.4843C6.24187 7.70411 6.06571 9.06968 6.03385 10.5244L6.13382 10.5266L6.2338 10.5287C6.26538 9.08718 6.43993 7.73587 6.72927 6.531L6.63203 6.50765ZM15.8691 10.5265V10.6265H20.0676V10.5265V10.4265H15.8691V10.5265ZM15.3712 6.50893L15.2739 6.53227C15.5631 7.73683 15.7375 9.08769 15.7691 10.5287L15.8691 10.5265L15.969 10.5243C15.9372 9.07019 15.7611 7.70508 15.4684 6.48559L15.3712 6.50893ZM18.094 5.34378L18.0385 5.26061C17.5917 5.55896 16.7218 6.04145 15.3452 6.41237L15.3712 6.50893L15.3972 6.60549C16.7959 6.22862 17.6856 5.73675 18.1495 5.42694L18.094 5.34378ZM20.0676 10.5265L20.1675 10.5213C20.0646 8.54581 19.3338 6.73398 18.1721 5.28132L18.094 5.34378L18.0159 5.40623C19.1525 6.82745 19.8671 8.59955 19.9678 10.5317L20.0676 10.5265ZM14.9519 10.5265V10.4265H11.4464V10.5265V10.6265H14.9519V10.5265ZM14.4762 6.71727L14.379 6.74069C14.6585 7.90086 14.8209 9.18682 14.8519 10.5288L14.9519 10.5265L15.0518 10.5242C15.0205 9.1694 14.8565 7.86918 14.5734 6.69385L14.4762 6.71727ZM11.4464 7.0316L11.4484 7.13157C12.6235 7.10693 13.6348 6.98629 14.4957 6.81536L14.4762 6.71727L14.4567 6.61919C13.6077 6.78778 12.608 6.90721 11.4443 6.93162L11.4464 7.0316ZM11.4464 10.5265H11.5464V7.0316H11.4464H11.3464V10.5265H11.4464ZM11.4464 1.98888H11.3464V6.1145H11.4464H11.5464V1.98888H11.4464ZM13.7069 4.45299L13.7976 4.41099C13.1634 3.04068 12.3416 2.13766 11.4735 1.89264L11.4464 1.98888L11.4192 2.08512C12.2014 2.30592 12.9895 3.14128 13.6161 4.495L13.7069 4.45299ZM14.2324 5.83094L14.3279 5.80118C14.174 5.30744 13.997 4.84176 13.7976 4.41099L13.7069 4.45299L13.6161 4.495C13.8114 4.91694 13.9854 5.37434 14.137 5.86069L14.2324 5.83094ZM11.4464 6.1145L11.4485 6.21448C12.5312 6.19077 13.4612 6.0819 14.2514 5.92912L14.2324 5.83094L14.2135 5.73276C13.4346 5.88334 12.5159 5.99106 11.4442 6.01453L11.4464 6.1145ZM10.5293 1.99683H10.4293V6.11368H10.5293H10.6293V1.99683H10.5293ZM8.29599 4.45295L8.38674 4.49496C9.00639 3.15635 9.7841 2.32433 10.558 2.09263L10.5293 1.99683L10.5006 1.90103C9.6433 2.15771 8.83267 3.05554 8.20524 4.41094L8.29599 4.45295ZM7.77168 5.82693L7.86714 5.85672C8.01845 5.37184 8.19199 4.91576 8.38674 4.49495L8.29599 4.45295L8.20524 4.41095C8.00641 4.84056 7.82983 5.30489 7.67622 5.79714L7.77168 5.82693ZM10.5293 6.11368L10.5317 6.01371C9.47317 5.9886 8.56332 5.88 7.79089 5.72879L7.77168 5.82693L7.75247 5.92506C8.53629 6.07851 9.45742 6.18828 10.5269 6.21365L10.5293 6.11368ZM10.5293 10.5265H10.6293V7.03114H10.5293H10.4293V10.5265H10.5293ZM7.05103 10.5265V10.6265H10.5293V10.5265V10.4265H7.05103V10.5265ZM7.52685 6.71668L7.42963 6.69325C7.14639 7.86874 6.98238 9.16917 6.95106 10.5242L7.05103 10.5265L7.151 10.5288C7.18203 9.18659 7.34448 7.90043 7.62406 6.7401L7.52685 6.71668ZM10.5293 7.03114L10.5315 6.93116C9.37839 6.90546 8.38795 6.78622 7.54638 6.6186L7.52685 6.71668L7.50731 6.81475C8.36062 6.9847 9.36265 7.10516 10.5271 7.13111L10.5293 7.03114ZM7.05023 11.4436V11.5436H10.5293V11.4436V11.3436H7.05023V11.4436ZM7.53198 15.3133L7.62916 15.2897C7.34378 14.1129 7.1792 12.8057 7.15021 11.4415L7.05023 11.4436L6.95025 11.4457C6.97952 12.8229 7.14567 14.1446 7.4348 15.3368L7.53198 15.3133ZM10.5293 14.9974L10.527 14.8974C9.36542 14.9243 8.36494 15.0452 7.51242 15.2152L7.53198 15.3133L7.55154 15.4113C8.39239 15.2436 9.38131 15.124 10.5316 15.0974L10.5293 14.9974ZM10.5293 11.4436H10.4293V14.9974H10.5293H10.6293V11.4436H10.5293ZM10.5293 20.0116H10.6293V15.9148H10.5293H10.4293V20.0116H10.5293ZM8.29601 17.5555L8.20527 17.5975C8.83267 18.9529 9.64328 19.8507 10.5006 20.1074L10.5293 20.0116L10.558 19.9158C9.78408 19.6841 9.00639 18.8521 8.38676 17.5135L8.29601 17.5555ZM7.77734 16.1993L7.68192 16.2292C7.83419 16.7148 8.00884 17.1731 8.20526 17.5975L8.29601 17.5555L8.38676 17.5135C8.19438 17.0978 8.02275 16.6476 7.87276 16.1693L7.77734 16.1993ZM10.5293 15.9148L10.5269 15.8149C9.45868 15.8407 8.5398 15.9494 7.75828 16.1011L7.77734 16.1993L7.7964 16.2974C8.5666 16.1479 9.47434 16.0404 10.5317 16.0148L10.5293 15.9148ZM11.4464 20.0196H11.5464V15.9134H11.4464H11.3464V20.0196H11.4464ZM13.7069 17.5555L13.6161 17.5135C12.9895 18.8672 12.2014 19.7025 11.4192 19.9233L11.4464 20.0196L11.4735 20.1158C12.3416 19.8708 13.1634 18.9678 13.7976 17.5975L13.7069 17.5555ZM14.2263 16.1969L14.1309 16.167C13.9807 16.6461 13.8088 17.0971 13.6161 17.5135L13.7069 17.5555L13.7976 17.5975C13.9944 17.1724 14.1693 16.7132 14.3217 16.2268L14.2263 16.1969ZM11.4464 15.9134L11.4442 16.0134C12.5116 16.0362 13.4287 16.144 14.2073 16.2951L14.2263 16.1969L14.2454 16.0987C13.4554 15.9454 12.527 15.8365 11.4485 15.8134L11.4464 15.9134ZM11.4464 11.4436H11.3464V14.9963H11.4464H11.5464V11.4436H11.4464ZM14.9527 11.4436V11.3436H11.4464V11.4436V11.5436H14.9527V11.4436ZM14.4723 15.3073L14.5695 15.3308C14.8577 14.1401 15.0234 12.8206 15.0526 11.4457L14.9527 11.4436L14.8527 11.4415C14.8237 12.8034 14.6596 14.1084 14.3751 15.2837L14.4723 15.3073ZM11.4464 14.9963L11.4443 15.0962C12.6068 15.1197 13.6052 15.2378 14.4529 15.4054L14.4723 15.3073L14.4917 15.2092C13.6321 15.0393 12.6221 14.9199 11.4484 14.8963L11.4464 14.9963ZM15.8698 11.4436V11.5436H20.0694V11.4436V11.3436H15.8698V11.4436ZM15.3675 15.5148L15.4647 15.5382C15.7622 14.3041 15.94 12.9202 15.9697 11.4456L15.8698 11.4436L15.7698 11.4416C15.7403 12.9029 15.5642 14.2724 15.2703 15.4913L15.3675 15.5148ZM18.0845 16.6765L18.14 16.5933C17.6729 16.2814 16.7858 15.7923 15.3935 15.4182L15.3675 15.5148L15.3416 15.6113C16.7118 15.9795 17.5791 16.4593 18.0289 16.7597L18.0845 16.6765ZM20.0694 11.4436L19.9695 11.4388C19.876 13.391 19.1559 15.1815 18.0065 16.6139L18.0845 16.6765L18.1625 16.7391C19.3374 15.275 20.0737 13.4444 20.1693 11.4484L20.0694 11.4436ZM15.1307 5.62445L15.1566 5.72102C16.3436 5.40166 17.1139 4.99916 17.5326 4.73485L17.4793 4.65029L17.4259 4.56573C17.0235 4.81973 16.2716 5.21392 15.1047 5.52789L15.1307 5.62445ZM13.3822 2.2429L13.3075 2.30931C14.0107 3.10102 14.6056 4.25026 15.035 5.65371L15.1307 5.62445L15.2263 5.59519C14.7914 4.174 14.1851 2.99618 13.457 2.17649L13.3822 2.2429ZM17.4793 4.65029L17.5506 4.58026C16.4257 3.43356 15.0029 2.58013 13.4085 2.14641L13.3822 2.2429L13.356 2.33939C14.9153 2.76356 16.3071 3.59831 17.4079 4.72032L17.4793 4.65029ZM8.62065 2.2429L8.54589 2.17649C7.81886 2.99499 7.21321 4.17057 6.77848 5.58901L6.87409 5.61831L6.9697 5.64761C7.399 4.2469 7.99321 3.09987 8.69542 2.30931L8.62065 2.2429ZM4.53168 4.64204L4.60297 4.71216C5.70247 3.59426 7.0914 2.76254 8.6469 2.33939L8.62065 2.2429L8.5944 2.14641C7.00387 2.57909 5.58407 3.42941 4.46038 4.57192L4.53168 4.64204ZM6.87409 5.61831L6.90031 5.52181C5.7366 5.20556 4.98492 4.80973 4.58503 4.55746L4.53168 4.64204L4.47832 4.72662C4.89424 4.98899 5.66412 5.39311 6.84786 5.71481L6.87409 5.61831ZM6.87904 16.4066L6.85297 16.31C5.67305 16.6287 4.90653 17.0291 4.48886 17.2926L4.54222 17.3772L4.59558 17.4618C4.99698 17.2085 5.74518 16.8164 6.90511 16.5031L6.87904 16.4066ZM8.62065 19.7656L8.69542 19.6992C7.99593 18.9116 7.40354 17.7705 6.97461 16.3772L6.87904 16.4066L6.78347 16.436C7.21784 17.8471 7.82168 19.0166 8.54589 19.832L8.62065 19.7656ZM4.54222 17.3772L4.47104 17.4475C5.59304 18.5845 7.0089 19.4307 8.5944 19.8621L8.62065 19.7656L8.6469 19.6691C7.09632 19.2473 5.71124 18.4195 4.6134 17.307L4.54222 17.3772ZM13.3822 19.7656L13.457 19.832C14.1817 19.0161 14.7858 17.8457 15.2202 16.4334L15.1246 16.404L15.029 16.3746C14.6001 17.7691 14.0074 18.9112 13.3075 19.6991L13.3822 19.7656ZM17.466 17.3718L17.3947 17.3016C16.296 18.4169 14.909 19.2466 13.356 19.6691L13.3822 19.7656L13.4085 19.8621C14.9965 19.4301 16.4143 18.5818 17.5372 17.442L17.466 17.3718ZM15.1246 16.404L15.0986 16.5006C16.253 16.812 17.0053 17.2023 17.413 17.4567L17.466 17.3718L17.5189 17.287C17.0952 17.0227 16.3249 16.6242 15.1507 16.3075L15.1246 16.404Z" fill="#8C99A5"/>
</svg>
