<svg width="20" height="20" viewBox="0 0 20 20" fill="none" xmlns="http://www.w3.org/2000/svg">
<path fill-rule="evenodd" clip-rule="evenodd" d="M8.57143 13.0357C8.74107 13.0357 8.89732 13.1027 9.01339 13.2188L11.6696 15.8616C11.8571 16.0491 11.9598 16.2902 11.9598 16.5536C11.9598 16.817 11.8571 17.067 11.6696 17.2545L9.09821 19.817C8.98214 19.9375 8.82589 20 8.65625 20C8.49554 20 8.33929 19.9375 8.21875 19.8259L8.21429 19.8214C7.97321 19.5759 7.97321 19.1786 8.21429 18.9375L9.98661 17.1429H5.98214C4.48214 17.1429 3.40625 16.4554 2.875 15.1473C2.45536 14.1116 2.45536 12.8884 2.45536 12.2321V6.17857C1.80357 6.03571 1.21429 5.6875 0.772321 5.18304C0.276786 4.61161 0 3.88393 0 3.125C0 1.40179 1.40179 0 3.125 0C4.84821 0 6.25 1.40179 6.25 3.125C6.25 3.90179 5.96429 4.64286 5.44643 5.21875C4.98661 5.72768 4.375 6.07143 3.70536 6.19643V12.2366C3.70536 12.9955 3.75 14.0893 4.125 14.8482C4.48214 15.5625 5.07143 15.8973 5.98214 15.8973H9.96875L8.13393 14.1071L8.12946 14.1027C8.00893 13.9866 7.94643 13.8259 7.94643 13.6607C7.94643 13.4911 8.01339 13.3348 8.12946 13.2188C8.24554 13.0982 8.40625 13.0357 8.57143 13.0357ZM1.25 3.125C1.25 4.16071 2.08929 5 3.125 5C4.16071 5 5 4.16071 5 3.125C5 2.08929 4.16071 1.25 3.125 1.25C2.08929 1.25 1.25 2.08929 1.25 3.125ZM17.5446 13.8214V7.76786C17.5446 7.11161 17.5446 5.88839 17.125 4.85268C16.5938 3.54911 15.5179 2.85714 14.0179 2.85714H10.0134L11.7857 1.0625C12.0268 0.821429 12.0268 0.424107 11.7857 0.178571L11.7812 0.174107C11.6607 0.0625 11.5045 0 11.3438 0C11.1741 0 11.0179 0.0625 10.9018 0.183036L8.33036 2.74554C8.14286 2.93304 8.04018 3.18304 8.04018 3.44643C8.04018 3.70982 8.14286 3.95089 8.33036 4.13839L10.9911 6.79018C11.1071 6.90625 11.2634 6.97321 11.433 6.97321C11.5982 6.97321 11.7589 6.91071 11.875 6.79018C11.9911 6.67411 12.058 6.51786 12.058 6.34821C12.058 6.18304 11.9955 6.02232 11.875 5.90625L11.8705 5.90179L10.0312 4.10714H14.0179C14.9286 4.10714 15.5179 4.44196 15.875 5.15625C16.25 5.91518 16.2946 7.00893 16.2946 7.76786V13.8036C15.625 13.9286 15.0134 14.2723 14.5536 14.7812C14.0357 15.3571 13.75 16.0982 13.75 16.875C13.75 18.5982 15.1518 20 16.875 20C18.5982 20 20 18.5982 20 16.875C20 16.1161 19.7232 15.3884 19.2277 14.817C18.7857 14.3125 18.192 13.9643 17.5446 13.8214ZM15 16.875C15 17.9107 15.8393 18.75 16.875 18.75C17.9107 18.75 18.75 17.9107 18.75 16.875C18.75 15.8393 17.9107 15 16.875 15C15.8393 15 15 15.8393 15 16.875Z" fill="#8C99A5"/>
</svg>
