<svg width="375" height="812" viewBox="0 0 375 812" fill="none" xmlns="http://www.w3.org/2000/svg">
    <g clip-path="url(#clip0_0_342)">
        <rect width="375" height="812" fill="white" />
        <path fill-rule="evenodd" clip-rule="evenodd" d="M187 391.763L0 289L0 0L375 0V289L187 391.763Z"
            fill="url(#paint0_linear_0_342)" />
        <path fill-rule="evenodd" clip-rule="evenodd" d="M187.5 418.988L0 170L0 0L375 0V165.27L187.5 418.988Z"
            fill="url(#paint1_linear_0_342)" />
        <path fill-rule="evenodd" clip-rule="evenodd" d="M0 170L187 418.988L188 0L0 0V170Z"
            fill="url(#paint2_linear_0_342)" />
        <path fill-rule="evenodd" clip-rule="evenodd" d="M152 364.804L187.021 385.329V309L152 364.804Z"
            fill="#47ADF7" />
        <path fill-rule="evenodd" clip-rule="evenodd" d="M222.021 364.804L187 385.329V309L222.021 364.804Z"
            fill="url(#paint3_linear_0_342)" />
        <path fill-rule="evenodd" clip-rule="evenodd" d="M152 372.201L187.021 391.763V418.988L152 372.201Z"
            fill="#47ADF7" />
        <path fill-rule="evenodd" clip-rule="evenodd" d="M222.021 372.201L187 391.763V418.988L222.021 372.201Z"
            fill="url(#paint4_linear_0_342)" />
        <path
            d="M165.665 662.72V663.815C164.795 664.1 163.895 664.37 162.935 664.625V668C162.935 668.87 162.47 669.305 161.555 669.305H159.89L159.665 668.27C160.19 668.315 160.7 668.345 161.195 668.345C161.615 668.345 161.825 668.135 161.825 667.73V664.88C160.865 665.09 159.89 665.285 158.87 665.45L158.72 664.355C159.815 664.175 160.85 663.995 161.825 663.785V660.83H158.735V659.795H161.825V657.785C161.03 657.95 160.205 658.085 159.35 658.205L159.125 657.17C161.255 656.93 163.145 656.495 164.795 655.85L165.155 656.87C164.465 657.11 163.715 657.335 162.935 657.545V659.795H166.535C166.445 658.58 166.4 657.245 166.4 655.775H167.48C167.495 657.29 167.54 658.625 167.63 659.795H172.265V660.83H167.72C167.825 661.91 167.96 662.81 168.14 663.545C168.23 663.935 168.335 664.28 168.44 664.61C169.16 663.74 169.805 662.75 170.345 661.64L171.275 662.135C170.585 663.545 169.775 664.745 168.83 665.75C169.04 666.26 169.25 666.695 169.49 667.04C169.97 667.76 170.36 668.135 170.645 668.135C170.945 668.12 171.2 667.28 171.44 665.6L172.385 666.095C172.025 668.225 171.5 669.29 170.81 669.29C170.195 669.29 169.55 668.84 168.86 667.94C168.56 667.535 168.275 667.055 168.035 666.515C166.955 667.475 165.725 668.225 164.36 668.765L163.775 667.835C165.245 667.295 166.52 666.5 167.615 665.465C167.435 664.955 167.27 664.4 167.12 663.815C166.91 662.96 166.745 661.97 166.625 660.83H162.935V663.53C163.91 663.275 164.825 663.005 165.665 662.72ZM169.13 655.94C170.21 656.66 171.125 657.365 171.875 658.085L171.095 658.865C170.435 658.175 169.55 657.425 168.41 656.63L169.13 655.94ZM173.87 656.345H187.13V657.32H182.705V658.655H186.2V662.435H179.96C179.69 662.915 179.435 663.35 179.195 663.77H187.31V664.76H184.085C183.785 665.66 183.23 666.425 182.435 667.07C183.965 667.535 185.525 668.075 187.115 668.705L186.44 669.59C184.79 668.885 183.125 668.27 181.46 667.73C180.035 668.495 177.695 669.095 174.455 669.53L174.05 668.57C176.72 668.255 178.745 667.835 180.095 667.31C178.85 666.935 177.605 666.605 176.36 666.32C176.72 665.795 177.05 665.27 177.38 664.76H173.675V663.77H177.98C178.25 663.305 178.505 662.855 178.745 662.435H174.8V658.655H178.295V657.32H173.87V656.345ZM181.28 666.725C182.12 666.2 182.69 665.54 182.99 664.76H178.61C178.355 665.165 178.115 665.54 177.89 665.87C179 666.11 180.125 666.395 181.28 666.725ZM181.67 658.655V657.32H179.33V658.655H181.67ZM185.165 661.505V659.6H182.705V661.505H185.165ZM181.67 661.505V659.6H179.33V661.505H181.67ZM178.295 661.505V659.6H175.835V661.505H178.295ZM191.36 662.06H199.7V665.705H191.36V662.06ZM198.62 664.745V663.005H192.44V664.745H198.62ZM192.695 666.035C193.205 666.59 193.67 667.25 194.09 668.03H197.06C197.525 667.37 197.93 666.68 198.275 665.96L199.295 666.305C198.965 666.95 198.605 667.52 198.215 668.03H201.905V669.065H189.065V668.03H192.965C192.605 667.46 192.185 666.92 191.675 666.41L192.695 666.035ZM190.295 657.8C191.105 658.37 191.78 658.925 192.35 659.48C193.04 658.82 193.595 658.085 194.015 657.305H190.265V656.315H195.245V657.125C194.825 658.115 194.24 659.015 193.49 659.81H198.11C197.06 658.76 196.25 657.59 195.68 656.33L196.565 655.835C196.835 656.465 197.18 657.065 197.585 657.635C198.245 657.155 198.8 656.615 199.265 656.015L200.03 656.69C199.505 657.335 198.89 657.905 198.185 658.4C198.515 658.805 198.89 659.18 199.295 659.54C200.03 659 200.645 658.4 201.155 657.74L201.905 658.415C201.395 659.075 200.78 659.675 200.075 660.185C200.825 660.755 201.65 661.28 202.565 661.73L201.86 662.555C200.555 661.85 199.43 661.055 198.485 660.17V660.8H193.01V660.29C192.02 661.19 190.79 661.94 189.32 662.555L188.675 661.715C189.785 661.265 190.76 660.725 191.6 660.11C191.045 659.585 190.37 659.045 189.575 658.49L190.295 657.8ZM205.58 656.315H214.235V661.19H216.935V662.165H210.95V663.875C211.31 664.295 211.685 664.685 212.105 665.06C213.17 664.46 214.1 663.605 214.88 662.495L215.705 663.185C214.865 664.265 213.92 665.09 212.84 665.66C214.01 666.575 215.39 667.385 216.98 668.075L216.44 669.035C214.13 667.955 212.3 666.635 210.95 665.075V668.165C210.95 669.065 210.545 669.515 209.765 669.515H208.04L207.815 668.495C208.37 668.54 208.895 668.57 209.405 668.57C209.705 668.57 209.87 668.345 209.87 667.91V665.165C208.325 666.575 206.48 667.835 204.35 668.975L203.915 667.97C206.225 666.875 208.205 665.57 209.87 664.04V662.165H204.08V661.19H213.14V659.735H206.09V658.79H213.14V657.29H205.58V656.315ZM205.7 662.735C206.615 663.365 207.38 664.01 207.995 664.64L207.305 665.345C206.735 664.745 205.97 664.1 204.98 663.425L205.7 662.735Z"
            fill="white" />

        <path
            d="M78.124 507.576L78.917 507.888C78.345 509.123 77.604 510.059 76.681 510.709L76.005 510.124C76.941 509.487 77.656 508.642 78.124 507.576ZM80.425 507.563C81.4 508.538 82.154 509.396 82.674 510.124L81.92 510.644C81.387 509.838 80.659 508.967 79.736 508.005L80.425 507.563ZM73.158 517.248H71.975L71.78 516.351C72.144 516.39 72.495 516.416 72.833 516.416C73.145 516.416 73.314 516.247 73.314 515.922V512.62C72.807 512.815 72.3 512.997 71.78 513.153L71.546 512.217C72.144 512.074 72.729 511.892 73.314 511.684V508.772H71.767V507.875H73.314V505.418H74.25V507.875H75.459V508.772H74.25V511.307C74.653 511.125 75.056 510.93 75.446 510.722V511.658C75.056 511.866 74.653 512.048 74.25 512.23V516.156C74.25 516.884 73.886 517.248 73.158 517.248ZM82.817 505.899V508.317H81.933V506.744H76.889V508.369H76.005V505.899H82.817ZM77.955 512.477H75.745V511.632H78.93V510.176H79.827V511.632H83.038V512.477H80.789C81.322 513.673 82.206 514.739 83.454 515.688L82.869 516.429C81.556 515.246 80.646 513.933 80.126 512.477H79.827V517.248H78.93V512.477H78.631C78.007 514.128 76.967 515.48 75.511 516.546L75.043 515.753C76.369 514.895 77.344 513.803 77.955 512.477ZM85.638 506.406H90.019V505.379H90.981V506.406H95.362V507.264H90.981V508.395H95.895V510.774H94.985V509.214H90.019L90.734 509.565C89.954 510.189 89.148 510.722 88.303 511.177C89.499 511.151 90.474 511.125 91.202 511.073C91.657 510.761 92.125 510.436 92.593 510.098L93.347 510.605C91.813 511.749 90.175 512.62 88.407 513.244C90.097 513.192 91.774 513.101 93.464 512.984C93.178 512.672 92.879 512.373 92.567 512.061L93.243 511.632C94.192 512.555 94.92 513.361 95.427 514.063L94.725 514.57C94.517 514.258 94.283 513.946 94.023 513.634C92.97 513.699 91.982 513.764 91.046 513.816V516.299C91.046 516.949 90.682 517.287 89.98 517.287H88.797L88.602 516.416C88.966 516.455 89.33 516.481 89.668 516.481C89.954 516.481 90.11 516.338 90.11 516.078V513.855C88.68 513.92 87.367 513.972 86.171 513.998L85.989 513.153C86.262 513.166 86.535 513.179 86.795 513.179C87.861 512.88 88.953 512.412 90.097 511.762C89.213 511.788 88.212 511.827 87.081 511.853L86.899 511.138C87.094 511.099 87.289 511.021 87.484 510.917C88.329 510.436 89.135 509.864 89.889 509.214H86.015V510.761H85.105V508.395H90.019V507.264H85.638V506.406ZM92.424 514.505C93.776 514.999 94.998 515.597 96.103 516.299L95.622 517.053C94.426 516.273 93.204 515.649 91.956 515.194L92.424 514.505ZM88.329 514.479L88.875 515.09C87.9 515.87 86.678 516.507 85.209 517.014L84.819 516.182C86.236 515.753 87.406 515.181 88.329 514.479ZM97.715 506.068H109.272V506.991H103.63V508.954C105.242 509.76 106.88 510.696 108.544 511.762L107.985 512.594C106.256 511.45 104.8 510.566 103.63 509.942V517.326H102.681V506.991H97.715V506.068ZM110.65 510.761H122.337V511.697H110.65V510.761ZM134.843 508.486L134.986 509.383L130.696 509.929C130.774 510.761 130.878 511.476 131.008 512.074C131.32 513.426 131.749 514.466 132.308 515.22C132.815 515.922 133.296 516.273 133.738 516.286C134.089 516.273 134.349 515.441 134.531 513.803L135.35 514.271C135.181 515.337 134.96 516.13 134.674 516.65C134.44 517.027 134.141 517.222 133.79 517.235C133.153 517.235 132.49 516.819 131.814 516C131.073 515.09 130.527 513.907 130.163 512.451C129.994 511.801 129.864 511.008 129.773 510.046L126.952 510.41L126.809 509.513L129.695 509.136C129.604 508.044 129.552 506.783 129.539 505.353H130.501C130.501 506.744 130.54 507.966 130.618 509.019L134.843 508.486ZM125.184 510.007C124.742 510.605 124.248 511.164 123.728 511.71L123.429 510.735C124.859 509.162 125.886 507.355 126.536 505.327L127.407 505.743C127.069 506.731 126.653 507.667 126.146 508.538V517.326H125.184V510.007ZM131.918 505.444C132.711 506.107 133.387 506.77 133.933 507.42L133.283 508.057C132.815 507.42 132.152 506.744 131.32 506.029L131.918 505.444ZM136.962 505.938H148.012V506.848H141.174L140.641 508.993H146.257L145.217 515.935H148.35V516.845H136.728V515.935H144.294L144.658 513.647H138.548L140.225 506.848H136.962V505.938ZM144.801 512.776L145.256 509.864H140.42L139.692 512.776H144.801ZM154.98 508.213H158.217C158.711 507.342 159.14 506.406 159.491 505.405L160.349 505.73C159.959 506.718 159.569 507.537 159.153 508.213H161.09V509.097H158.425V509.487C158.425 510.137 158.386 510.748 158.321 511.333H161.311V512.23H158.62C158.932 513.66 159.894 515.116 161.506 516.598L160.856 517.287C159.361 515.805 158.425 514.336 158.048 512.893C157.541 514.895 156.54 516.377 155.058 517.339L154.499 516.598C155.955 515.714 156.891 514.258 157.294 512.23H154.785V511.333H157.424C157.476 510.813 157.515 510.267 157.528 509.695V509.097H154.98V508.213ZM156.267 505.483C156.787 506.25 157.19 506.926 157.476 507.511L156.774 507.992C156.475 507.368 156.072 506.692 155.552 505.938L156.267 505.483ZM149.598 505.912H154.772V506.783H153.927V513.92C154.226 513.816 154.512 513.725 154.798 513.634V514.544C154.512 514.635 154.213 514.726 153.927 514.804V517.365H153.03V515.051C151.99 515.311 150.924 515.558 149.806 515.766L149.572 514.882L150.391 514.752V506.783H149.598V505.912ZM151.288 514.583C151.886 514.453 152.458 514.323 153.03 514.18V512.256H151.288V514.583ZM151.288 511.398H153.03V509.539H151.288V511.398ZM151.288 508.694H153.03V506.783H151.288V508.694ZM168.123 514.349C167.707 513.686 167.291 513.062 166.888 512.477C166.42 513.751 165.848 514.843 165.185 515.753L164.587 515.025C165.263 514.063 165.822 512.919 166.264 511.606C165.64 510.774 165.029 510.02 164.431 509.331L165.016 508.772C165.497 509.279 166.017 509.89 166.563 510.618C166.81 509.708 167.018 508.72 167.174 507.68L168.032 507.836C167.824 509.175 167.551 510.397 167.213 511.502C167.707 512.178 168.227 512.919 168.747 513.725L168.123 514.349ZM171.932 514.947C171.49 514.18 171.048 513.465 170.619 512.789C170.099 514.063 169.488 515.155 168.786 516.065L168.188 515.35C168.916 514.362 169.527 513.205 170.008 511.879C169.41 510.995 168.825 510.189 168.227 509.461L168.812 508.902C169.28 509.435 169.8 510.085 170.346 510.865C170.632 509.89 170.853 508.837 171.035 507.719L171.919 507.875C171.685 509.318 171.373 510.618 170.983 511.788C171.477 512.542 172.01 513.387 172.569 514.323L171.932 514.947ZM172.53 517.222H171.217L170.97 516.312L172.218 516.351C172.582 516.351 172.764 516.169 172.764 515.818V506.809H164.236V517.274H163.313V505.912H173.687V516.026C173.687 516.819 173.297 517.222 172.53 517.222ZM177.418 514.453C177.704 514.453 177.951 514.57 178.133 514.817C178.302 515.051 178.393 515.35 178.393 515.727C178.393 516.299 178.224 516.806 177.886 517.248C177.548 517.664 177.093 517.95 176.547 518.093V517.456C176.885 517.339 177.158 517.144 177.366 516.884C177.561 516.611 177.652 516.325 177.652 516.013C177.6 516.039 177.496 516.065 177.366 516.065C177.145 516.065 176.963 515.987 176.807 515.831C176.651 515.675 176.573 515.48 176.573 515.259C176.573 515.012 176.651 514.817 176.807 514.674C176.963 514.518 177.158 514.453 177.418 514.453ZM196.554 508.265L196.385 508.941C196.71 510.462 197.126 511.775 197.646 512.867C198.153 511.554 198.426 510.02 198.478 508.265H196.554ZM197.217 513.803C196.71 512.802 196.281 511.658 195.93 510.358C195.696 510.956 195.436 511.489 195.163 511.957L194.578 511.242C195.345 509.786 195.865 507.823 196.125 505.353L197.035 505.509C196.957 506.172 196.853 506.796 196.749 507.368H200.181V508.265H199.336C199.271 510.436 198.868 512.295 198.14 513.829C198.816 514.999 199.609 515.896 200.545 516.533L200.038 517.3C199.128 516.65 198.348 515.766 197.698 514.674C197.074 515.714 196.268 516.585 195.293 517.287L194.812 516.507C195.826 515.805 196.619 514.908 197.217 513.803ZM191.055 511.424L191.926 511.528C191.835 511.775 191.744 512.009 191.666 512.243H194.383V513.01C194.097 513.868 193.616 514.609 192.94 515.233C193.564 515.519 194.162 515.805 194.734 516.117L194.227 516.845C193.655 516.507 192.992 516.156 192.225 515.818C191.367 516.416 190.288 516.897 188.988 517.261L188.546 516.481C189.612 516.195 190.535 515.844 191.289 515.415C190.717 515.168 190.119 514.921 189.482 514.687C189.82 514.115 190.119 513.582 190.379 513.062H188.845V512.243H190.743C190.86 511.957 190.964 511.684 191.055 511.424ZM192.082 514.869C192.732 514.349 193.226 513.738 193.538 513.062H191.302C191.094 513.504 190.86 513.92 190.6 514.31C191.12 514.492 191.614 514.674 192.082 514.869ZM189.872 505.626C190.184 506.133 190.444 506.679 190.678 507.251L190.002 507.563C189.729 506.926 189.443 506.367 189.131 505.873L189.872 505.626ZM193.824 505.587L194.5 505.899C194.24 506.471 193.915 507.03 193.499 507.576L192.836 507.238C193.252 506.679 193.59 506.133 193.824 505.587ZM188.871 507.875H191.406V505.392H192.277V507.875H194.643V508.694H192.277V508.837C192.979 509.188 193.707 509.591 194.435 510.033L193.954 510.761C193.304 510.241 192.745 509.825 192.277 509.513V511.203H191.406V508.733C190.977 509.76 190.197 510.644 189.079 511.398L188.624 510.644C189.625 510.059 190.327 509.409 190.717 508.694H188.871V507.875ZM213.012 506.718V509.617H212.076V507.615H202.924V509.617H201.988V506.718H207.097C206.915 506.25 206.72 505.834 206.512 505.457L207.578 505.275C207.76 505.704 207.942 506.185 208.111 506.718H213.012ZM203.99 509.019H210.971V509.89C210.126 510.488 209.177 511.06 208.137 511.632V512.503H213.259V513.413H208.137V516.169C208.137 516.884 207.76 517.248 207.006 517.248H205.407L205.186 516.39C205.641 516.403 206.135 516.416 206.681 516.416C207.019 516.416 207.188 516.221 207.188 515.844V513.413H201.754V512.503H207.188V511.229C208.241 510.683 209.034 510.228 209.567 509.89H203.99V509.019ZM215.534 505.652C216.314 505.899 217.042 506.198 217.692 506.562L217.198 507.316C216.496 506.9 215.794 506.588 215.079 506.354L215.534 505.652ZM219.72 505.34L220.643 505.457C220.539 505.743 220.435 506.029 220.305 506.289H225.544V506.848C225.388 507.485 225.18 508.122 224.92 508.746L224.023 508.473C224.244 508.07 224.426 507.615 224.582 507.108H222.372C222.32 507.42 222.242 507.706 222.138 507.966C222.814 508.967 224.153 509.656 226.155 510.033L225.817 510.865C223.919 510.475 222.567 509.773 221.761 508.733C221.605 508.967 221.436 509.188 221.241 509.396C220.604 509.994 219.564 510.475 218.108 510.813L217.757 509.981C219.031 509.708 219.954 509.331 220.526 508.837C220.994 508.408 221.319 507.836 221.475 507.108H219.811C219.447 507.576 219.018 508.005 218.524 508.395L217.978 507.667C218.836 507.043 219.408 506.263 219.72 505.34ZM224.66 511.164V515.025H223.724V512.035H217.237V515.129H216.301V511.164H224.66ZM220.11 512.529L221.046 512.607C220.864 514.258 220.474 515.363 219.863 515.935C219.187 516.637 217.679 517.092 215.339 517.274L214.975 516.442C217.042 516.325 218.407 515.974 219.07 515.376C219.655 514.817 220.006 513.868 220.11 512.529ZM217.341 508.096L217.887 508.733C217.237 509.409 216.431 510.046 215.469 510.644L214.845 509.916C215.833 509.357 216.665 508.746 217.341 508.096ZM221.345 514.986C223.035 515.428 224.569 515.961 225.96 516.585L225.453 517.365C223.971 516.663 222.437 516.104 220.864 515.701L221.345 514.986ZM233.526 505.21C233.734 505.652 233.942 506.159 234.137 506.718H238.7V507.615H236.438C236.282 508.304 236.074 508.967 235.801 509.591H238.973V510.488H229.639V512.412C229.587 514.44 229.119 516.065 228.222 517.287L227.507 516.65C228.261 515.636 228.664 514.219 228.69 512.412V509.591H231.355L230.809 507.615H228.43V506.718H233.188C233.006 506.224 232.785 505.782 232.551 505.379L233.526 505.21ZM232.278 509.591H234.904C235.19 508.967 235.411 508.304 235.541 507.615H231.732L232.278 509.591ZM242.418 514.453C242.704 514.453 242.951 514.57 243.133 514.817C243.302 515.051 243.393 515.35 243.393 515.727C243.393 516.299 243.224 516.806 242.886 517.248C242.548 517.664 242.093 517.95 241.547 518.093V517.456C241.885 517.339 242.158 517.144 242.366 516.884C242.561 516.611 242.652 516.325 242.652 516.013C242.6 516.039 242.496 516.065 242.366 516.065C242.145 516.065 241.963 515.987 241.807 515.831C241.651 515.675 241.573 515.48 241.573 515.259C241.573 515.012 241.651 514.817 241.807 514.674C241.963 514.518 242.158 514.453 242.418 514.453ZM263.868 506.926V517.287H262.919V516.481H256.081V517.287H255.132V506.926H257.914C258.2 506.406 258.421 505.886 258.551 505.34L259.5 505.47C259.357 505.99 259.149 506.484 258.889 506.926H263.868ZM256.081 515.584H262.919V513.465H256.081V515.584ZM256.081 512.607H262.919V510.618H256.081V512.607ZM256.081 509.76H262.919V507.823H256.081V509.76ZM277.349 507.472V517.235H276.413V516.39H268.587V517.235H267.651V507.472H272.019V505.431H272.981V507.472H277.349ZM268.587 515.493H272.019V512.23H268.587V515.493ZM272.981 515.493H276.413V512.23H272.981V515.493ZM268.587 511.359H272.019V508.369H268.587V511.359ZM272.981 508.369V511.359H276.413V508.369H272.981ZM279.754 506.926H285.123C284.889 506.393 284.629 505.912 284.343 505.47L285.383 505.288C285.643 505.782 285.903 506.328 286.137 506.926H291.259V507.823H279.754V506.926ZM287.554 508.213C288.997 509.357 290.206 510.488 291.181 511.632L290.492 512.321C289.634 511.229 288.438 510.072 286.917 508.824L287.554 508.213ZM287.684 510.644L288.542 511.021C287.918 512.217 287.164 513.244 286.267 514.115C287.671 515.129 289.374 515.883 291.402 516.403L290.817 517.274C288.711 516.676 286.956 515.844 285.552 514.752C284.096 515.922 282.328 516.78 280.248 517.326L279.676 516.468C281.73 515.948 283.433 515.168 284.798 514.128C283.849 513.27 283.069 512.282 282.458 511.19L283.264 510.735C283.836 511.801 284.59 512.724 285.513 513.517C286.397 512.685 287.125 511.736 287.684 510.644ZM283.368 508.226L284.044 508.824C283.056 510.111 281.834 511.242 280.378 512.204L279.78 511.411C281.197 510.501 282.393 509.448 283.368 508.226ZM296.355 510.436H294.548V505.86H302.517V510.436H297.408C297.174 510.8 296.888 511.151 296.576 511.489H303.466C303.427 512.88 303.349 514.011 303.232 514.869C303.102 515.714 302.907 516.312 302.634 516.65C302.361 516.962 301.919 517.144 301.295 517.17H299.618L299.371 516.299C299.891 516.325 300.385 516.338 300.853 516.338C301.49 516.338 301.906 516.091 302.114 515.597C302.322 515.077 302.452 513.985 302.517 512.321H301.269C300.151 514.817 298.37 516.455 295.913 517.261L295.38 516.481C297.668 515.753 299.319 514.375 300.32 512.321H298.604C297.694 513.777 296.225 514.908 294.184 515.714L293.599 514.999C295.471 514.31 296.81 513.413 297.629 512.321H295.64C295.003 512.802 294.262 513.244 293.404 513.634L292.897 512.802C294.47 512.178 295.627 511.398 296.355 510.436ZM301.594 509.643V508.525H295.471V509.643H301.594ZM295.471 507.771H301.594V506.666H295.471V507.771ZM137.664 531.587C138.535 532.263 139.276 532.926 139.874 533.602L139.198 534.265C138.678 533.628 137.95 532.939 137.027 532.198L137.664 531.587ZM145.217 543.066C144.515 543.066 143.748 543.053 142.929 543.04C142.097 543.027 141.434 542.949 140.914 542.806C140.407 542.65 139.952 542.325 139.549 541.857C139.38 541.636 139.211 541.532 139.055 541.532C138.743 541.532 138.236 542.13 137.521 543.326L136.819 542.689C137.508 541.597 138.119 540.934 138.652 540.7V536.748H136.793V535.89H139.523V540.752C139.627 540.83 139.731 540.934 139.835 541.051C140.147 541.428 140.472 541.701 140.836 541.87C141.226 542.052 141.811 542.156 142.565 542.182C143.241 542.195 144.086 542.208 145.087 542.208C145.698 542.208 146.322 542.195 146.959 542.182C147.583 542.169 148.077 542.156 148.415 542.13L148.194 543.066H145.217ZM140.42 532.718H142.513C142.695 532.263 142.877 531.782 143.033 531.288L143.93 531.496C143.787 531.925 143.644 532.328 143.488 532.718H148.051V533.589H143.124C142.734 534.46 142.292 535.24 141.824 535.916H143.917V534.369H144.814V535.916H147.648V536.774H144.814V538.321H148.22V539.205H144.814V541.623H143.917V539.205H140.316V538.321H143.917V536.774H140.914L140.706 535.916C141.226 535.292 141.707 534.512 142.136 533.589H140.42V532.718ZM155.877 533.576C156.215 534.161 156.514 534.798 156.8 535.5H158.074C158.438 534.85 158.737 534.161 158.997 533.433L159.881 533.745C159.634 534.395 159.361 534.98 159.062 535.5H161.168V536.397H153.914V535.5H155.903C155.643 534.928 155.383 534.408 155.11 533.94L155.877 533.576ZM157.593 531.301C157.736 531.665 157.879 532.081 158.022 532.536H160.934V533.394H154.213V532.536H157.073C156.93 532.146 156.774 531.782 156.618 531.457L157.593 531.301ZM151.106 543.183H149.975L149.78 542.273C150.131 542.299 150.469 542.325 150.781 542.325C151.119 542.325 151.301 542.156 151.301 541.818V538.62C150.781 538.828 150.248 539.023 149.715 539.192L149.481 538.256C150.092 538.1 150.703 537.905 151.301 537.671V534.772H149.715V533.875H151.301V531.418H152.263V533.875H153.342V534.772H152.263V537.268C152.627 537.086 152.991 536.904 153.355 536.709V537.658C152.991 537.853 152.627 538.035 152.263 538.204V542.052C152.263 542.806 151.873 543.183 151.106 543.183ZM156.449 536.761L157.346 536.865C157.216 537.216 157.073 537.554 156.917 537.879H161.376V538.789H159.946C159.751 539.751 159.348 540.57 158.737 541.233C159.621 541.649 160.479 542.091 161.298 542.559L160.791 543.313C160.011 542.832 159.114 542.351 158.074 541.857C157.216 542.481 155.851 542.988 153.979 543.352L153.615 542.507C155.123 542.234 156.293 541.87 157.099 541.402C156.306 541.038 155.461 540.687 154.551 540.323C154.902 539.79 155.214 539.283 155.487 538.789H153.745V537.879H155.968C156.15 537.489 156.306 537.125 156.449 536.761ZM159.062 538.789H156.436C156.202 539.192 155.955 539.582 155.695 539.946C156.449 540.232 157.177 540.531 157.879 540.843C158.464 540.297 158.854 539.621 159.062 538.789ZM170.762 538.36C172.088 540.076 173.102 541.558 173.804 542.832L173.011 543.391C172.803 543.014 172.582 542.624 172.348 542.234C169.332 542.546 166.472 542.78 163.768 542.936L163.599 542.169C164.717 541.558 165.861 540.089 167.031 537.749H162.715V536.839H168.019V534.382H163.534V533.472H168.019V531.405H168.981V533.472H173.44V534.382H168.981V536.839H174.272V537.749H168.071C167.148 539.699 166.212 541.129 165.263 542.052C168.409 541.805 170.619 541.61 171.867 541.454C171.321 540.622 170.697 539.751 170.008 538.841L170.762 538.36ZM181.019 531.327H181.981V533.667H186.648V539.777H185.712V538.958H181.981V543.391H181.019V538.958H177.301V539.777H176.365V533.667H181.019V531.327ZM177.301 538.048H181.019V534.577H177.301V538.048ZM181.981 538.048H185.712V534.577H181.981V538.048ZM196.164 542.871H193.265C192.355 542.871 191.913 542.429 191.913 541.558V534.096H192.849V541.363C192.849 541.753 193.083 541.948 193.551 541.948H195.995C196.307 541.948 196.528 541.818 196.658 541.571C196.814 541.259 196.931 540.349 196.996 538.828L197.88 539.127C197.776 540.908 197.594 541.987 197.321 542.377C197.074 542.702 196.684 542.871 196.164 542.871ZM189.989 535.487L190.886 535.669C190.522 537.905 190.002 539.829 189.326 541.441L188.52 540.934C189.196 539.283 189.677 537.463 189.989 535.487ZM198.361 535.084C199.193 536.774 199.908 538.568 200.532 540.479L199.674 540.869C198.998 538.802 198.257 536.969 197.451 535.383L198.361 535.084ZM193.681 531.431C194.877 532.692 195.8 533.797 196.437 534.746L195.657 535.279C194.981 534.265 194.071 533.134 192.901 531.912L193.681 531.431ZM205.511 531.288L206.382 531.691C205.927 532.783 205.342 533.797 204.64 534.759V543.326H203.704V535.903C203.119 536.54 202.482 537.151 201.793 537.723L201.494 536.748C203.34 535.162 204.679 533.342 205.511 531.288ZM211.504 543.092H209.021C208.111 543.092 207.656 542.624 207.656 541.714V537.749C207.11 538.061 206.551 538.347 205.979 538.62L205.563 537.736C206.291 537.398 206.993 537.047 207.656 536.657V531.444H208.592V536.085C209.957 535.175 211.153 534.135 212.18 532.978L212.83 533.719C211.621 535.019 210.204 536.176 208.592 537.19V541.584C208.592 541.987 208.8 542.195 209.242 542.195H211.348C211.686 542.195 211.946 542.078 212.102 541.87C212.245 541.662 212.336 540.908 212.388 539.621L213.259 539.907C213.168 541.402 213.012 542.312 212.791 542.624C212.557 542.936 212.128 543.092 211.504 543.092ZM214.637 534.473H216.301V531.535H217.25V534.473H219.902V531.418H220.825V534.473H223.464V531.418H224.387V534.473H226.35V535.37H224.387V539.465H219.902V535.37H217.25V541.844H225.908V542.793H216.301V535.37H214.637V534.473ZM220.825 535.37V538.555H223.464V535.37H220.825ZM229.041 531.886H238.011V537.047H235.515C236.373 538.048 237.712 538.841 239.519 539.426L239.116 540.245C237.855 539.777 236.815 539.218 236.009 538.581V543.326H235.073V538.438H235.84C235.294 537.996 234.865 537.528 234.54 537.047H232.447C231.537 538.295 230.042 539.322 227.962 540.141L227.468 539.322C229.275 538.724 230.614 537.97 231.472 537.047H229.041V531.886ZM237.114 536.215V534.837H233.955V536.215H237.114ZM233.045 536.215V534.837H229.938V536.215H233.045ZM229.938 534.057H233.045V532.718H229.938V534.057ZM233.955 532.718V534.057H237.114V532.718H233.955ZM231.199 538.425H232.135C232.135 539.452 231.979 540.323 231.68 541.038C231.29 541.974 230.393 542.741 229.015 543.339L228.391 542.585C229.561 542.104 230.354 541.506 230.744 540.778C231.03 540.154 231.186 539.374 231.199 538.425Z"
            fill="#8C99A5" />
        <path
            d="M141.048 466.072C143.44 466.072 145.312 466.592 146.69 467.658C148.016 468.698 148.848 470.232 149.186 472.312H146.118C145.858 471.116 145.286 470.232 144.454 469.634C143.596 469.036 142.452 468.75 141.048 468.75C139.306 468.75 137.928 469.322 136.914 470.518C135.796 471.766 135.25 473.508 135.25 475.796C135.25 477.98 135.744 479.67 136.732 480.84C137.798 482.088 139.462 482.712 141.724 482.712C142.608 482.712 143.44 482.608 144.22 482.4C144.948 482.192 145.598 481.906 146.222 481.542V477.72H141.308V475.12H149.264V482.972C148.276 483.752 147.158 484.324 145.884 484.74C144.532 485.156 143.05 485.364 141.386 485.364C138.422 485.364 136.134 484.428 134.496 482.556C132.962 480.814 132.208 478.552 132.208 475.796C132.208 473.014 132.962 470.726 134.496 468.932C136.108 467.008 138.292 466.072 141.048 466.072ZM158.62 471.194C160.648 471.194 162.286 471.844 163.534 473.196C164.756 474.522 165.38 476.212 165.38 478.292C165.38 480.346 164.756 482.036 163.56 483.336C162.312 484.688 160.648 485.364 158.62 485.364C156.566 485.364 154.928 484.688 153.68 483.336C152.458 482.036 151.86 480.346 151.86 478.292C151.86 476.212 152.458 474.522 153.706 473.196C154.928 471.844 156.566 471.194 158.62 471.194ZM158.62 473.612C157.372 473.612 156.436 474.08 155.76 475.068C155.188 475.9 154.902 476.992 154.902 478.292C154.902 479.592 155.188 480.658 155.76 481.49C156.436 482.452 157.372 482.946 158.62 482.946C159.842 482.946 160.804 482.452 161.48 481.49C162.052 480.632 162.364 479.566 162.364 478.292C162.364 476.992 162.052 475.9 161.48 475.068C160.804 474.08 159.842 473.612 158.62 473.612ZM175.198 466.436H178.63L182.114 480.554H182.218L185.884 466.436H189.03L192.696 480.554H192.8L196.284 466.436H199.716L194.36 485H191.136L187.522 471.038H187.418L183.778 485H180.528L175.198 466.436ZM207.13 471.194C209.34 471.194 211.03 471.922 212.2 473.43C213.266 474.782 213.812 476.68 213.812 479.098H203.75C203.854 480.346 204.192 481.308 204.764 481.958C205.336 482.608 206.168 482.946 207.234 482.946C208.144 482.946 208.872 482.738 209.444 482.322C209.886 481.984 210.276 481.438 210.64 480.684H213.604C213.292 481.932 212.668 482.998 211.732 483.83C210.536 484.844 209.054 485.364 207.26 485.364C205.258 485.364 203.672 484.74 202.502 483.518C201.254 482.244 200.63 480.502 200.63 478.266C200.63 476.264 201.202 474.6 202.398 473.248C203.542 471.87 205.128 471.194 207.13 471.194ZM207.208 473.612C206.22 473.612 205.466 473.872 204.894 474.444C204.348 474.99 203.984 475.796 203.802 476.862H210.718C210.458 474.678 209.288 473.612 207.208 473.612ZM216.162 466.072H219.126V473.404C220.218 471.922 221.57 471.194 223.13 471.194C225.054 471.194 226.562 471.896 227.68 473.3C228.694 474.6 229.214 476.238 229.214 478.214C229.214 480.268 228.694 481.958 227.654 483.258C226.51 484.662 224.95 485.364 222.974 485.364C221.206 485.364 219.854 484.766 218.918 483.57V485H216.162V466.072ZM222.428 473.586C221.466 473.586 220.686 473.976 220.062 474.756C219.36 475.588 219.022 476.732 219.022 478.162V478.37C219.022 479.67 219.282 480.762 219.854 481.594C220.478 482.504 221.362 482.972 222.532 482.972C223.832 482.972 224.794 482.504 225.418 481.568C225.912 480.788 226.172 479.67 226.172 478.214C226.172 476.758 225.886 475.666 225.366 474.912C224.742 474.028 223.754 473.586 222.428 473.586ZM238.224 466.072C240.096 466.072 241.63 466.514 242.774 467.424C243.892 468.334 244.464 469.582 244.464 471.194C244.464 473.222 243.424 474.574 241.37 475.25C242.462 475.588 243.32 476.082 243.892 476.758C244.516 477.46 244.828 478.37 244.828 479.462C244.828 481.178 244.23 482.582 243.034 483.674C241.786 484.792 240.148 485.364 238.12 485.364C236.196 485.364 234.636 484.87 233.466 483.882C232.166 482.79 231.438 481.178 231.282 479.098H234.376C234.428 480.294 234.792 481.23 235.52 481.88C236.17 482.478 237.028 482.79 238.094 482.79C239.264 482.79 240.2 482.452 240.876 481.802C241.474 481.204 241.786 480.476 241.786 479.592C241.786 478.526 241.448 477.746 240.824 477.252C240.2 476.732 239.29 476.498 238.094 476.498H236.794V474.21H238.094C239.186 474.21 240.018 473.976 240.59 473.508C241.136 473.04 241.422 472.338 241.422 471.428C241.422 470.518 241.162 469.842 240.668 469.374C240.122 468.906 239.316 468.672 238.25 468.672C237.158 468.672 236.326 468.932 235.728 469.478C235.104 470.024 234.74 470.856 234.636 471.974H231.646C231.802 470.102 232.478 468.646 233.726 467.606C234.896 466.566 236.404 466.072 238.224 466.072Z"
            fill="black" />

    </g>
    <defs>
        <linearGradient id="paint0_linear_0_342" x1="0" y1="0" x2="0" y2="391.763" gradientUnits="userSpaceOnUse">
            <stop stop-color="white" />
            <stop offset="1" stop-color="#F6FBFF" />
        </linearGradient>
        <linearGradient id="paint1_linear_0_342" x1="0" y1="0" x2="0" y2="418.988" gradientUnits="userSpaceOnUse">
            <stop stop-color="white" />
            <stop offset="1" stop-color="#E6F4FE" />
        </linearGradient>
        <linearGradient id="paint2_linear_0_342" x1="0" y1="0" x2="0" y2="418.988" gradientUnits="userSpaceOnUse">
            <stop stop-color="white" />
            <stop offset="1" stop-color="#D6EEFF" />
        </linearGradient>
        <linearGradient id="paint3_linear_0_342" x1="222.021" y1="309" x2="222.021" y2="385.329"
            gradientUnits="userSpaceOnUse">
            <stop stop-color="#388AC4" />
            <stop offset="1" stop-color="#1B3C55" />
        </linearGradient>
        <linearGradient id="paint4_linear_0_342" x1="222.021" y1="372.201" x2="222.021" y2="418.988"
            gradientUnits="userSpaceOnUse">
            <stop stop-color="#4A9DD8" />
            <stop offset="1" stop-color="#18364F" />
        </linearGradient>
        <clipPath id="clip0_0_342">
            <rect width="375" height="812" fill="white" />
        </clipPath>
    </defs>
</svg>