<svg width="24" height="24" viewBox="0 0 24 24" fill="none" xmlns="http://www.w3.org/2000/svg">
<g id="icon_jiaoyi">
<rect id="&#231;&#159;&#169;&#229;&#189;&#162;" width="24" height="24" fill="#D8D8D8" fill-opacity="0.01"/>
<circle id="&#230;&#164;&#173;&#229;&#156;&#134;&#229;&#189;&#162;" cx="12" cy="12" r="11" fill="#8C99A5"/>
<path id="Fill 3" fill-rule="evenodd" clip-rule="evenodd" d="M7.55808 11.1634H16.4401C16.9093 11.1634 17.317 10.8798 17.4805 10.4399C17.6439 10.0009 17.5198 9.51858 17.1646 9.21181L14.4128 6.84146C14.0324 6.51351 13.4592 6.5569 13.1313 6.93631C12.8043 7.31573 12.8467 7.88991 13.2272 8.21685L14.538 9.34602H7.55808C7.05657 9.34602 6.6499 9.7537 6.6499 10.2552C6.6499 10.7567 7.05657 11.1634 7.55808 11.1634" fill="#2F383F"/>
<path id="Fill 5" fill-rule="evenodd" clip-rule="evenodd" d="M16.6425 13.0376H7.76048C7.29126 13.0376 6.88257 13.3222 6.72011 13.7621C6.55563 14.2011 6.67975 14.6834 7.03596 14.9892L9.78775 17.3585C9.95929 17.5069 10.1692 17.5795 10.3791 17.5795C10.6344 17.5795 10.8887 17.4726 11.0683 17.2627C11.3952 16.8843 11.3528 16.3101 10.9724 15.9831L9.66262 14.855H16.6425C17.144 14.855 17.5507 14.4473 17.5507 13.9458C17.5507 13.4443 17.144 13.0376 16.6425 13.0376" fill="#2F383F"/>
</g>
</svg>
