<svg width="24" height="24" viewBox="0 0 24 24" fill="none" xmlns="http://www.w3.org/2000/svg">
    <g id="icon_tongxunlu">
        <rect id="&#231;&#159;&#169;&#229;&#189;&#162;" width="24" height="24" fill="#E07575" fill-opacity="0.01" />
        <g id="&#233;&#128;&#154;&#232;&#174;&#175;&#229;&#189;&#149; (1)">
            <path id="&#229;&#189;&#162;&#231;&#138;&#182;"
                d="M21.6823 20.1336C21.491 18.9997 20.8691 17.9644 19.8177 17.3728C19.4077 17.1304 18.9747 16.9321 18.5253 16.7812C18.3348 16.6835 17.3303 16.2882 17.0433 16.1403C15.0343 15.2538 14.1255 14.6129 14.1255 14.0204C14.1255 13.6753 14.222 13.3795 14.4621 12.986C14.556 12.8381 14.9874 12.2465 15.0343 12.0977C15.8475 10.8661 16.2302 9.6336 16.2302 7.71089C16.2302 3.67012 14.1751 1.5 11.1128 1.5C8.05235 1.5 5.99461 3.6199 5.99461 7.71089C5.99461 9.6336 6.37816 10.8661 7.19045 12.0977C7.28701 12.2456 7.71751 12.8372 7.76534 12.986C8.00451 13.3795 8.10107 13.6753 8.10107 14.0204C8.10107 14.5636 7.1435 15.2529 5.1832 16.1403C4.8962 16.2882 3.88992 16.6835 3.70124 16.7812C3.12635 17.0277 2.74368 17.2249 2.40796 17.3728C1.42028 17.9627 0.73758 18.974 0.544214 20.1336C0.351993 21.3661 0.781611 22.5 1.92962 22.5H20.1986C21.3944 22.4498 21.8249 21.3159 21.6814 20.1336H21.6823Z"
                fill="#8C99A5" stroke="#8C99A5" stroke-width="0.2" />
            <path id="&#229;&#189;&#162;&#231;&#138;&#182;_2" fill-rule="evenodd" clip-rule="evenodd"
                d="M23.5002 8.57851C23.4877 8.16174 23.1526 7.82695 22.7358 7.81494H18.0968C17.6793 7.82603 17.3431 8.16108 17.3306 8.57851C17.3306 8.96118 17.7132 9.34385 18.095 9.34385H22.7349C23.1654 9.34385 23.5002 9.00813 23.5002 8.58028V8.57851ZM22.7358 10.4361H19.1004C18.6833 10.4481 18.348 10.7834 18.336 11.2005C18.336 11.5832 18.7177 11.9659 19.1004 11.9659H22.7358C23.1529 11.9538 23.4882 11.6185 23.5002 11.2014C23.4887 10.7839 23.1532 10.4481 22.7358 10.4361ZM20.1528 13.0049H22.7358C23.1536 13.017 23.4891 13.3533 23.5002 13.7711C23.4882 14.1886 23.1524 14.524 22.7349 14.5356H20.1519C19.7692 14.5356 19.3874 14.152 19.3874 13.7702C19.399 13.3525 19.735 13.0165 20.1528 13.0049Z"
                fill="#2F383F" />
        </g>
    </g>
</svg>