<svg width="40" height="40" viewBox="0 0 40 40" fill="none" xmlns="http://www.w3.org/2000/svg">
<circle cx="20" cy="20" r="20" fill="#232D39"/>
<path fill-rule="evenodd" clip-rule="evenodd" d="M11.558 10.3856C11.8287 9.84306 12.3829 9.50017 12.9892 9.5H27.0108C27.6173 9.49972 28.1717 9.84232 28.4428 10.3848L29.8212 13.1424C29.9452 13.3904 29.9318 13.685 29.786 13.9208C29.6401 14.1567 29.3825 14.3001 29.1052 14.3H10.894C10.6169 14.2999 10.3595 14.1563 10.2139 13.9205C10.0682 13.6847 10.0549 13.3903 10.1788 13.1424L11.558 10.3848V10.3856ZM27.154 11.028C27.1268 10.9739 27.0713 10.9399 27.0108 10.94H12.9892C12.9284 10.9396 12.8726 10.9737 12.8452 11.028L11.9308 12.86H28.0708L27.1548 11.028H27.154ZM28.9596 17.54H11.0396V26.5C11.0396 27.9138 12.1858 29.06 13.5996 29.06H26.3996C27.8135 29.06 28.9596 27.9138 28.9596 26.5V17.54ZM10.3996 16.1C10.1874 16.1 9.98395 16.1843 9.83392 16.3343C9.68389 16.4843 9.59961 16.6878 9.59961 16.9V26.5C9.59961 28.7091 11.3905 30.5 13.5996 30.5H26.3996C28.6087 30.5 30.3996 28.7091 30.3996 26.5V16.9C30.3996 16.6878 30.3153 16.4843 30.1653 16.3343C30.0153 16.1843 29.8118 16.1 29.5996 16.1H10.3996ZM18.0604 23.4328L19.3596 22.0856V26.1C19.3596 26.4535 19.6461 26.74 19.9996 26.74C20.3531 26.74 20.6396 26.4535 20.6396 26.1V22.0856L21.9388 23.4328C22.0964 23.6022 22.3331 23.6734 22.5579 23.619C22.7828 23.5646 22.9608 23.3931 23.0235 23.1704C23.0862 22.9477 23.0238 22.7085 22.8604 22.5448L20.5756 20.1752C20.4248 20.0188 20.2169 19.9304 19.9996 19.9304C19.7823 19.9304 19.5744 20.0188 19.4236 20.1752L17.1388 22.5448C16.9011 22.8004 16.912 23.1993 17.1634 23.4415C17.4147 23.6837 17.8138 23.6799 18.0604 23.4328Z" fill="white"/>
<path d="M12.9892 9.5V9.35L12.9892 9.35L12.9892 9.5ZM11.558 10.3856H11.408L11.6922 10.4526L11.558 10.3856ZM27.0108 9.5L27.0108 9.65L27.0109 9.65L27.0108 9.5ZM28.4428 10.3848L28.3086 10.4519L28.3086 10.4519L28.4428 10.3848ZM29.8212 13.1424L29.9554 13.0754L29.9554 13.0753L29.8212 13.1424ZM29.786 13.9208L29.6584 13.8419L29.6584 13.8419L29.786 13.9208ZM29.1052 14.3L29.1053 14.15H29.1052V14.3ZM10.894 14.3L10.8939 14.45H10.894V14.3ZM10.2139 13.9205L10.0862 13.9993L10.0862 13.9993L10.2139 13.9205ZM10.1788 13.1424L10.0447 13.0753L10.0446 13.0754L10.1788 13.1424ZM11.558 10.3848H11.708L11.4239 10.3177L11.558 10.3848ZM27.0108 10.94L27.0108 11.09L27.0111 11.09L27.0108 10.94ZM27.154 11.028L27.0201 11.0955L27.0616 11.178H27.154V11.028ZM12.9892 10.94L12.9882 11.09H12.9892V10.94ZM12.8452 11.028L12.7113 10.9605L12.711 10.961L12.8452 11.028ZM11.9308 12.86L11.7966 12.793L11.6883 13.01H11.9308V12.86ZM28.0708 12.86V13.01H28.3135L28.205 12.7929L28.0708 12.86ZM27.1548 11.028L27.289 10.9609L27.2475 10.878H27.1548V11.028ZM11.0396 17.54V17.39H10.8896V17.54H11.0396ZM28.9596 17.54H29.1096V17.39H28.9596V17.54ZM9.83392 16.3343L9.72786 16.2282L9.72786 16.2282L9.83392 16.3343ZM19.3596 22.0856H19.5096V21.714L19.2516 21.9815L19.3596 22.0856ZM18.0604 23.4328L18.1666 23.5388L18.1684 23.5369L18.0604 23.4328ZM20.6396 22.0856L20.7476 21.9815L20.4896 21.714V22.0856H20.6396ZM21.9388 23.4328L22.0487 23.3306L22.0468 23.3287L21.9388 23.4328ZM22.8604 22.5448L22.7524 22.6489L22.7542 22.6508L22.8604 22.5448ZM20.5756 20.1752L20.4676 20.2793L20.4676 20.2793L20.5756 20.1752ZM19.4236 20.1752L19.5316 20.2793L19.5316 20.2793L19.4236 20.1752ZM17.1388 22.5448L17.0308 22.4407L17.029 22.4426L17.1388 22.5448ZM12.9892 9.5L12.9892 9.35C12.326 9.35019 11.7199 9.72523 11.4238 10.3186L11.558 10.3856L11.6922 10.4526C11.9376 9.9609 12.4398 9.65016 12.9893 9.65L12.9892 9.5ZM27.0108 9.5V9.35H12.9892V9.5V9.65H27.0108V9.5ZM28.4428 10.3848L28.577 10.3178C28.2805 9.72441 27.674 9.34969 27.0107 9.35L27.0108 9.5L27.0109 9.65C27.5605 9.64974 28.063 9.96023 28.3086 10.4519L28.4428 10.3848ZM29.8212 13.1424L29.9554 13.0753L28.577 10.3177L28.4428 10.3848L28.3086 10.4519L29.687 13.2095L29.8212 13.1424ZM29.786 13.9208L29.9135 13.9997C30.0867 13.7197 30.1026 13.3699 29.9554 13.0754L29.8212 13.1424L29.687 13.2095C29.7877 13.411 29.7769 13.6503 29.6584 13.8419L29.786 13.9208ZM29.1052 14.3L29.1051 14.45C29.4344 14.4502 29.7403 14.2798 29.9135 13.9997L29.786 13.9208L29.6584 13.8419C29.5399 14.0335 29.3306 14.1501 29.1053 14.15L29.1052 14.3ZM10.894 14.3V14.45H29.1052V14.3V14.15H10.894V14.3ZM10.2139 13.9205L10.0862 13.9993C10.2592 14.2793 10.5648 14.4498 10.8939 14.45L10.894 14.3L10.8941 14.15C10.6689 14.1499 10.4598 14.0332 10.3415 13.8416L10.2139 13.9205ZM10.1788 13.1424L10.0446 13.0754C9.89751 13.3698 9.91326 13.7193 10.0862 13.9993L10.2139 13.9205L10.3415 13.8416C10.2231 13.6501 10.2123 13.4109 10.313 13.2095L10.1788 13.1424ZM11.558 10.3848L11.4239 10.3177L10.0447 13.0753L10.1788 13.1424L10.313 13.2095L11.6922 10.4519L11.558 10.3848ZM11.558 10.3856H11.708V10.3848H11.558H11.408V10.3856H11.558ZM27.0108 10.94L27.0111 11.09C27.0149 11.09 27.0184 11.0921 27.0201 11.0955L27.154 11.028L27.288 10.9605C27.2352 10.8558 27.1278 10.7898 27.0105 10.79L27.0108 10.94ZM12.9892 10.94V11.09H27.0108V10.94V10.79H12.9892V10.94ZM12.8452 11.028L12.9792 11.0955C12.9809 11.0921 12.9844 11.09 12.9882 11.09L12.9892 10.94L12.9903 10.79C12.8724 10.7892 12.7643 10.8553 12.7113 10.9605L12.8452 11.028ZM11.9308 12.86L12.065 12.927L12.9794 11.095L12.8452 11.028L12.711 10.961L11.7966 12.793L11.9308 12.86ZM28.0708 12.86V12.71H11.9308V12.86V13.01H28.0708V12.86ZM27.1548 11.028L27.0206 11.0951L27.9366 12.9271L28.0708 12.86L28.205 12.7929L27.289 10.9609L27.1548 11.028ZM27.154 11.028V11.178H27.1548V11.028V10.878H27.154V11.028ZM11.0396 17.54V17.69H28.9596V17.54V17.39H11.0396V17.54ZM11.0396 26.5H11.1896V17.54H11.0396H10.8896V26.5H11.0396ZM13.5996 29.06V28.91C12.2686 28.91 11.1896 27.831 11.1896 26.5H11.0396H10.8896C10.8896 27.9967 12.1029 29.21 13.5996 29.21V29.06ZM26.3996 29.06V28.91H13.5996V29.06V29.21H26.3996V29.06ZM28.9596 26.5H28.8096C28.8096 27.831 27.7306 28.91 26.3996 28.91V29.06V29.21C27.8963 29.21 29.1096 27.9967 29.1096 26.5H28.9596ZM28.9596 17.54H28.8096V26.5H28.9596H29.1096V17.54H28.9596ZM9.83392 16.3343L9.93999 16.4404C10.0619 16.3185 10.2272 16.25 10.3996 16.25V16.1V15.95C10.1477 15.95 9.90602 16.0501 9.72786 16.2282L9.83392 16.3343ZM9.59961 16.9H9.74961C9.74961 16.7276 9.81809 16.5623 9.93999 16.4404L9.83392 16.3343L9.72786 16.2282C9.5497 16.4064 9.44961 16.648 9.44961 16.9H9.59961ZM9.59961 26.5H9.74961V16.9H9.59961H9.44961V26.5H9.59961ZM13.5996 30.5V30.35C11.4733 30.35 9.74961 28.6263 9.74961 26.5H9.59961H9.44961C9.44961 28.792 11.3076 30.65 13.5996 30.65V30.5ZM26.3996 30.5V30.35H13.5996V30.5V30.65H26.3996V30.5ZM30.3996 26.5H30.2496C30.2496 28.6263 28.5259 30.35 26.3996 30.35V30.5V30.65C28.6916 30.65 30.5496 28.792 30.5496 26.5H30.3996ZM30.3996 16.9H30.2496V26.5H30.3996H30.5496V16.9H30.3996ZM30.1653 16.3343L30.0592 16.4404C30.1811 16.5623 30.2496 16.7276 30.2496 16.9H30.3996H30.5496C30.5496 16.648 30.4495 16.4064 30.2714 16.2282L30.1653 16.3343ZM29.5996 16.1V16.25C29.772 16.25 29.9373 16.3185 30.0592 16.4404L30.1653 16.3343L30.2714 16.2282C30.0932 16.0501 29.8516 15.95 29.5996 15.95V16.1ZM10.3996 16.1V16.25H29.5996V16.1V15.95H10.3996V16.1ZM19.3596 22.0856L19.2516 21.9815L17.9524 23.3287L18.0604 23.4328L18.1684 23.5369L19.4676 22.1897L19.3596 22.0856ZM19.3596 26.1H19.5096V22.0856H19.3596H19.2096V26.1H19.3596ZM19.9996 26.74V26.59C19.729 26.59 19.5096 26.3706 19.5096 26.1H19.3596H19.2096C19.2096 26.5363 19.5633 26.89 19.9996 26.89V26.74ZM20.6396 26.1H20.4896C20.4896 26.3706 20.2702 26.59 19.9996 26.59V26.74V26.89C20.4359 26.89 20.7896 26.5363 20.7896 26.1H20.6396ZM20.6396 22.0856H20.4896V26.1H20.6396H20.7896V22.0856H20.6396ZM21.9388 23.4328L22.0468 23.3287L20.7476 21.9815L20.6396 22.0856L20.5316 22.1897L21.8308 23.5369L21.9388 23.4328ZM22.5579 23.619L22.5227 23.4732C22.3505 23.5148 22.1693 23.4603 22.0486 23.3306L21.9388 23.4328L21.829 23.535C22.0235 23.7441 22.3156 23.8319 22.5932 23.7648L22.5579 23.619ZM23.0235 23.1704L22.8791 23.1297C22.8311 23.3002 22.6948 23.4315 22.5227 23.4732L22.5579 23.619L22.5932 23.7648C22.8707 23.6976 23.0905 23.4859 23.1679 23.2111L23.0235 23.1704ZM22.8604 22.5448L22.7542 22.6508C22.8794 22.7761 22.9271 22.9593 22.8791 23.1297L23.0235 23.1704L23.1679 23.2111C23.2453 22.9362 23.1683 22.6409 22.9666 22.4388L22.8604 22.5448ZM20.5756 20.1752L20.4676 20.2793L22.7524 22.6489L22.8604 22.5448L22.9684 22.4407L20.6836 20.0711L20.5756 20.1752ZM19.9996 19.9304V20.0804C20.1761 20.0804 20.3451 20.1522 20.4676 20.2793L20.5756 20.1752L20.6836 20.0711C20.5046 19.8853 20.2576 19.7804 19.9996 19.7804V19.9304ZM19.4236 20.1752L19.5316 20.2793C19.6541 20.1522 19.8231 20.0804 19.9996 20.0804V19.9304V19.7804C19.7416 19.7804 19.4947 19.8853 19.3156 20.0711L19.4236 20.1752ZM17.1388 22.5448L17.2468 22.6489L19.5316 20.2793L19.4236 20.1752L19.3156 20.0711L17.0308 22.4407L17.1388 22.5448ZM17.1634 23.4415L17.2674 23.3335C17.075 23.1481 17.0666 22.8426 17.2486 22.647L17.1388 22.5448L17.029 22.4426C16.7355 22.7581 16.749 23.2506 17.0593 23.5496L17.1634 23.4415ZM18.0604 23.4328L17.9542 23.3268C17.7654 23.516 17.4599 23.519 17.2674 23.3335L17.1634 23.4415L17.0593 23.5496C17.3696 23.8485 17.8622 23.8437 18.1666 23.5388L18.0604 23.4328Z" fill="white"/>
</svg>
