<svg width="24" height="24" viewBox="0 0 24 24" fill="none" xmlns="http://www.w3.org/2000/svg">
<g id="icon_xiaoxi">
<rect id="&#231;&#159;&#169;&#229;&#189;&#162;&#229;&#164;&#135;&#228;&#187;&#189; 3" width="24" height="24" fill="#C53232" fill-opacity="0.01"/>
<g id="&#229;&#175;&#185;&#232;&#175;&#157;">
<path id="&#232;&#183;&#175;&#229;&#190;&#132;&#229;&#164;&#135;&#228;&#187;&#189;" d="M19.1244 21C19.2815 21 19.4387 20.9565 19.5785 20.875C19.8829 20.6984 20.075 20.3479 20.075 19.9675V17.5276C22.5403 15.8051 24 13.069 24 10.1455C24 5.10542 19.6958 1 14.4059 1C9.11604 1 4.8118 5.1027 4.8118 10.1482C4.8118 15.191 9.11604 19.2937 14.4034 19.2937C15.0023 19.2937 15.6161 19.2367 16.2349 19.1198L17.3602 19.9349C17.3877 19.9594 17.4151 19.9811 17.4451 20.0029L18.6004 20.8315C18.7551 20.9402 18.9372 21 19.1244 21Z" fill="#2F383F"/>
<path id="&#232;&#183;&#175;&#229;&#190;&#132;" d="M4.87565 21C4.71845 21 4.56125 20.9565 4.42152 20.875C4.1171 20.6984 3.92497 20.3479 3.92497 19.9675V17.5276C1.4597 15.8051 0 13.069 0 10.1455C0 5.10542 4.30424 1 9.5941 1C14.884 1 19.1882 5.1027 19.1882 10.1482C19.1882 15.191 14.884 19.2937 9.5966 19.2937C8.99774 19.2937 8.38392 19.2367 7.76511 19.1198L6.63977 19.9349C6.61232 19.9594 6.58487 19.9811 6.55493 20.0029L5.39964 20.8315C5.24494 20.9402 5.06279 21 4.87565 21Z" fill="#8C99A5"/>
</g>
</g>
</svg>
