<svg width="24" height="24" viewBox="0 0 24 24" fill="none" xmlns="http://www.w3.org/2000/svg">
<rect width="24" height="24" fill="#D8D8D8" fill-opacity="0.01"/>
<circle cx="12" cy="12" r="12" fill="#18A5F1"/>
<path fill-rule="evenodd" clip-rule="evenodd" d="M7.55857 11.1632H16.4406C16.9098 11.1632 17.3175 10.8796 17.481 10.4396C17.6444 10.0007 17.5203 9.51833 17.1651 9.21157L14.4133 6.84122C14.0329 6.51326 13.4597 6.55665 13.1318 6.93607C12.8048 7.31549 12.8472 7.88966 13.2276 8.21661L14.5385 9.34578H7.55857C7.05705 9.34578 6.65039 9.75345 6.65039 10.255C6.65039 10.7565 7.05705 11.1632 7.55857 11.1632Z" fill="#333333"/>
<path fill-rule="evenodd" clip-rule="evenodd" d="M16.6425 13.0375H7.76048C7.29126 13.0375 6.88257 13.322 6.72011 13.762C6.55563 14.201 6.67975 14.6833 7.03596 14.9891L9.78775 17.3584C9.95929 17.5067 10.1692 17.5794 10.3791 17.5794C10.6344 17.5794 10.8887 17.4724 11.0683 17.2625C11.3952 16.8841 11.3528 16.31 10.9724 15.983L9.66262 14.8548H16.6425C17.144 14.8548 17.5507 14.4472 17.5507 13.9457C17.5507 13.4441 17.144 13.0375 16.6425 13.0375Z" fill="#333333"/>
</svg>
