<svg width="40" height="40" viewBox="0 0 40 40" fill="none" xmlns="http://www.w3.org/2000/svg">
<circle cx="20" cy="20" r="20" fill="#232D39"/>
<path d="M21.3944 28.1412V14.4227C21.3944 13.6962 21.0311 13.3329 20.3046 13.3329C19.5781 13.3329 19.2148 13.6962 19.2148 14.4227L19.2148 28.1412C19.2148 28.8677 19.5781 29.231 20.3046 29.231C21.0311 29.231 21.3944 28.8677 21.3944 28.1412Z" fill="#4F5761"/>
<path d="M20.3329 13.3995L25.7398 18.8064C26.0152 19.0817 26.4165 19.1891 26.7925 19.0883C27.1686 18.9874 27.4623 18.6936 27.563 18.3175C27.6637 17.9414 27.5561 17.5402 27.2807 17.2649L21.1164 11.1006C21.0946 11.0788 21.0728 11.0586 21.0499 11.0395C20.6182 10.6613 19.9672 10.6828 19.5613 11.0886L13.3964 17.2529C12.9707 17.6786 12.9707 18.3687 13.3964 18.7944C13.8221 19.2201 14.5122 19.2201 14.9379 18.7944L20.3323 13.3995H20.3329Z" fill="#4F5761"/>
</svg>
