<svg width="24" height="24" viewBox="0 0 24 24" fill="none" xmlns="http://www.w3.org/2000/svg">
<rect width="24" height="24" fill="#C53232" fill-opacity="0.01"/>
<path d="M19.1244 22C19.2815 22 19.4387 21.9565 19.5785 21.875C19.8829 21.6984 20.075 21.3479 20.075 20.9675V18.5276C22.5403 16.8051 24 14.069 24 11.1455C24 6.10542 19.6958 2 14.4059 2C9.11604 2 4.8118 6.1027 4.8118 11.1482C4.8118 16.191 9.11604 20.2937 14.4034 20.2937C15.0023 20.2937 15.6161 20.2367 16.2349 20.1198L17.3602 20.9349C17.3877 20.9594 17.4151 20.9811 17.4451 21.0029L18.6004 21.8315C18.7551 21.9402 18.9372 22 19.1244 22Z" fill="#2F383F"/>
<path d="M4.87565 22C4.71845 22 4.56125 21.9565 4.42152 21.875C4.1171 21.6984 3.92497 21.3479 3.92497 20.9675V18.5276C1.4597 16.8051 0 14.069 0 11.1455C0 6.10542 4.30424 2 9.5941 2C14.884 2 19.1882 6.1027 19.1882 11.1482C19.1882 16.191 14.884 20.2937 9.5966 20.2937C8.99774 20.2937 8.38392 20.2367 7.76511 20.1198L6.63977 20.9349C6.61232 20.9594 6.58487 20.9811 6.55493 21.0029L5.39964 21.8315C5.24494 21.9402 5.06279 22 4.87565 22Z" fill="#18A5F1"/>
</svg>
