<svg width="40" height="40" viewBox="0 0 40 40" fill="none" xmlns="http://www.w3.org/2000/svg">
<circle cx="20" cy="20" r="20" fill="white"/>
<path fill-rule="evenodd" clip-rule="evenodd" d="M10.9091 17.2727C10.3636 17.2727 10 16.9091 10 16.3636V12.7273C10 11.2727 11.2727 10 12.7273 10H16.3636C16.9091 10 17.2727 10.3636 17.2727 10.9091C17.2727 11.4546 16.9091 11.8182 16.3636 11.8182H12.7273C12.1818 11.8182 11.8182 12.1818 11.8182 12.7273V16.3636C11.8182 16.9091 11.4546 17.2727 10.9091 17.2727ZM16.3636 30H12.7273C11.2727 30 10 28.7273 10 27.2727V23.6364C10 23.0909 10.3636 22.7273 10.9091 22.7273C11.4546 22.7273 11.8182 23.0909 11.8182 23.6364V27.2727C11.8182 27.8182 12.1818 28.1818 12.7273 28.1818H16.3636C16.9091 28.1818 17.2727 28.5454 17.2727 29.0909C17.2727 29.6364 16.9091 30 16.3636 30ZM23.6364 30H27.2727C28.7273 30 30 28.7273 30 27.2727V23.6364C30 23.0909 29.6364 22.7273 29.0909 22.7273C28.5454 22.7273 28.1818 23.0909 28.1818 23.6364V27.2727C28.1818 27.8182 27.8182 28.1818 27.2727 28.1818H23.6364C23.0909 28.1818 22.7273 28.5454 22.7273 29.0909C22.7273 29.6364 23.0909 30 23.6364 30ZM29.0909 17.2727C28.5454 17.2727 28.1818 16.9091 28.1818 16.3636V12.7273C28.1818 12.1818 27.8182 11.8182 27.2727 11.8182H23.6364C23.0909 11.8182 22.7273 11.4546 22.7273 10.9091C22.7273 10.3636 23.0909 10 23.6364 10H27.2727C28.7273 10 30 11.2727 30 12.7273V16.3636C30 16.9091 29.6364 17.2727 29.0909 17.2727ZM10.9091 20.9091H29.0909C29.6364 20.9091 30 20.5454 30 20C30 19.4545 29.6364 19.0909 29.0909 19.0909H10.9091C10.3636 19.0909 10 19.4545 10 20C10 20.5454 10.3636 20.9091 10.9091 20.9091Z" fill="#D9D9D9"/>
</svg>
