<svg width="24" height="24" viewBox="0 0 24 24" fill="none" xmlns="http://www.w3.org/2000/svg">
    <rect width="24" height="24" fill="#E07575" fill-opacity="0.01" />
    <path
        d="M21.6823 20.1336C21.491 18.9997 20.8691 17.9644 19.8177 17.3728C19.4077 17.1304 18.9747 16.9321 18.5253 16.7812C18.3348 16.6835 17.3303 16.2882 17.0433 16.1403C15.0343 15.2538 14.1255 14.6129 14.1255 14.0204C14.1255 13.6753 14.222 13.3795 14.4621 12.986C14.556 12.8381 14.9874 12.2465 15.0343 12.0977C15.8475 10.8661 16.2302 9.6336 16.2302 7.71089C16.2302 3.67012 14.1751 1.5 11.1128 1.5C8.05235 1.5 5.99461 3.6199 5.99461 7.71089C5.99461 9.6336 6.37816 10.8661 7.19045 12.0977C7.28701 12.2456 7.71751 12.8372 7.76534 12.986C8.00451 13.3795 8.10107 13.6753 8.10107 14.0204C8.10107 14.5636 7.1435 15.2529 5.1832 16.1403C4.8962 16.2882 3.88992 16.6835 3.70124 16.7812C3.12635 17.0277 2.74368 17.2249 2.40796 17.3728C1.42028 17.9627 0.73758 18.974 0.544214 20.1336C0.351993 21.3661 0.781611 22.5 1.92962 22.5H20.1986C21.3944 22.4498 21.8249 21.3159 21.6814 20.1336H21.6823Z"
        fill="#18A5F1" stroke="#18A5F1" stroke-width="0.2" />
    <path fill-rule="evenodd" clip-rule="evenodd"
        d="M23.5 8.57851C23.4875 8.16174 23.1523 7.82695 22.7355 7.81494H18.0965C17.6791 7.82603 17.3429 8.16108 17.3303 8.57851C17.3303 8.96118 17.713 9.34385 18.0948 9.34385H22.7347C23.1652 9.34385 23.5 9.00813 23.5 8.58028V8.57851ZM22.7355 10.4361H19.1002C18.6831 10.4481 18.3477 10.7834 18.3357 11.2005C18.3357 11.5832 18.7175 11.9659 19.1002 11.9659H22.7355C23.1527 11.9538 23.488 11.6185 23.5 11.2014C23.4884 10.7839 23.153 10.4481 22.7355 10.4361ZM20.1525 13.0049H22.7355C23.1533 13.017 23.4889 13.3533 23.5 13.7711C23.4879 14.1886 23.1521 14.524 22.7347 14.5356H20.1516C19.769 14.5356 19.3872 14.152 19.3872 13.7702C19.3988 13.3525 19.7347 13.0165 20.1525 13.0049Z"
        fill="#333333" />
</svg>