<svg width="40" height="40" viewBox="0 0 40 40" fill="none" xmlns="http://www.w3.org/2000/svg">
<circle cx="20" cy="20" r="20" fill="white"/>
<path d="M16.1786 10.307C16.8035 9.66055 17.8975 10.1029 17.8975 11.002V28.9767C17.8975 29.529 17.4498 29.9767 16.8975 29.9767C16.3453 29.9767 15.8975 29.529 15.8975 28.9767L15.897 13.475L12.719 16.7632C12.3646 17.1297 11.798 17.167 11.4006 16.8687L11.305 16.7871C10.9079 16.4033 10.8972 15.7702 11.281 15.3731L16.1786 10.307Z" fill="black"/>
<path d="M23.7189 29.6718C23.094 30.3182 21.9999 29.8758 21.9999 28.9767V11.002C21.9999 10.4498 22.4476 10.002 22.9999 10.002C23.5522 10.002 23.9999 10.4498 23.9999 11.002L24.0005 26.5037L27.1785 23.2156C27.5328 22.849 28.0995 22.8117 28.4969 23.1101L28.5925 23.1916C28.9896 23.5755 29.0003 24.2086 28.6164 24.6057L23.7189 29.6718Z" fill="black"/>
</svg>
