<svg width="40" height="40" viewBox="0 0 40 40" fill="none" xmlns="http://www.w3.org/2000/svg">
<circle cx="20" cy="20" r="20" fill="white"/>
<path d="M21.3944 28.1409V14.4225C21.3944 13.696 21.0311 13.3327 20.3046 13.3327C19.5781 13.3327 19.2148 13.696 19.2148 14.4225L19.2148 28.1409C19.2148 28.8675 19.5781 29.2307 20.3046 29.2307C21.0311 29.2307 21.3944 28.8675 21.3944 28.1409Z" fill="#D9D9D9"/>
<path d="M20.3329 13.3992L25.7398 18.8062C26.0152 19.0814 26.4165 19.1889 26.7925 19.088C27.1686 18.9872 27.4623 18.6934 27.563 18.3173C27.6637 17.9412 27.5561 17.5399 27.2807 17.2647L21.1164 11.1003C21.0946 11.0785 21.0728 11.0584 21.0499 11.0393C20.6182 10.6611 19.9672 10.6825 19.5613 11.0883L13.3964 17.2527C12.9707 17.6783 12.9707 18.3685 13.3964 18.7942C13.8221 19.2198 14.5122 19.2198 14.9379 18.7942L20.3323 13.3992H20.3329Z" fill="#D9D9D9"/>
</svg>
