<svg width="40" height="40" viewBox="0 0 40 40" fill="none" xmlns="http://www.w3.org/2000/svg">
<circle cx="20" cy="20" r="20" fill="#232D39"/>
<path d="M21.3944 11.8588V25.5773C21.3944 26.3038 21.0311 26.6671 20.3046 26.6671C19.5781 26.6671 19.2148 26.3038 19.2148 25.5773L19.2148 11.8588C19.2148 11.1323 19.5781 10.769 20.3046 10.769C21.0311 10.769 21.3944 11.1323 21.3944 11.8588Z" fill="white"/>
<path d="M20.3329 26.6005L25.7398 21.1936C26.0152 20.9183 26.4165 20.8109 26.7925 20.9117C27.1686 21.0126 27.4623 21.3064 27.563 21.6825C27.6637 22.0586 27.5561 22.4598 27.2807 22.7351L21.1164 28.8994C21.0946 28.9212 21.0728 28.9414 21.0499 28.9605C20.6182 29.3387 19.9672 29.3172 19.5613 28.9114L13.3964 22.7471C12.9707 22.3214 12.9707 21.6313 13.3964 21.2056C13.8221 20.7799 14.5122 20.7799 14.9379 21.2056L20.3323 26.6005H20.3329Z" fill="white"/>
</svg>
