<svg width="40" height="40" viewBox="0 0 40 40" fill="none" xmlns="http://www.w3.org/2000/svg">
<circle cx="20" cy="20" r="20" fill="white"/>
<path d="M21.3944 11.8591V25.5775C21.3944 26.304 21.0311 26.6673 20.3046 26.6673C19.5781 26.6673 19.2148 26.304 19.2148 25.5775L19.2148 11.8591C19.2148 11.1325 19.5781 10.7693 20.3046 10.7693C21.0311 10.7693 21.3944 11.1325 21.3944 11.8591Z" fill="black"/>
<path d="M20.3329 26.6008L25.7398 21.1938C26.0152 20.9186 26.4165 20.8111 26.7925 20.912C27.1686 21.0128 27.4623 21.3066 27.563 21.6827C27.6637 22.0588 27.5561 22.4601 27.2807 22.7353L21.1164 28.8997C21.0946 28.9215 21.0728 28.9416 21.0499 28.9607C20.6182 29.3389 19.9672 29.3175 19.5613 28.9117L13.3964 22.7473C12.9707 22.3217 12.9707 21.6315 13.3964 21.2058C13.8221 20.7802 14.5122 20.7802 14.9379 21.2058L20.3323 26.6008H20.3329Z" fill="black"/>
</svg>
