<svg width="40" height="40" viewBox="0 0 40 40" fill="none" xmlns="http://www.w3.org/2000/svg">
<path d="M40 20C40 31.046 31.046 40 20 40C8.9544 40 3.92578e-08 31.046 0 20C0 8.9542 8.9544 3.92578e-08 20 0C31.046 0 40 8.9542 40 20" fill="#1BA27A"/>
<path d="M29.3862 10.085H10.4482V14.657H17.6312V21.377H22.2032V14.657H29.3862V10.085Z" fill="white"/>
<path fill-rule="evenodd" clip-rule="evenodd" d="M19.9611 17.6338C26.6333 17.6338 32.0421 18.8464 32.0421 20.3424C32.0421 21.6666 27.8041 22.7688 22.2035 23.0044V32.6474H17.6319V23.0006C12.0741 22.7574 7.87988 21.6598 7.87988 20.3424C7.87988 18.8464 13.2891 17.6338 19.9611 17.6338ZM9.20168 19.9922C9.20168 21.1524 14.0191 22.0928 19.9611 22.0928C25.9031 22.0928 30.7203 21.1524 30.7203 19.9922C30.7203 18.8322 25.9031 17.8916 19.9611 17.8916C14.0189 17.8916 9.20168 18.8322 9.20168 19.9922Z" fill="white"/>
</svg>
