<svg width="19" height="19" viewBox="0 0 19 19" fill="none" xmlns="http://www.w3.org/2000/svg">
<path d="M18 9C18 13.9707 13.9707 18 9 18C4.02948 18 1.7666e-08 13.9707 0 9C0 4.02939 4.02948 1.7666e-08 9 0C13.9707 0 18 4.02939 18 9" fill="#1BA27A"/>
<path d="M13.2242 4.53833H4.70215V6.59573H7.9345V9.61973H9.9919V6.59573H13.2242V4.53833Z" fill="white"/>
<path fill-rule="evenodd" clip-rule="evenodd" d="M8.98244 7.9353C11.9849 7.9353 14.4189 8.48097 14.4189 9.15417C14.4189 9.75006 12.5118 10.2461 9.99152 10.3521V14.6914H7.9343V10.3504C5.43329 10.2409 3.5459 9.747 3.5459 9.15417C3.5459 8.48097 5.98004 7.9353 8.98244 7.9353ZM4.14071 8.99658C4.14071 9.51867 6.30854 9.94185 8.98244 9.94185C11.6563 9.94185 13.8241 9.51867 13.8241 8.99658C13.8241 8.47458 11.6563 8.05131 8.98244 8.05131C6.30845 8.05131 4.14071 8.47458 4.14071 8.99658Z" fill="white"/>
<path d="M14.5 10.7998C16.5435 10.7998 18.2002 12.4565 18.2002 14.5C18.2002 16.5435 16.5435 18.2002 14.5 18.2002C12.4565 18.2002 10.7998 16.5435 10.7998 14.5C10.7998 12.4565 12.4565 10.7998 14.5 10.7998Z" fill="#C53027" stroke="white" stroke-width="0.4"/>
<path fill-rule="evenodd" clip-rule="evenodd" d="M15.9918 13.099L12.458 12.4583L14.3177 17.0695L16.9088 13.9586L15.9918 13.099ZM15.935 13.3814L16.4754 13.8877L15.1285 14.0989L15.935 13.3814ZM13.1175 12.8252L14.6758 14.0989L15.6646 13.2869L13.1175 12.8252ZM14.565 14.324L14.2383 16.301L12.9407 12.9964L14.5647 14.324H14.565ZM16.4372 14.1418L14.8001 14.434L14.535 16.301L16.4372 14.1418Z" fill="white"/>
</svg>
