<svg width="28" height="28" viewBox="0 0 28 28" fill="none" xmlns="http://www.w3.org/2000/svg">
<circle cx="14" cy="14" r="14" fill="#F5F5F5"/>
<path fill-rule="evenodd" clip-rule="evenodd" d="M9.71934 14.6691C9.65026 14.6325 9.58447 14.5845 9.52513 14.5251C9.42604 14.426 9.35839 14.309 9.32331 14.1887C9.30404 14.1287 9.29471 14.065 9.29516 14C9.29471 13.935 9.30404 13.8713 9.32331 13.8113C9.35839 13.691 9.42604 13.574 9.52513 13.4749C9.58447 13.4155 9.65026 13.3675 9.71934 13.3309L14.5966 8.4537C14.8332 8.217 15.249 8.24898 15.5251 8.52513C15.8013 8.80127 15.8332 9.217 15.5966 9.4537L11.0503 14L15.5966 18.5463C15.8332 18.783 15.8013 19.1987 15.5251 19.4749C15.249 19.751 14.8332 19.783 14.5966 19.5463L9.71934 14.6691Z" fill="black"/>
</svg>
